<svg xmlns="http://www.w3.org/2000/svg">
  <defs>
    <svg id="dashboard" viewBox="0 0 24 24" fill="none" xmlns="http://www.w3.org/2000/svg">
      <path d="M17 10H19C21 10 22 9 22 7V5C22 3 21 2 19 2H17C15 2 14 3 14 5V7C14 9 15 10 17 10Z" stroke="currentColor"
            stroke-width="1.5" stroke-miterlimit="10" stroke-linecap="round" stroke-linejoin="round"/>
      <path d="M5 22H7C9 22 10 21 10 19V17C10 15 9 14 7 14H5C3 14 2 15 2 17V19C2 21 3 22 5 22Z" stroke="currentColor"
            stroke-width="1.5" stroke-miterlimit="10" stroke-linecap="round" stroke-linejoin="round"/>
      <path
        d="M6 10C8.20914 10 10 8.20914 10 6C10 3.79086 8.20914 2 6 2C3.79086 2 2 3.79086 2 6C2 8.20914 3.79086 10 6 10Z"
        stroke="currentColor" stroke-width="1.5" stroke-miterlimit="10" stroke-linecap="round" stroke-linejoin="round"/>
      <path
        d="M18 22C20.2091 22 22 20.2091 22 18C22 15.7909 20.2091 14 18 14C15.7909 14 14 15.7909 14 18C14 20.2091 15.7909 22 18 22Z"
        stroke="currentColor" stroke-width="1.5" stroke-miterlimit="10" stroke-linecap="round" stroke-linejoin="round"/>
    </svg>

    <svg id="book" viewBox="0 0 24 24" fill="none" xmlns="http://www.w3.org/2000/svg">
      <path
        d="M22 16.7399V4.66994C22 3.46994 21.02 2.57994 19.83 2.67994H19.77C17.67 2.85994 14.48 3.92994 12.7 5.04994L12.53 5.15994C12.24 5.33994 11.76 5.33994 11.47 5.15994L11.22 5.00994C9.44 3.89994 6.26 2.83994 4.16 2.66994C2.97 2.56994 2 3.46994 2 4.65994V16.7399C2 17.6999 2.78 18.5999 3.74 18.7199L4.03 18.7599C6.2 19.0499 9.55 20.1499 11.47 21.1999L11.51 21.2199C11.78 21.3699 12.21 21.3699 12.47 21.2199C14.39 20.1599 17.75 19.0499 19.93 18.7599L20.26 18.7199C21.22 18.5999 22 17.6999 22 16.7399Z"
        stroke="currentColor" stroke-width="1.5" stroke-linecap="round" stroke-linejoin="round"/>
      <path d="M12 5.48999V20.49" stroke="currentColor" stroke-width="1.5" stroke-linecap="round"
            stroke-linejoin="round"/>
      <path d="M7.75 8.48999H5.5" stroke="currentColor" stroke-width="1.5" stroke-linecap="round"
            stroke-linejoin="round"/>
      <path d="M8.5 11.49H5.5" stroke="currentColor" stroke-width="1.5" stroke-linecap="round" stroke-linejoin="round"/>
    </svg>

    <svg id="members" viewBox="0 0 24 24" fill="none" xmlns="http://www.w3.org/2000/svg">
      <path
        d="M21.0802 8.58003V15.42C21.0802 16.54 20.4802 17.58 19.5102 18.15L13.5702 21.58C12.6002 22.14 11.4002 22.14 10.4202 21.58L4.48016 18.15C3.51016 17.59 2.91016 16.55 2.91016 15.42V8.58003C2.91016 7.46003 3.51016 6.41999 4.48016 5.84999L10.4202 2.42C11.3902 1.86 12.5902 1.86 13.5702 2.42L19.5102 5.84999C20.4802 6.41999 21.0802 7.45003 21.0802 8.58003Z"
        stroke="currentColor" stroke-width="1.5" stroke-linecap="round" stroke-linejoin="round"/>
      <path
        d="M11.9999 11.0001C13.2867 11.0001 14.3299 9.95687 14.3299 8.67004C14.3299 7.38322 13.2867 6.34009 11.9999 6.34009C10.7131 6.34009 9.66992 7.38322 9.66992 8.67004C9.66992 9.95687 10.7131 11.0001 11.9999 11.0001Z"
        stroke="currentColor" stroke-width="1.5" stroke-linecap="round" stroke-linejoin="round"/>
      <path d="M16 16.6601C16 14.8601 14.21 13.4001 12 13.4001C9.79 13.4001 8 14.8601 8 16.6601" stroke="currentColor"
            stroke-width="1.5" stroke-linecap="round" stroke-linejoin="round"/>
    </svg>

    <svg id="message" viewBox="0 0 24 24" fill="none" xmlns="http://www.w3.org/2000/svg">
      <path
        d="M8.5 19H8C4 19 2 18 2 13V8C2 4 4 2 8 2H16C20 2 22 4 22 8V13C22 17 20 19 16 19H15.5C15.19 19 14.89 19.15 14.7 19.4L13.2 21.4C12.54 22.28 11.46 22.28 10.8 21.4L9.3 19.4C9.14 19.18 8.77 19 8.5 19Z"
        stroke="currentColor" stroke-width="1.5" stroke-miterlimit="10" stroke-linecap="round" stroke-linejoin="round"/>
      <path d="M15.9965 11H16.0054" stroke="currentColor" stroke-width="2" stroke-linecap="round"
            stroke-linejoin="round"/>
      <path d="M11.9955 11H12.0045" stroke="currentColor" stroke-width="2" stroke-linecap="round"
            stroke-linejoin="round"/>
      <path d="M7.99451 11H8.00349" stroke="currentColor" stroke-width="2" stroke-linecap="round"
            stroke-linejoin="round"/>
    </svg>

    <svg id="settings" viewBox="0 0 24 24" fill="none" xmlns="http://www.w3.org/2000/svg">
      <path
        d="M12 15C13.6569 15 15 13.6569 15 12C15 10.3431 13.6569 9 12 9C10.3431 9 9 10.3431 9 12C9 13.6569 10.3431 15 12 15Z"
        stroke="currentColor" stroke-width="1.5" stroke-miterlimit="10" stroke-linecap="round" stroke-linejoin="round"/>
      <path
        d="M2 12.8799V11.1199C2 10.0799 2.85 9.21994 3.9 9.21994C5.71 9.21994 6.45 7.93994 5.54 6.36994C5.02 5.46994 5.33 4.29994 6.24 3.77994L7.97 2.78994C8.76 2.31994 9.78 2.59994 10.25 3.38994L10.36 3.57994C11.26 5.14994 12.74 5.14994 13.65 3.57994L13.76 3.38994C14.23 2.59994 15.25 2.31994 16.04 2.78994L17.77 3.77994C18.68 4.29994 18.99 5.46994 18.47 6.36994C17.56 7.93994 18.3 9.21994 20.11 9.21994C21.15 9.21994 22.01 10.0699 22.01 11.1199V12.8799C22.01 13.9199 21.16 14.7799 20.11 14.7799C18.3 14.7799 17.56 16.0599 18.47 17.6299C18.99 18.5399 18.68 19.6999 17.77 20.2199L16.04 21.2099C15.25 21.6799 14.23 21.3999 13.76 20.6099L13.65 20.4199C12.75 18.8499 11.27 18.8499 10.36 20.4199L10.25 20.6099C9.78 21.3999 8.76 21.6799 7.97 21.2099L6.24 20.2199C5.33 19.6999 5.02 18.5299 5.54 17.6299C6.45 16.0599 5.71 14.7799 3.9 14.7799C2.85 14.7799 2 13.9199 2 12.8799Z"
        stroke="currentColor" stroke-width="1.5" stroke-miterlimit="10" stroke-linecap="round" stroke-linejoin="round"/>
    </svg>

    <svg id="sun" viewBox="0 0 15 16" fill="none" xmlns="http://www.w3.org/2000/svg">
      <path
        d="M7.49984 12.6667C10.0772 12.6667 12.1665 10.5774 12.1665 8.00008C12.1665 5.42275 10.0772 3.33341 7.49984 3.33341C4.92251 3.33341 2.83317 5.42275 2.83317 8.00008C2.83317 10.5774 4.92251 12.6667 7.49984 12.6667Z"
        fill="currentColor"/>
      <path
        d="M7.49984 15.3067C7.13317 15.3067 6.83317 15.0334 6.83317 14.6667V14.6134C6.83317 14.2467 7.13317 13.9467 7.49984 13.9467C7.8665 13.9467 8.1665 14.2467 8.1665 14.6134C8.1665 14.9801 7.8665 15.3067 7.49984 15.3067ZM12.2598 13.4267C12.0865 13.4267 11.9198 13.3601 11.7865 13.2334L11.6998 13.1467C11.4398 12.8867 11.4398 12.4667 11.6998 12.2067C11.9598 11.9467 12.3798 11.9467 12.6398 12.2067L12.7265 12.2934C12.9865 12.5534 12.9865 12.9734 12.7265 13.2334C12.5998 13.3601 12.4332 13.4267 12.2598 13.4267ZM2.73984 13.4267C2.5665 13.4267 2.39984 13.3601 2.2665 13.2334C2.0065 12.9734 2.0065 12.5534 2.2665 12.2934L2.35317 12.2067C2.61317 11.9467 3.03317 11.9467 3.29317 12.2067C3.55317 12.4667 3.55317 12.8867 3.29317 13.1467L3.2065 13.2334C3.07984 13.3601 2.9065 13.4267 2.73984 13.4267ZM14.1665 8.66675H14.1132C13.7465 8.66675 13.4465 8.36675 13.4465 8.00008C13.4465 7.63341 13.7465 7.33342 14.1132 7.33342C14.4798 7.33342 14.8065 7.63341 14.8065 8.00008C14.8065 8.36675 14.5332 8.66675 14.1665 8.66675ZM0.886504 8.66675H0.833171C0.466504 8.66675 0.166504 8.36675 0.166504 8.00008C0.166504 7.63341 0.466504 7.33342 0.833171 7.33342C1.19984 7.33342 1.5265 7.63341 1.5265 8.00008C1.5265 8.36675 1.25317 8.66675 0.886504 8.66675ZM12.1732 3.99341C11.9998 3.99341 11.8332 3.92675 11.6998 3.80008C11.4398 3.54008 11.4398 3.12008 11.6998 2.86008L11.7865 2.77341C12.0465 2.51341 12.4665 2.51341 12.7265 2.77341C12.9865 3.03341 12.9865 3.45341 12.7265 3.71341L12.6398 3.80008C12.5132 3.92675 12.3465 3.99341 12.1732 3.99341ZM2.8265 3.99341C2.65317 3.99341 2.4865 3.92675 2.35317 3.80008L2.2665 3.70675C2.0065 3.44675 2.0065 3.02675 2.2665 2.76675C2.5265 2.50675 2.9465 2.50675 3.2065 2.76675L3.29317 2.85342C3.55317 3.11342 3.55317 3.53341 3.29317 3.79341C3.1665 3.92675 2.99317 3.99341 2.8265 3.99341ZM7.49984 2.02675C7.13317 2.02675 6.83317 1.75341 6.83317 1.38675V1.33341C6.83317 0.966748 7.13317 0.666748 7.49984 0.666748C7.8665 0.666748 8.1665 0.966748 8.1665 1.33341C8.1665 1.70008 7.8665 2.02675 7.49984 2.02675Z"
        fill="currentColor"/>
    </svg>

    <svg id="moon" viewBox="0 0 14 14" fill="none" xmlns="http://www.w3.org/2000/svg">
      <path
        d="M13.3531 9.62C13.2465 9.44 12.9465 9.16 12.1998 9.29333C11.7865 9.36666 11.3665 9.4 10.9465 9.38C9.39314 9.31333 7.98647 8.6 7.00647 7.5C6.13981 6.53333 5.60647 5.27333 5.5998 3.91333C5.5998 3.15333 5.74647 2.42 6.04647 1.72666C6.33981 1.05333 6.13314 0.699996 5.98647 0.55333C5.83314 0.399996 5.47314 0.186663 4.76647 0.479996C2.03981 1.62666 0.353139 4.36 0.553139 7.28666C0.753139 10.04 2.68647 12.3933 5.24647 13.28C5.85981 13.4933 6.50647 13.62 7.17314 13.6467C7.27981 13.6533 7.38647 13.66 7.49314 13.66C9.72647 13.66 11.8198 12.6067 13.1398 10.8133C13.5865 10.1933 13.4665 9.8 13.3531 9.62Z"
        fill="currentColor"/>
    </svg>

    <svg id="bell" viewBox="0 0 20 22" fill="none" xmlns="http://www.w3.org/2000/svg">
      <path fill-rule="evenodd" clip-rule="evenodd"
            d="M1.50083 12.7871V12.5681C1.53295 11.9202 1.7406 11.2925 2.10236 10.7496C2.7045 10.0975 3.1167 9.29831 3.29571 8.43598C3.29571 7.7695 3.29571 7.0935 3.35393 6.42703C3.65469 3.21842 6.82728 1 9.96106 1H10.0387C13.1725 1 16.345 3.21842 16.6555 6.42703C16.7137 7.0935 16.6555 7.7695 16.704 8.43598C16.8854 9.3003 17.2972 10.1019 17.8974 10.7591C18.2618 11.2972 18.4698 11.9227 18.4989 12.5681V12.7776C18.5206 13.648 18.2208 14.4968 17.6548 15.1674C16.907 15.9515 15.8921 16.4393 14.8024 16.5384C11.607 16.8812 8.38303 16.8812 5.18762 16.5384C4.09914 16.435 3.08576 15.9479 2.33521 15.1674C1.778 14.4963 1.48224 13.6526 1.50083 12.7871Z"
            stroke="currentColor" stroke-width="1.5" stroke-linecap="round" stroke-linejoin="round"/>
      <path
        d="M7.55518 19.8518C8.05445 20.4785 8.78764 20.884 9.59247 20.9788C10.3973 21.0735 11.2074 20.8495 11.8435 20.3564C12.0391 20.2106 12.2152 20.041 12.3674 19.8518"
        stroke="currentColor" stroke-width="1.5" stroke-linecap="round" stroke-linejoin="round"/>
    </svg>

    <svg id="kaa" viewBox="0 0 32 24" fill="none" xmlns="http://www.w3.org/2000/svg">
      <g clip-path="url(#clip0_1_18)">
        <path d="M0 0H48V24H0V0Z" fill="#209C3A"/>
        <path d="M0 0H48V9.6H0V0Z" fill="#008EB7"/>
        <path d="M0 8.06396H48V15.936H0V8.06396Z" fill="white"/>
        <path d="M0 8.25598H48V15.744H0V8.25598Z" fill="#DA251D"/>
        <path d="M0 8.73596H48V15.264H0V8.73596Z" fill="#F7BD29"/>
        <path
          d="M5.95203 6.14404C7.11845 6.14404 8.06403 5.19847 8.06403 4.03204C8.06403 2.86562 7.11845 1.92004 5.95203 1.92004C4.7856 1.92004 3.84003 2.86562 3.84003 4.03204C3.84003 5.19847 4.7856 6.14404 5.95203 6.14404Z"
          fill="white"/>
        <path
          d="M6.72 5.85601C7.72736 5.85601 8.544 5.03938 8.544 4.03201C8.544 3.02464 7.72736 2.20801 6.72 2.20801C5.71263 2.20801 4.896 3.02464 4.896 4.03201C4.896 5.03938 5.71263 5.85601 6.72 5.85601Z"
          fill="#008EB7"/>
        <path d="M8.06403 5.07069H9.89005L8.41277 6.14401L8.97704 4.40735L9.54131 6.14401L8.06403 5.07069Z"
              fill="white"/>
        <path d="M9.04749 3.92738H10.8735L9.39623 5.00069L9.9605 3.26404L10.5248 5.00069L9.04749 3.92738Z"
              fill="white"/>
        <path d="M10.031 5.07069H11.857L10.3797 6.14401L10.944 4.40735L11.5083 6.14401L10.031 5.07069Z" fill="white"/>
        <path d="M11.0145 3.92738H12.8405L11.3632 5.00069L11.9275 3.26404L12.4918 5.00069L11.0145 3.92738Z"
              fill="white"/>
        <path d="M11.998 5.07069H13.824L12.3467 6.14401L12.911 4.40735L13.4753 6.14401L11.998 5.07069Z" fill="white"/>
      </g>
      <defs>
        <clipPath id="clip0_1_18">
          <rect width="32" height="24" fill="white"/>
        </clipPath>
      </defs>
    </svg>

    <svg id="ru" viewBox="0 0 24 24" fill="none" xmlns="http://www.w3.org/2000/svg">
      <g clip-path="url(#clip0_22_249585)">
        <path
          d="M12 24C18.6274 24 24 18.6274 24 12C24 5.37258 18.6274 0 12 0C5.37258 0 0 5.37258 0 12C0 18.6274 5.37258 24 12 24Z"
          fill="#F0F0F0"/>
        <path
          d="M23.2536 16.1735C23.736 14.8735 24 13.4674 24 11.9996C24 10.5317 23.736 9.12567 23.2536 7.82568H0.746391C0.264047 9.12567 0 10.5317 0 11.9996C0 13.4674 0.264047 14.8735 0.746391 16.1735L12 17.2169L23.2536 16.1735Z"
          fill="#0052B4"/>
        <path
          d="M11.9997 23.9995C17.1593 23.9995 21.5578 20.743 23.2533 16.1733H0.746094C2.44161 20.743 6.84012 23.9995 11.9997 23.9995Z"
          fill="#D80027"/>
      </g>
      <defs>
        <clipPath id="clip0_22_249585">
          <rect width="24" height="24" fill="white"/>
        </clipPath>
      </defs>
    </svg>


    <svg id="en" viewBox="0 0 24 24" fill="none" xmlns="http://www.w3.org/2000/svg">
      <g clip-path="url(#clip0_22_249664)">
        <path
          d="M12 24C18.6274 24 24 18.6274 24 12C24 5.37258 18.6274 0 12 0C5.37258 0 0 5.37258 0 12C0 18.6274 5.37258 24 12 24Z"
          fill="#F0F0F0"/>
        <path d="M11.4785 12.0001H24.0002C24.0002 10.917 23.8559 9.86774 23.5868 8.86963H11.4785V12.0001Z"
              fill="#D80027"/>
        <path d="M11.4785 5.73836H22.239C21.5044 4.53968 20.5651 3.48016 19.47 2.60791H11.4785V5.73836Z"
              fill="#D80027"/>
        <path
          d="M12.0011 23.9998C14.8252 23.9998 17.421 23.0237 19.4709 21.3911H4.53125C6.58109 23.0237 9.17689 23.9998 12.0011 23.9998Z"
          fill="#D80027"/>
        <path
          d="M1.76195 18.2598H22.2394C22.8291 17.2975 23.2865 16.2457 23.5873 15.1294H0.414062C0.714859 16.2457 1.17222 17.2975 1.76195 18.2598Z"
          fill="#D80027"/>
        <path
          d="M5.55863 1.87397H6.65217L5.63498 2.61295L6.02353 3.80869L5.00639 3.0697L3.98925 3.80869L4.32487 2.7757C3.42928 3.52172 2.64431 4.39575 1.99744 5.36963H2.34783L1.70034 5.84002C1.59947 6.0083 1.50272 6.17925 1.41 6.35273L1.71919 7.30434L1.14234 6.88523C0.998953 7.18903 0.867797 7.49967 0.749906 7.81678L1.09055 8.86528H2.34783L1.33064 9.60427L1.71919 10.8L0.702047 10.061L0.0927656 10.5037C0.0317812 10.9939 0 11.4932 0 12H12C12 5.37262 12 4.59131 12 0C9.62944 0 7.41961 0.687656 5.55863 1.87397ZM6.02353 10.8L5.00639 10.061L3.98925 10.8L4.3778 9.60427L3.36061 8.86528H4.61789L5.00639 7.66955L5.39489 8.86528H6.65217L5.63498 9.60427L6.02353 10.8ZM5.63498 6.10861L6.02353 7.30434L5.00639 6.56536L3.98925 7.30434L4.3778 6.10861L3.36061 5.36963H4.61789L5.00639 4.17389L5.39489 5.36963H6.65217L5.63498 6.10861ZM10.3279 10.8L9.31073 10.061L8.29359 10.8L8.68214 9.60427L7.66495 8.86528H8.92223L9.31073 7.66955L9.69923 8.86528H10.9565L9.93933 9.60427L10.3279 10.8ZM9.93933 6.10861L10.3279 7.30434L9.31073 6.56536L8.29359 7.30434L8.68214 6.10861L7.66495 5.36963H8.92223L9.31073 4.17389L9.69923 5.36963H10.9565L9.93933 6.10861ZM9.93933 2.61295L10.3279 3.80869L9.31073 3.0697L8.29359 3.80869L8.68214 2.61295L7.66495 1.87397H8.92223L9.31073 0.678234L9.69923 1.87397H10.9565L9.93933 2.61295Z"
          fill="#0052B4"/>
      </g>
      <defs>
        <clipPath id="clip0_22_249664">
          <rect width="24" height="24" fill="white"/>
        </clipPath>
      </defs>
    </svg>


    <svg id="uz" viewBox="0 0 24 24" fill="none" xmlns="http://www.w3.org/2000/svg">
      <g clip-path="url(#clip0_22_249815)">
        <path
          d="M0.566625 8.34794C0.199031 9.49956 -4.68667e-05 10.7264 8.27601e-09 12C-4.68667e-05 13.2736 0.199078 14.5005 0.566672 15.6521L12 16.174L23.4333 15.6522C23.8009 14.5006 24.0001 13.2736 24.0001 12.0001C24 10.7265 23.8009 9.49956 23.4333 8.34789L12 7.82617L0.566625 8.34794Z"
          fill="#F0F0F0"/>
        <path
          d="M23.4332 8.34789L11.9999 7.82617L0.5665 8.34789C0.457563 8.68933 0.363766 9.03747 0.285156 9.39137H23.7144C23.6359 9.03742 23.5421 8.68923 23.4332 8.34789Z"
          fill="#D80027"/>
        <path
          d="M0.285156 14.6089C0.363672 14.9628 0.457469 15.3109 0.566406 15.6523L0.567531 15.6524L11.9997 16.1741L23.433 15.6524C23.542 15.3109 23.6358 14.9628 23.7143 14.6089H0.285156Z"
          fill="#D80027"/>
        <path
          d="M11.9997 24.0007C17.3536 24.0007 21.8878 20.4943 23.433 15.6528H0.566406C2.11164 20.4942 6.64595 24.0007 11.9997 24.0007Z"
          fill="#6DA544"/>
        <path
          d="M11.9997 -0.000976562C6.64595 -0.000929687 2.11173 3.50546 0.566406 8.34685L23.433 8.3469C21.8879 3.50541 17.3536 -0.00102344 11.9997 -0.000976562Z"
          fill="#338AF3"/>
        <path
          d="M5.48278 4.95618C5.48278 3.83226 6.27267 2.89335 7.3275 2.66301C7.1654 2.62757 6.99717 2.6084 6.82439 2.6084C5.52773 2.6084 4.47656 3.65952 4.47656 4.95623C4.47656 6.25293 5.52764 7.30406 6.82439 7.30406C6.99717 7.30406 7.16536 7.28484 7.3275 7.24945C6.27272 7.01901 5.48278 6.0801 5.48278 4.95618Z"
          fill="#F0F0F0"/>
        <path
          d="M8.71433 6.02246L8.87324 6.5116H9.38755L8.97149 6.81395L9.1304 7.30309L8.71433 7.00079L8.29817 7.30309L8.45713 6.81395L8.04102 6.5116H8.55533L8.71433 6.02246Z"
          fill="#F0F0F0"/>
        <path
          d="M10.3568 6.02246L10.5158 6.5116H11.0301L10.614 6.81395L10.7729 7.30309L10.3568 7.00079L9.9407 7.30309L10.0997 6.81395L9.68359 6.5116H10.1979L10.3568 6.02246Z"
          fill="#F0F0F0"/>
        <path
          d="M11.9975 6.02246L12.1564 6.5116H12.6708L12.2547 6.81395L12.4136 7.30309L11.9975 7.00079L11.5814 7.30309L11.7404 6.81395L11.3242 6.5116H11.8386L11.9975 6.02246Z"
          fill="#F0F0F0"/>
        <path
          d="M13.6401 6.02246L13.7991 6.5116H14.3133L13.8973 6.81395L14.0562 7.30309L13.6401 7.00079L13.224 7.30309L13.383 6.81395L12.9668 6.5116H13.4811L13.6401 6.02246Z"
          fill="#F0F0F0"/>
        <path
          d="M15.2806 6.02246L15.4396 6.5116H15.9539L15.5378 6.81395L15.6968 7.30309L15.2806 7.00079L14.8645 7.30309L15.0235 6.81395L14.6074 6.5116H15.1217L15.2806 6.02246Z"
          fill="#F0F0F0"/>
        <path
          d="M10.3568 4.31494L10.5158 4.80404H11.0301L10.614 5.10643L10.7729 5.59552L10.3568 5.29322L9.9407 5.59552L10.0997 5.10643L9.68359 4.80404H10.1979L10.3568 4.31494Z"
          fill="#F0F0F0"/>
        <path
          d="M11.9975 4.31494L12.1564 4.80404H12.6708L12.2547 5.10643L12.4136 5.59552L11.9975 5.29322L11.5814 5.59552L11.7404 5.10643L11.3242 4.80404H11.8386L11.9975 4.31494Z"
          fill="#F0F0F0"/>
        <path
          d="M13.6401 4.31494L13.7991 4.80404H14.3133L13.8973 5.10643L14.0562 5.59552L13.6401 5.29322L13.224 5.59552L13.383 5.10643L12.9668 4.80404H13.4811L13.6401 4.31494Z"
          fill="#F0F0F0"/>
        <path
          d="M15.2806 4.31494L15.4396 4.80404H15.9539L15.5378 5.10643L15.6968 5.59552L15.2806 5.29322L14.8645 5.59552L15.0235 5.10643L14.6074 4.80404H15.1217L15.2806 4.31494Z"
          fill="#F0F0F0"/>
        <path
          d="M11.9975 2.60791L12.1564 3.0971H12.6708L12.2547 3.39939L12.4136 3.88858L11.9975 3.58629L11.5814 3.88858L11.7404 3.39939L11.3242 3.0971H11.8386L11.9975 2.60791Z"
          fill="#F0F0F0"/>
        <path
          d="M13.6401 2.60791L13.7991 3.0971H14.3133L13.8973 3.39939L14.0562 3.88858L13.6401 3.58629L13.224 3.88858L13.383 3.39939L12.9668 3.0971H13.4811L13.6401 2.60791Z"
          fill="#F0F0F0"/>
        <path
          d="M15.2806 2.60791L15.4396 3.0971H15.9539L15.5378 3.39939L15.6968 3.88858L15.2806 3.58629L14.8645 3.88858L15.0235 3.39939L14.6074 3.0971H15.1217L15.2806 2.60791Z"
          fill="#F0F0F0"/>
      </g>
      <defs>
        <clipPath id="clip0_22_249815">
          <rect width="24" height="24" fill="white"/>
        </clipPath>
      </defs>
    </svg>

    <svg id="search" viewBox="0 0 24 24" fill="none" xmlns="http://www.w3.org/2000/svg">
      <path
        d="M11.5 21C16.7467 21 21 16.7467 21 11.5C21 6.25329 16.7467 2 11.5 2C6.25329 2 2 6.25329 2 11.5C2 16.7467 6.25329 21 11.5 21Z"
        stroke="currentColor" stroke-width="1.5" stroke-linecap="round" stroke-linejoin="round"/>
      <path d="M22 22L20 20" stroke="currentColor" stroke-width="1.5" stroke-linecap="round" stroke-linejoin="round"/>
    </svg>

    <svg id="grid" viewBox="0 0 24 24" fill="none" xmlns="http://www.w3.org/2000/svg">
      <path
        d="M10.5 19.9V4.1C10.5 2.6 9.86 2 8.27 2H4.23C2.64 2 2 2.6 2 4.1V19.9C2 21.4 2.64 22 4.23 22H8.27C9.86 22 10.5 21.4 10.5 19.9Z"
        stroke="currentColor" stroke-width="1.5" stroke-linecap="round" stroke-linejoin="round"/>
      <path
        d="M22 10.9V4.1C22 2.6 21.36 2 19.77 2H15.73C14.14 2 13.5 2.6 13.5 4.1V10.9C13.5 12.4 14.14 13 15.73 13H19.77C21.36 13 22 12.4 22 10.9Z"
        stroke="currentColor" stroke-width="1.5" stroke-linecap="round" stroke-linejoin="round"/>
      <path
        d="M22 19.9V18.1C22 16.6 21.36 16 19.77 16H15.73C14.14 16 13.5 16.6 13.5 18.1V19.9C13.5 21.4 14.14 22 15.73 22H19.77C21.36 22 22 21.4 22 19.9Z"
        stroke="currentColor" stroke-width="1.5" stroke-linecap="round" stroke-linejoin="round"/>
    </svg>

    <svg id="filter" viewBox="0 0 24 24" fill="none" xmlns="http://www.w3.org/2000/svg">
      <path d="M3 7H21" stroke="currentColor" stroke-width="1.5" stroke-linecap="round"/>
      <path d="M6 12H18" stroke="currentColor" stroke-width="1.5" stroke-linecap="round"/>
      <path d="M10 17H14" stroke="currentColor" stroke-width="1.5" stroke-linecap="round"/>
    </svg>

    <svg id="clock" viewBox="0 0 20 20" fill="none" xmlns="http://www.w3.org/2000/svg">
      <path fill-rule="evenodd" clip-rule="evenodd"
            d="M19.25 10.0005C19.25 15.1095 15.109 19.2505 10 19.2505C4.891 19.2505 0.75 15.1095 0.75 10.0005C0.75 4.89149 4.891 0.750488 10 0.750488C15.109 0.750488 19.25 4.89149 19.25 10.0005Z"
            stroke="currentColor" stroke-width="1.5" stroke-linecap="round" stroke-linejoin="round"/>
      <path d="M13.4316 12.9429L9.66162 10.6939V5.84692" stroke="currentColor" stroke-width="1.5" stroke-linecap="round"
            stroke-linejoin="round"/>
    </svg>

    <svg id="layout-card" viewBox="0 0 24 24" fill="none" xmlns="http://www.w3.org/2000/svg">
      <path
        d="M2.5 6.5C2.5 4.61438 2.5 3.67157 3.08579 3.08579C3.67157 2.5 4.61438 2.5 6.5 2.5C8.38562 2.5 9.32843 2.5 9.91421 3.08579C10.5 3.67157 10.5 4.61438 10.5 6.5C10.5 8.38562 10.5 9.32843 9.91421 9.91421C9.32843 10.5 8.38562 10.5 6.5 10.5C4.61438 10.5 3.67157 10.5 3.08579 9.91421C2.5 9.32843 2.5 8.38562 2.5 6.5Z"
        stroke="currentColor" stroke-width="1.5"/>
      <path
        d="M13.5 17.5C13.5 15.6144 13.5 14.6716 14.0858 14.0858C14.6716 13.5 15.6144 13.5 17.5 13.5C19.3856 13.5 20.3284 13.5 20.9142 14.0858C21.5 14.6716 21.5 15.6144 21.5 17.5C21.5 19.3856 21.5 20.3284 20.9142 20.9142C20.3284 21.5 19.3856 21.5 17.5 21.5C15.6144 21.5 14.6716 21.5 14.0858 20.9142C13.5 20.3284 13.5 19.3856 13.5 17.5Z"
        stroke="currentColor" stroke-width="1.5"/>
      <path
        d="M2.5 17.5C2.5 15.6144 2.5 14.6716 3.08579 14.0858C3.67157 13.5 4.61438 13.5 6.5 13.5C8.38562 13.5 9.32843 13.5 9.91421 14.0858C10.5 14.6716 10.5 15.6144 10.5 17.5C10.5 19.3856 10.5 20.3284 9.91421 20.9142C9.32843 21.5 8.38562 21.5 6.5 21.5C4.61438 21.5 3.67157 21.5 3.08579 20.9142C2.5 20.3284 2.5 19.3856 2.5 17.5Z"
        stroke="currentColor" stroke-width="1.5"/>
      <path
        d="M13.5 6.5C13.5 4.61438 13.5 3.67157 14.0858 3.08579C14.6716 2.5 15.6144 2.5 17.5 2.5C19.3856 2.5 20.3284 2.5 20.9142 3.08579C21.5 3.67157 21.5 4.61438 21.5 6.5C21.5 8.38562 21.5 9.32843 20.9142 9.91421C20.3284 10.5 19.3856 10.5 17.5 10.5C15.6144 10.5 14.6716 10.5 14.0858 9.91421C13.5 9.32843 13.5 8.38562 13.5 6.5Z"
        stroke="currentColor" stroke-width="1.5"/>
    </svg>

    <svg id="layout-list" viewBox="0 0 24 24" fill="none" xmlns="http://www.w3.org/2000/svg">
      <path
        d="M17.5 2.5C19.3856 2.5 20.3284 2.5 20.9142 3.08579C21.5 3.67157 21.5 4.61438 21.5 6.5C21.5 8.38562 21.5 9.32843 20.9142 9.91421C20.3284 10.5 19.3856 10.5 17.5 10.5L6.5 10.5C4.61438 10.5 3.67157 10.5 3.08579 9.91421C2.5 9.32843 2.5 8.38562 2.5 6.5C2.5 4.61438 2.5 3.67157 3.08579 3.08579C3.67157 2.5 4.61438 2.5 6.5 2.5L17.5 2.5Z"
        stroke="currentColor" stroke-width="1.5"/>
      <path
        d="M17.5 13.5C19.3856 13.5 20.3284 13.5 20.9142 14.0858C21.5 14.6716 21.5 15.6144 21.5 17.5C21.5 19.3856 21.5 20.3284 20.9142 20.9142C20.3284 21.5 19.3856 21.5 17.5 21.5L6.5 21.5C4.61438 21.5 3.67157 21.5 3.08579 20.9142C2.5 20.3284 2.5 19.3856 2.5 17.5C2.5 15.6144 2.5 14.6716 3.08579 14.0858C3.67157 13.5 4.61438 13.5 6.5 13.5L17.5 13.5Z"
        stroke="currentColor" stroke-width="1.5"/>
    </svg>

    <svg id="objective" viewBox="0 0 20 20" fill="none" xmlns="http://www.w3.org/2000/svg">
      <mask id="path-1-inside-1_535_2017" fill="white">
        <path fill-rule="evenodd" clip-rule="evenodd"
              d="M18.045 8.166C18.3197 9.37428 18.3189 10.6289 18.0425 11.8368C17.7662 13.0447 17.2214 14.1749 16.4486 15.1436C15.6759 16.1122 14.6949 16.8944 13.5786 17.4322C12.4622 17.9699 11.2391 18.2495 10 18.25C5.447 18.25 1.75 14.553 1.75 10C1.75054 8.76088 2.03006 7.53778 2.56782 6.42143C3.10559 5.30508 3.8878 4.32414 4.85643 3.55136C5.82506 2.77859 6.95526 2.23382 8.16317 1.95747C9.37108 1.68112 10.6257 1.68027 11.834 1.955C11.9301 1.9768 12.0295 1.97947 12.1266 1.96284C12.2237 1.94622 12.3165 1.91064 12.3999 1.85813C12.4832 1.80562 12.5554 1.7372 12.6123 1.6568C12.6692 1.57639 12.7097 1.48556 12.7315 1.3895C12.7533 1.29344 12.756 1.19402 12.7393 1.09693C12.7227 0.999839 12.6871 0.906972 12.6346 0.823631C12.5821 0.740291 12.5137 0.668109 12.4333 0.611208C12.3529 0.554307 12.2621 0.5138 12.166 0.492001C11.4553 0.33096 10.7288 0.24979 10 0.25C4.619 0.25 0.25 4.619 0.25 10C0.25 15.381 4.619 19.75 10 19.75C15.381 19.75 19.75 15.381 19.75 10C19.75 9.256 19.666 8.531 19.508 7.834C19.464 7.63999 19.3447 7.47142 19.1764 7.36537C19.0081 7.25932 18.8045 7.22447 18.6105 7.2685C18.4165 7.31253 18.2479 7.43182 18.1419 7.60013C18.0358 7.76845 18.001 7.97199 18.045 8.166Z"/>
      </mask>
      <path fill-rule="evenodd" clip-rule="evenodd"
            d="M18.045 8.166C18.3197 9.37428 18.3189 10.6289 18.0425 11.8368C17.7662 13.0447 17.2214 14.1749 16.4486 15.1436C15.6759 16.1122 14.6949 16.8944 13.5786 17.4322C12.4622 17.9699 11.2391 18.2495 10 18.25C5.447 18.25 1.75 14.553 1.75 10C1.75054 8.76088 2.03006 7.53778 2.56782 6.42143C3.10559 5.30508 3.8878 4.32414 4.85643 3.55136C5.82506 2.77859 6.95526 2.23382 8.16317 1.95747C9.37108 1.68112 10.6257 1.68027 11.834 1.955C11.9301 1.9768 12.0295 1.97947 12.1266 1.96284C12.2237 1.94622 12.3165 1.91064 12.3999 1.85813C12.4832 1.80562 12.5554 1.7372 12.6123 1.6568C12.6692 1.57639 12.7097 1.48556 12.7315 1.3895C12.7533 1.29344 12.756 1.19402 12.7393 1.09693C12.7227 0.999839 12.6871 0.906972 12.6346 0.823631C12.5821 0.740291 12.5137 0.668109 12.4333 0.611208C12.3529 0.554307 12.2621 0.5138 12.166 0.492001C11.4553 0.33096 10.7288 0.24979 10 0.25C4.619 0.25 0.25 4.619 0.25 10C0.25 15.381 4.619 19.75 10 19.75C15.381 19.75 19.75 15.381 19.75 10C19.75 9.256 19.666 8.531 19.508 7.834C19.464 7.63999 19.3447 7.47142 19.1764 7.36537C19.0081 7.25932 18.8045 7.22447 18.6105 7.2685C18.4165 7.31253 18.2479 7.43182 18.1419 7.60013C18.0358 7.76845 18.001 7.97199 18.045 8.166Z"
            fill="currentColor"/>
      <path
        d="M18.045 8.166L-2.75937 12.8872L-2.7574 12.8958L18.045 8.166ZM10 18.25V39.5833L10.0092 39.5833L10 18.25ZM1.75 10L-19.5833 9.99075V10H1.75ZM11.834 1.955L7.10417 22.7574L7.11284 22.7594L11.834 1.955ZM12.166 0.492001L16.8872 -20.3124L16.8802 -20.3139L12.166 0.492001ZM10 0.25V21.5833L10.0062 21.5833L10 0.25ZM19.508 7.834L40.3135 3.1177L40.3124 3.11284L19.508 7.834ZM-2.7574 12.8958C-3.19273 10.9812 -3.1914 8.99308 -2.75349 7.07901L38.8385 16.5947C39.8292 12.2648 39.8322 7.76739 38.8474 3.43617L-2.7574 12.8958ZM-2.75349 7.07901C-2.31558 5.16496 -1.45234 3.37405 -0.227792 1.83914L33.1251 28.448C35.8952 24.9758 37.8479 20.9245 38.8385 16.5947L-2.75349 7.07901ZM-0.227792 1.83914C0.996758 0.304227 2.55117 -0.935266 4.32013 -1.78741L22.837 36.6518C26.8387 34.7241 30.355 31.9202 33.1251 28.448L-0.227792 1.83914ZM4.32013 -1.78741C6.08909 -2.63955 8.02722 -3.08248 9.99075 -3.08333L10.0092 39.5833C14.451 39.5814 18.8354 38.5794 22.837 36.6518L4.32013 -1.78741ZM10 -3.08333C17.2291 -3.08333 23.0833 2.77093 23.0833 10H-19.5833C-19.5833 26.3351 -6.33507 39.5833 10 39.5833V-3.08333ZM23.0833 10.0092C23.0825 11.9728 22.6396 13.9109 21.7874 15.6799L-16.6518 -2.83701C-18.5794 1.16465 -19.5814 5.54898 -19.5833 9.99075L23.0833 10.0092ZM21.7874 15.6799C20.9353 17.4488 19.6958 19.0033 18.1609 20.2278L-8.448 -13.1251C-11.9202 -10.355 -14.7241 -6.83868 -16.6518 -2.83701L21.7874 15.6799ZM18.1609 20.2278C16.626 21.4523 14.8351 22.3156 12.921 22.7535L3.40535 -18.8385C-0.924545 -17.8479 -4.97584 -15.8951 -8.448 -13.1251L18.1609 20.2278ZM12.921 22.7535C11.0069 23.1914 9.01882 23.1927 7.10417 22.7574L16.5638 -18.8474C12.2326 -19.8322 7.73524 -19.8292 3.40535 -18.8385L12.921 22.7535ZM7.11284 22.7594C9.94095 23.4012 12.8678 23.4796 15.7263 22.9903L8.52686 -19.0646C11.1912 -19.5207 13.9192 -19.4476 16.5552 -18.8494L7.11284 22.7594ZM15.7263 22.9903C18.5847 22.5009 21.3188 21.4534 23.7724 19.9074L1.02732 -16.1911C3.31424 -17.6321 5.86259 -18.6085 8.52686 -19.0646L15.7263 22.9903ZM23.7724 19.9074C26.226 18.3614 28.3511 16.3473 30.0263 13.9801L-4.80173 -10.6665C-3.24033 -12.8729 -1.25962 -14.7502 1.02732 -16.1911L23.7724 19.9074ZM30.0263 13.9801C31.7015 11.6128 32.8941 8.93876 33.5359 6.11066L-8.07287 -3.33166C-7.47469 -5.96763 -6.36316 -8.46001 -4.80173 -10.6665L30.0263 13.9801ZM33.5359 6.11066C34.1776 3.28262 34.2561 0.355772 33.7668 -2.50278L-8.2881 4.69664C-8.74421 2.03227 -8.67104 -0.695742 -8.07287 -3.33166L33.5359 6.11066ZM33.7668 -2.50278C33.2774 -5.36128 32.2299 -8.09536 30.6839 -10.5489L-5.41464 12.1962C-6.85557 9.9093 -7.83199 7.36096 -8.2881 4.69664L33.7668 -2.50278ZM30.6839 -10.5489C29.1379 -13.0025 27.1238 -15.1276 24.7566 -16.8028L0.11003 18.0252C-2.09643 16.4638 -3.97371 14.4831 -5.41464 12.1962L30.6839 -10.5489ZM24.7566 -16.8028C22.3893 -18.478 19.7153 -19.6706 16.8872 -20.3124L7.44484 21.2964C4.80885 20.6982 2.31648 19.5867 0.11003 18.0252L24.7566 -16.8028ZM16.8802 -20.3139C14.6206 -20.8259 12.3108 -21.084 9.99384 -21.0833L10.0062 21.5833C9.14672 21.5836 8.28995 21.4879 7.45176 21.2979L16.8802 -20.3139ZM10 -21.0833C-7.16307 -21.0833 -21.0833 -7.16308 -21.0833 10H21.5833C21.5833 16.4011 16.4011 21.5833 10 21.5833V-21.0833ZM-21.0833 10C-21.0833 27.1631 -7.16307 41.0833 10 41.0833V-1.58333C16.4011 -1.58333 21.5833 3.59893 21.5833 10H-21.0833ZM10 41.0833C27.1631 41.0833 41.0833 27.1631 41.0833 10H-1.58333C-1.58333 3.59893 3.59893 -1.58333 10 -1.58333V41.0833ZM41.0833 10C41.0833 7.64547 40.817 5.339 40.3135 3.1177L-1.29747 12.5503C-1.48501 11.723 -1.58333 10.8665 -1.58333 10H41.0833ZM40.3124 3.11284C39.0162 -2.59882 35.5042 -7.56166 30.5489 -10.6839L7.80382 25.4146C3.18516 22.5045 -0.0882702 17.8788 -1.29637 12.5552L40.3124 3.11284ZM30.5489 -10.6839C25.5936 -13.8061 19.601 -14.832 13.8893 -13.5359L23.3317 28.0729C18.008 29.281 12.4225 28.3248 7.80382 25.4146L30.5489 -10.6839ZM13.8893 -13.5359C8.17768 -12.2397 3.21484 -8.7277 0.0925997 -3.77242L36.1911 18.9727C33.281 23.5913 28.6553 26.8648 23.3317 28.0729L13.8893 -13.5359ZM0.0925997 -3.77242C-3.02962 1.18282 -4.05553 7.17544 -2.75937 12.8872L38.8494 3.44484C40.0575 8.76855 39.1013 14.3541 36.1911 18.9727L0.0925997 -3.77242Z"
        fill="currentColor" mask="url(#path-1-inside-1_535_2017)"/>
      <path fill-rule="evenodd" clip-rule="evenodd"
            d="M14.25 10C14.25 12.346 12.346 14.25 10 14.25C7.654 14.25 5.75 12.346 5.75 10C5.75 7.654 7.654 5.75 10 5.75C10.1989 5.75 10.3897 5.67098 10.5303 5.53033C10.671 5.38968 10.75 5.19891 10.75 5C10.75 4.80109 10.671 4.61032 10.5303 4.46967C10.3897 4.32902 10.1989 4.25 10 4.25C6.826 4.25 4.25 6.826 4.25 10C4.25 13.174 6.826 15.75 10 15.75C13.174 15.75 15.75 13.174 15.75 10C15.75 9.80109 15.671 9.61032 15.5303 9.46967C15.3897 9.32902 15.1989 9.25 15 9.25C14.8011 9.25 14.6103 9.32902 14.4697 9.46967C14.329 9.61032 14.25 9.80109 14.25 10Z"
            fill="currentColor"/>
      <path fill-rule="evenodd" clip-rule="evenodd"
            d="M12.6859 6.25323L10.5879 8.35123C10.2137 8.21786 9.80519 8.21581 9.42961 8.34542C9.05404 8.47503 8.73375 8.72858 8.5214 9.06438C8.30905 9.40019 8.2173 9.79825 8.26122 10.1931C8.30513 10.588 8.48211 10.9562 8.76305 11.2371C9.04399 11.5181 9.41217 11.695 9.80705 11.739C10.2019 11.7829 10.6 11.6911 10.9358 11.4788C11.2716 11.2664 11.5251 10.9461 11.6548 10.5706C11.7844 10.195 11.7823 9.78649 11.6489 9.41223L13.7469 7.31423L15.8529 7.73523C16.0989 7.78523 16.3529 7.70823 16.5299 7.53023L19.5299 4.53023C19.6142 4.4463 19.6772 4.34352 19.7138 4.2304C19.7504 4.11728 19.7596 3.99707 19.7405 3.87972C19.7214 3.76236 19.6747 3.65122 19.6042 3.5555C19.5337 3.45977 19.4414 3.38221 19.3349 3.32923L17.5589 2.44123L16.6709 0.665233C16.618 0.558795 16.5404 0.466499 16.4447 0.395978C16.349 0.325456 16.2378 0.278737 16.1205 0.259682C16.0031 0.240627 15.8829 0.249784 15.7698 0.286397C15.6567 0.32301 15.5539 0.386025 15.4699 0.470233L12.4699 3.47023C12.3823 3.55725 12.3178 3.66468 12.282 3.78285C12.2462 3.90102 12.2403 4.02624 12.2649 4.14723L12.6859 6.25323ZM15.7949 2.26623L16.3289 3.33523C16.4019 3.48123 16.5189 3.59823 16.6649 3.67123L17.7339 4.20523L15.7529 6.18623L14.1369 5.86323L13.8139 4.24723L15.7949 2.26623Z"
            fill="currentColor"/>
    </svg>

    <svg id="growing-arrow" viewBox="0 0 22 13" fill="none" xmlns="http://www.w3.org/2000/svg">
      <path
        d="M21 1L13.6203 8.33467C12.6227 9.32625 12.1238 9.82205 11.5051 9.82198C10.8864 9.82191 10.3876 9.326 9.3902 8.33418L9.15086 8.09618C8.15254 7.10349 7.65338 6.60714 7.03422 6.60737C6.41506 6.60759 5.91626 7.1043 4.91867 8.09773L1 12M21 1V6.54583M21 1H15.4179"
        stroke="currentColor" stroke-width="1.5" stroke-linecap="round" stroke-linejoin="round"/>
    </svg>


    <svg id="prev-arrow" viewBox="0 0 6 10" fill="none" xmlns="http://www.w3.org/2000/svg">
      <path fill-rule="evenodd" clip-rule="evenodd"
            d="M5.47157 0.528758C5.73192 0.789108 5.73192 1.21122 5.47157 1.47157L1.94297 5.00016L5.47157 8.52876C5.73192 8.78911 5.73192 9.21122 5.47157 9.47157C5.21122 9.73192 4.78911 9.73192 4.52876 9.47157L0.528758 5.47157C0.268409 5.21122 0.268409 4.78911 0.528758 4.52876L4.52876 0.528758C4.78911 0.268409 5.21122 0.268409 5.47157 0.528758Z"
            fill="currentColor"/>
    </svg>

    <svg id="next-arrow" viewBox="0 0 6 10" fill="none" xmlns="http://www.w3.org/2000/svg">
      <path fill-rule="evenodd" clip-rule="evenodd"
            d="M0.528758 0.528758C0.789108 0.268409 1.21122 0.268409 1.47157 0.528758L5.47157 4.52876C5.73192 4.78911 5.73192 5.21122 5.47157 5.47157L1.47157 9.47157C1.21122 9.73192 0.789108 9.73192 0.528758 9.47157C0.268409 9.21122 0.268409 8.78911 0.528758 8.52876L4.05735 5.00016L0.528758 1.47157C0.268409 1.21122 0.268409 0.789108 0.528758 0.528758Z"
            fill="currentColor"/>
    </svg>

    <svg id="avatar" viewBox="0 0 24 24" fill="none" xmlns="http://www.w3.org/2000/svg">
      <circle cx="12" cy="6" r="4" stroke="currentColor" stroke-width="1.5"/>
      <path
        d="M20 17.5C20 19.9853 20 22 12 22C4 22 4 19.9853 4 17.5C4 15.0147 7.58172 13 12 13C16.4183 13 20 15.0147 20 17.5Z"
        stroke="currentColor" stroke-width="1.5"/>
    </svg>

    <svg id="progress" viewBox="0 0 18 18" fill="none" xmlns="http://www.w3.org/2000/svg">
      <path
        d="M9 17V14.6M9 3.4V1M17 9H14.6M3.4 9H1M14.6569 3.34315L12.9598 5.0402M5.0402 12.9598L3.34315 14.6569M3.34293 3.34332L5.03999 5.04038M12.9596 12.96L14.6566 14.657"
        stroke="currentColor" stroke-width="1.5" stroke-linecap="round"/>
    </svg>

    <svg id="star" viewBox="0 0 22 22" fill="none" xmlns="http://www.w3.org/2000/svg">
      <path
        d="M8.15316 4.40838C9.41981 2.13613 10.0531 1 11 1C11.9469 1 12.5802 2.13612 13.8468 4.40837L14.1745 4.99623C14.5345 5.64193 14.7144 5.96479 14.9951 6.17781C15.2757 6.39083 15.6251 6.4699 16.3241 6.62805L16.9605 6.77203C19.4201 7.32856 20.65 7.60682 20.9426 8.54773C21.2352 9.48864 20.3968 10.4691 18.7199 12.4299L18.2861 12.9372C17.8096 13.4944 17.5713 13.773 17.4641 14.1177C17.357 14.4624 17.393 14.8341 17.465 15.5776L17.5306 16.2544C17.7841 18.8706 17.9109 20.1787 17.1449 20.7602C16.3788 21.3417 15.2273 20.8115 12.9243 19.7512L12.3285 19.4768C11.6741 19.1755 11.3469 19.0248 11 19.0248C10.6531 19.0248 10.3259 19.1755 9.67149 19.4768L9.07567 19.7512C6.77268 20.8115 5.62118 21.3417 4.85515 20.7602C4.08912 20.1787 4.21588 18.8706 4.4694 16.2544L4.53498 15.5776C4.60703 14.8341 4.64305 14.4624 4.53586 14.1177C4.42868 13.773 4.19043 13.4944 3.71392 12.9372L3.2801 12.4299C1.60325 10.4691 0.764825 9.48864 1.05742 8.54773C1.35002 7.60682 2.57986 7.32856 5.03954 6.77203L5.67589 6.62805C6.37485 6.4699 6.72433 6.39083 7.00494 6.17781C7.28555 5.96479 7.46553 5.64194 7.82547 4.99623L8.15316 4.40838Z"
        stroke="currentColor" stroke-width="1.5"/>
    </svg>

    <svg id="three-dots" viewBox="0 0 18 4" fill="none" xmlns="http://www.w3.org/2000/svg">
      <path d="M2 3C2.55228 3 3 2.55228 3 2C3 1.44772 2.55228 1 2 1C1.44772 1 1 1.44772 1 2C1 2.55228 1.44772 3 2 3Z"
            stroke="currentColor" stroke-width="2" stroke-linecap="round" stroke-linejoin="round"/>
      <path d="M9 3C9.55228 3 10 2.55228 10 2C10 1.44772 9.55228 1 9 1C8.44772 1 8 1.44772 8 2C8 2.55228 8.44772 3 9 3Z"
            stroke="currentColor" stroke-width="2" stroke-linecap="round" stroke-linejoin="round"/>
      <path
        d="M16 3C16.5523 3 17 2.55228 17 2C17 1.44772 16.5523 1 16 1C15.4477 1 15 1.44772 15 2C15 2.55228 15.4477 3 16 3Z"
        stroke="currentColor" stroke-width="2" stroke-linecap="round" stroke-linejoin="round"/>
    </svg>

    <svg id="plus" viewBox="0 0 12 12" fill="none" xmlns="http://www.w3.org/2000/svg">
      <path d="M6.00065 1.33325V10.6666M1.33398 5.99992H10.6673" stroke="currentColor" stroke-width="1.5"
            stroke-linecap="round" stroke-linejoin="round"/>
    </svg>

    <svg id="outline-plus" xmlns="http://www.w3.org/2000/svg" fill="none" viewBox="0 0 24 24" stroke-width="1.5" stroke="currentColor" aria-hidden="true" preserveAspectRatio="xMidYMid meet" focusable="false">
      <path stroke-linecap="round" stroke-linejoin="round" d="M12 9v6m3-3H9m12 0a9 9 0 11-18 0 9 9 0 0118 0z"></path>
    </svg>

    <svg id="outlined-avatar" viewBox="0 0 32 32" fill="none" xmlns="http://www.w3.org/2000/svg">
      <circle cx="16" cy="16" r="15.5" fill="white" stroke="currentColor" stroke-dasharray="4 4"/>
      <path
        d="M15.9993 15.1667C17.8403 15.1667 19.3327 13.6743 19.3327 11.8333C19.3327 9.99238 17.8403 8.5 15.9993 8.5C14.1584 8.5 12.666 9.99238 12.666 11.8333C12.666 13.6743 14.1584 15.1667 15.9993 15.1667Z"
        stroke="currentColor" stroke-width="1.5" stroke-linecap="round" stroke-linejoin="round"/>
      <path
        d="M11 23.5V21.8333C11 20.9493 11.3512 20.1014 11.9763 19.4763C12.6014 18.8512 13.4493 18.5 14.3333 18.5H17.6667C18.5507 18.5 19.3986 18.8512 20.0237 19.4763C20.6488 20.1014 21 20.9493 21 21.8333V23.5"
        stroke="currentColor" stroke-width="1.5" stroke-linecap="round" stroke-linejoin="round"/>
    </svg>

    <svg id="calendar" viewBox="0 0 20 20" fill="none" xmlns="http://www.w3.org/2000/svg">
      <path
        d="M1.66602 9.99992C1.66602 6.85722 1.66602 5.28587 2.64233 4.30956C3.61864 3.33325 5.18999 3.33325 8.33268 3.33325H11.666C14.8087 3.33325 16.3801 3.33325 17.3564 4.30956C18.3327 5.28587 18.3327 6.85722 18.3327 9.99992V11.6666C18.3327 14.8093 18.3327 16.3806 17.3564 17.3569C16.3801 18.3333 14.8087 18.3333 11.666 18.3333H8.33268C5.18999 18.3333 3.61864 18.3333 2.64233 17.3569C1.66602 16.3806 1.66602 14.8093 1.66602 11.6666V9.99992Z"
        stroke="currentColor" stroke-width="1.5"/>
      <path d="M5.83398 3.33325V2.08325" stroke="currentColor" stroke-width="1.5" stroke-linecap="round"/>
      <path d="M14.166 3.33325V2.08325" stroke="currentColor" stroke-width="1.5" stroke-linecap="round"/>
      <circle cx="13.75" cy="13.75" r="1.25" stroke="currentColor" stroke-width="1.5"/>
      <path d="M2.08398 7.5H17.9173" stroke="currentColor" stroke-width="1.5" stroke-linecap="round"/>
    </svg>

    <svg id="sort" viewBox="0 0 19 14" fill="none" xmlns="http://www.w3.org/2000/svg">
      <path d="M1 13H8" stroke="currentColor" stroke-width="1.5" stroke-linecap="round" stroke-linejoin="round"/>
      <path d="M1 7H8" stroke="currentColor" stroke-width="1.5" stroke-linecap="round" stroke-linejoin="round"/>
      <path d="M1 1H10" stroke="currentColor" stroke-width="1.5" stroke-linecap="round" stroke-linejoin="round"/>
      <path d="M12 10L15 13L18 10" stroke="currentColor" stroke-width="1.5" stroke-linecap="round"
            stroke-linejoin="round"/>
      <path d="M15 13V1" stroke="currentColor" stroke-width="1.5" stroke-linecap="round" stroke-linejoin="round"/>
    </svg>

    <svg id="trash" viewBox="0 0 16 16" fill="none" xmlns="http://www.w3.org/2000/svg">
      <path d="M13.6674 4H2.33398" stroke="currentColor" stroke-width="1.5" stroke-linecap="round"/>
      <path
        d="M12.5564 5.66675L12.2498 10.2662C12.1318 12.0361 12.0728 12.9211 11.4961 13.4606C10.9195 14.0001 10.0325 14.0001 8.25866 14.0001H7.74308C5.96921 14.0001 5.08228 14.0001 4.50561 13.4606C3.92893 12.9211 3.86994 12.0361 3.75194 10.2662L3.44531 5.66675"
        stroke="currentColor" stroke-width="1.5" stroke-linecap="round"/>
      <path d="M6.33398 7.33325L6.66732 10.6666" stroke="currentColor" stroke-width="1.5" stroke-linecap="round"/>
      <path d="M9.66732 7.33325L9.33398 10.6666" stroke="currentColor" stroke-width="1.5" stroke-linecap="round"/>
      <path
        d="M4.33398 4C4.37124 4 4.38986 4 4.40675 3.99957C4.95571 3.98566 5.44 3.63661 5.6268 3.12021C5.63254 3.10433 5.63843 3.08666 5.65021 3.05132L5.71494 2.85714C5.77019 2.69139 5.79782 2.6085 5.83446 2.53813C5.98066 2.25738 6.25115 2.06242 6.56372 2.01251C6.64207 2 6.72943 2 6.90416 2H9.09714C9.27187 2 9.35923 2 9.43758 2.01251C9.75016 2.06242 10.0206 2.25738 10.1668 2.53813C10.2035 2.6085 10.2311 2.69138 10.2864 2.85714L10.3511 3.05132C10.3629 3.08661 10.3688 3.10434 10.3745 3.12021C10.5613 3.63661 11.0456 3.98566 11.5946 3.99957C11.6114 4 11.6301 4 11.6673 4"
        stroke="currentColor" stroke-width="1.5"/>
    </svg>

    <svg id="x" viewBox="0 0 14 14" fill="none" xmlns="http://www.w3.org/2000/svg">
      <path
        d="M13.3007 0.709971C12.9107 0.319971 12.2807 0.319971 11.8907 0.709971L7.0007 5.58997L2.1107 0.699971C1.7207 0.309971 1.0907 0.309971 0.700703 0.699971C0.310703 1.08997 0.310703 1.71997 0.700703 2.10997L5.5907 6.99997L0.700703 11.89C0.310703 12.28 0.310703 12.91 0.700703 13.3C1.0907 13.69 1.7207 13.69 2.1107 13.3L7.0007 8.40997L11.8907 13.3C12.2807 13.69 12.9107 13.69 13.3007 13.3C13.6907 12.91 13.6907 12.28 13.3007 11.89L8.4107 6.99997L13.3007 2.10997C13.6807 1.72997 13.6807 1.08997 13.3007 0.709971Z"
        fill="currentColor"/>
    </svg>

    <svg id="paper-clip" viewBox="0 0 22 23" fill="none" xmlns="http://www.w3.org/2000/svg">
      <path
        d="M20.4398 11.0499L11.2498 20.2399C10.124 21.3658 8.59699 21.9983 7.0048 21.9983C5.41262 21.9983 3.88565 21.3658 2.7598 20.2399C1.63396 19.1141 1.00146 17.5871 1.00146 15.9949C1.00146 14.4027 1.63396 12.8758 2.7598 11.7499L11.9498 2.55992C12.7004 1.80936 13.7183 1.3877 14.7798 1.3877C15.8413 1.3877 16.8592 1.80936 17.6098 2.55992C18.3604 3.31048 18.782 4.32846 18.782 5.38992C18.782 6.45138 18.3604 7.46936 17.6098 8.21992L8.4098 17.4099C8.03452 17.7852 7.52553 17.996 6.9948 17.996C6.46407 17.996 5.95508 17.7852 5.5798 17.4099C5.20452 17.0346 4.99369 16.5256 4.99369 15.9949C4.99369 15.4642 5.20452 14.9552 5.5798 14.5799L14.0698 6.09992"
        stroke="currentColor" stroke-width="2" stroke-linecap="round" stroke-linejoin="round"/>
    </svg>


    <svg id="paper-plane" viewBox="0 0 22 22" fill="none" xmlns="http://www.w3.org/2000/svg">
      <path d="M21 1L10 12M21 1L14 21L10 12M21 1L1 8L10 12" stroke="currentColor" stroke-width="2"
            stroke-linecap="round" stroke-linejoin="round"/>
    </svg>

    <svg id="file" xmlns="http://www.w3.org/2000/svg" fill="none" viewBox="0 0 80 81">
      <path fill="#F5F2FF"
            d="M16 60.5v-40c0-5.52 4.43-10 9.89-10h16.69c2.62 0 5.14 1.05 7 2.93L61.1 25.07c1.86 1.88 2.9 4.42 2.9 7.07V60.5c0 5.52-4.43 10-9.89 10H25.89c-5.46 0-9.89-4.48-9.89-10Z"/>
      <path fill="#9E77ED" fill-rule="evenodd"
            d="M62.703 27.192A10.068 10.068 0 0 1 64 32.14V60.5c0 5.52-4.43 10-9.89 10H25.89c-5.46 0-9.89-4.48-9.89-10v-40c0-5.52 4.43-10 9.89-10h16.69a9.836 9.836 0 0 1 7 2.93L61.1 25.07l.014.015a9.866 9.866 0 0 1 1.589 2.107Zm-.724 6.796c-.006-1.535-1.189-2.698-2.724-2.698H53.21c-5.52 0-10-4.48-10-10v-5.998c0-1.563-1.201-2.777-2.764-2.78a5451.88 5451.88 0 0 0-7.866-.012h-6.69c-4.335 0-7.89 3.564-7.89 8v40c0 4.436 3.555 8 7.89 8h28.22c4.334 0 7.89-3.564 7.89-8V42.14c0-.194-.007-5-.02-8.152Z"
            clip-rule="evenodd"/>
      <path fill="#9E77ED" fill-rule="evenodd"
            d="M42.25 40.5a3.75 3.75 0 0 0-3.75 3.75v6.25a1.5 1.5 0 0 0 3 0v-6a1 1 0 1 1 2 0v6a3.5 3.5 0 1 1-7 0v-6.25a5.75 5.75 0 0 1 11.5 0v6.25a8 8 0 1 1-16 0v-6a1 1 0 1 1 2 0v6a6 6 0 0 0 12 0v-6.25a3.75 3.75 0 0 0-3.75-3.75Z"
            clip-rule="evenodd"/>
    </svg>

    <svg id="download" viewBox="0 0 16 16" fill="none" xmlns="http://www.w3.org/2000/svg">
      <path
        d="M7.00022 1V12.17L2.12021 7.29C1.73021 6.9 1.09021 6.9 0.700215 7.29C0.310215 7.68 0.310215 8.31 0.700215 8.7L7.29022 15.29C7.68021 15.68 8.31021 15.68 8.70021 15.29L15.2902 8.7C15.6802 8.31 15.6802 7.68 15.2902 7.29C14.9002 6.9 14.2702 6.9 13.8802 7.29L9.00021 12.17V1C9.00021 0.45 8.55021 0 8.00022 0C7.45021 0 7.00022 0.45 7.00022 1Z"
        fill="currentColor"/>
    </svg>

    <svg id="toaster-error" viewBox="0 0 32 32" fill="none" xmlns="http://www.w3.org/2000/svg">
      <rect width="32" height="32" rx="16" fill="#F04248" fill-opacity="0.1"/>
      <mask id="mask0_435_3427" style="mask-type:alpha" maskUnits="userSpaceOnUse" x="4" y="4" width="24"
            height="24">
        <rect x="4" y="4" width="24" height="24" fill="#D9D9D9"/>
      </mask>
      <g mask="url(#mask0_435_3427)">
        <path
          d="M12.4 21L16 17.4L19.6 21L21 19.6L17.4 16L21 12.4L19.6 11L16 14.6L12.4 11L11 12.4L14.6 16L11 19.6L12.4 21ZM16 26C14.6167 26 13.3167 25.7373 12.1 25.212C10.8833 24.6873 9.825 23.975 8.925 23.075C8.025 22.175 7.31267 21.1167 6.788 19.9C6.26267 18.6833 6 17.3833 6 16C6 14.6167 6.26267 13.3167 6.788 12.1C7.31267 10.8833 8.025 9.825 8.925 8.925C9.825 8.025 10.8833 7.31233 12.1 6.787C13.3167 6.26233 14.6167 6 16 6C17.3833 6 18.6833 6.26233 19.9 6.787C21.1167 7.31233 22.175 8.025 23.075 8.925C23.975 9.825 24.6873 10.8833 25.212 12.1C25.7373 13.3167 26 14.6167 26 16C26 17.3833 25.7373 18.6833 25.212 19.9C24.6873 21.1167 23.975 22.175 23.075 23.075C22.175 23.975 21.1167 24.6873 19.9 25.212C18.6833 25.7373 17.3833 26 16 26Z"
          fill="#F04248"/>
      </g>
    </svg>

    <svg id="toaster-success" viewBox="0 0 32 32" fill="none" xmlns="http://www.w3.org/2000/svg">
      <rect width="32" height="32" rx="16" fill="#06BB54" fill-opacity="0.1"/>
      <mask id="mask0_2356_12585" style="mask-type:alpha" maskUnits="userSpaceOnUse" x="4" y="4" width="24"
            height="24">
        <rect x="4" y="4" width="24" height="24" fill="#D9D9D9"/>
      </mask>
      <g mask="url(#mask0_2356_12585)">
        <path
          d="M14.6 20.6L21.65 13.55L20.25 12.15L14.6 17.8L11.75 14.95L10.35 16.35L14.6 20.6ZM16 26C14.6167 26 13.3167 25.7373 12.1 25.212C10.8833 24.6873 9.825 23.975 8.925 23.075C8.025 22.175 7.31267 21.1167 6.788 19.9C6.26267 18.6833 6 17.3833 6 16C6 14.6167 6.26267 13.3167 6.788 12.1C7.31267 10.8833 8.025 9.825 8.925 8.925C9.825 8.025 10.8833 7.31233 12.1 6.787C13.3167 6.26233 14.6167 6 16 6C17.3833 6 18.6833 6.26233 19.9 6.787C21.1167 7.31233 22.175 8.025 23.075 8.925C23.975 9.825 24.6873 10.8833 25.212 12.1C25.7373 13.3167 26 14.6167 26 16C26 17.3833 25.7373 18.6833 25.212 19.9C24.6873 21.1167 23.975 22.175 23.075 23.075C22.175 23.975 21.1167 24.6873 19.9 25.212C18.6833 25.7373 17.3833 26 16 26Z"
          fill="#06BB54"/>
      </g>
    </svg>

    <svg id="toaster-warning" viewBox="0 0 32 32" fill="none" xmlns="http://www.w3.org/2000/svg">
      <rect width="32" height="32" rx="16" fill="#FFC900" fill-opacity="0.1"/>
      <g clip-path="url(#clip0_2356_12670)">
        <path
          d="M16 6C10.48 6 6 10.48 6 16C6 21.52 10.48 26 16 26C21.52 26 26 21.52 26 16C26 10.48 21.52 6 16 6ZM17 21H15V19H17V21ZM17 17H15V11H17V17Z"
          fill="#FFC900"/>
      </g>
      <defs>
        <clipPath id="clip0_2356_12670">
          <rect width="24" height="24" fill="white" transform="translate(4 4)"/>
        </clipPath>
      </defs>
    </svg>

    <svg id="toaster-info" width="32" height="32" viewBox="0 0 32 32" fill="none"
         xmlns="http://www.w3.org/2000/svg">
      <rect width="32" height="32" rx="16" fill="#0CA4FA" fill-opacity="0.1"/>
      <path
        d="M16 26C21.52 26 26 21.52 26 16C26 10.48 21.52 6 16 6C10.48 6 6 10.48 6 16C6 21.52 10.48 26 16 26ZM15 11L17 11L17 13L15 13L15 11ZM15 15L17 15L17 21L15 21L15 15Z"
        fill="#0CA4FA"/>
    </svg>

    <svg id="check" viewBox="0 0 13 9" fill="none" xmlns="http://www.w3.org/2000/svg">
      <path d="M11.5 1.25L4.625 8.125L1.5 5" stroke="currentColor" stroke-width="1.5" stroke-linecap="round"
            stroke-linejoin="round"/>
    </svg>


    <svg id="pie" viewBox="0 0 22 22" fill="none" xmlns="http://www.w3.org/2000/svg">
      <path fill-rule="evenodd" clip-rule="evenodd"
            d="M16.2059 0.856188C15.1431 0.437504 14.116 0.720932 13.389 1.36753C12.6798 1.99824 12.25 2.96989 12.25 4.00003V8.00003C12.25 8.96653 13.0335 9.75003 14 9.75003H18C19.0301 9.75003 20.0018 9.32019 20.6325 8.61103C21.2791 7.884 21.5625 6.85691 21.1438 5.79412C20.2558 3.53992 18.4601 1.74423 16.2059 0.856188ZM13.75 8.00003V4.00003C13.75 3.37331 14.0149 2.8183 14.3858 2.48838C14.7389 2.17435 15.1774 2.06319 15.6561 2.2518C17.5233 2.98737 19.0127 4.47673 19.7482 6.34392C19.9368 6.82268 19.8257 7.26109 19.5117 7.61418C19.1817 7.98514 18.6267 8.25003 18 8.25003H14C13.8619 8.25003 13.75 8.1381 13.75 8.00003Z"
            fill="currentColor"/>
      <path fill-rule="evenodd" clip-rule="evenodd"
            d="M9.99525 1.86997C9.38475 1.47444 8.79417 1.36057 8.1457 1.47365C7.59499 1.56967 7.00554 1.83384 6.37816 2.11499L6.31056 2.14528C5.78871 2.37898 5.28506 2.65696 4.80541 2.97745C3.11981 4.10374 1.80604 5.70457 1.03024 7.57751C0.254441 9.45045 0.051457 11.5114 0.446956 13.4997C0.842454 15.488 1.81867 17.3144 3.25216 18.7479C4.68565 20.1813 6.51202 21.1576 8.50033 21.5531C10.4886 21.9486 12.5496 21.7456 14.4225 20.9698C16.2955 20.194 17.8963 18.8802 19.0226 17.1946C19.3431 16.715 19.621 16.2113 19.8547 15.6895L19.885 15.6218C20.1662 14.9945 20.4303 14.405 20.5264 13.8543C20.6394 13.2059 20.5256 12.6153 20.1301 12.0048C19.7036 11.3466 19.1199 11.025 18.406 10.8792C17.7721 10.7498 16.98 10.7499 16.0722 10.75L14.5 10.75C13.536 10.75 12.8884 10.7484 12.4054 10.6835C11.9439 10.6214 11.7464 10.5142 11.6161 10.3839C11.4858 10.2536 11.3786 10.0561 11.3165 9.59462C11.2516 9.11159 11.25 8.46403 11.25 7.50002L11.25 5.92784C11.2501 5.02003 11.2502 4.22795 11.1208 3.59406C10.9751 2.88016 10.6534 2.29637 9.99525 1.86997ZM6.92364 3.51427C7.64284 3.19218 8.05972 3.01127 8.40336 2.95135C8.66896 2.90504 8.87762 2.93318 9.17966 3.12886C9.43404 3.29366 9.56868 3.49038 9.65109 3.89407C9.74641 4.36104 9.75 4.99846 9.75 6.00002L9.75 7.55201C9.74997 8.45048 9.74995 9.19972 9.82992 9.7945C9.91432 10.4223 10.1 10.9891 10.5555 11.4446C11.0109 11.9 11.5777 12.0857 12.2055 12.1701C12.8003 12.2501 13.5495 12.25 14.448 12.25L16 12.25C17.0016 12.25 17.639 12.2536 18.1059 12.3489C18.5096 12.4313 18.7064 12.566 18.8712 12.8204C19.0668 13.1224 19.095 13.3311 19.0487 13.5967C18.9887 13.9403 18.8078 14.3572 18.4858 15.0764C18.2863 15.5218 18.049 15.9518 17.7754 16.3613C16.8139 17.8002 15.4473 18.9217 13.8485 19.584C12.2496 20.2462 10.4903 20.4195 8.79296 20.0819C7.09563 19.7443 5.53653 18.9109 4.31282 17.6872C3.08911 16.4635 2.25575 14.9044 1.91813 13.2071C1.58051 11.5097 1.75379 9.75039 2.41606 8.15154C3.07833 6.55268 4.19983 5.18612 5.63876 4.22466C6.04824 3.95106 6.47817 3.71376 6.92364 3.51427Z"
            fill="currentColor"/>
    </svg>

    <svg id="double-check" viewBox="0 0 24 13" fill="none" xmlns="http://www.w3.org/2000/svg">
      <path
        d="M17.2996 0.300041C16.9096 -0.0899587 16.2796 -0.0899587 15.8896 0.300041L10.2496 5.94004L11.6596 7.35004L17.2996 1.70004C17.6796 1.32004 17.6796 0.680041 17.2996 0.300041ZM21.5396 0.290041L11.6596 10.17L8.17965 6.70004C7.78965 6.31004 7.15965 6.31004 6.76965 6.70004C6.37965 7.09004 6.37965 7.72004 6.76965 8.11004L10.9496 12.29C11.3396 12.68 11.9696 12.68 12.3596 12.29L22.9496 1.71004C23.3396 1.32004 23.3396 0.690041 22.9496 0.300041H22.9396C22.5597 -0.0999587 21.9296 -0.0999589 21.5396 0.290041ZM1.11965 8.12004L5.29965 12.3C5.68965 12.69 6.31965 12.69 6.70965 12.3L7.40965 11.6L2.52965 6.70004C2.13965 6.31004 1.50965 6.31004 1.11965 6.70004C0.729648 7.09004 0.729648 7.73004 1.11965 8.12004Z"
        fill="currentColor"/>
    </svg>

    <svg id="one-id" viewBox="0 0 21 20" fill="none" xmlns="http://www.w3.org/2000/svg">
      <g clip-path="url(#clip0_1482_4049)">
        <path
          d="M12.3423 12.8017C12.5738 12.795 12.837 12.7648 13.1056 12.6969C13.1374 12.689 13.1701 12.6804 13.2037 12.6711C13.411 12.6136 13.6351 12.5291 13.8659 12.3876C13.9221 12.3539 13.9773 12.3178 14.0313 12.2791L14.0293 12.2782C14.1935 12.1588 14.3598 12.0076 14.5249 11.8145C14.5926 11.7352 14.7088 11.5677 14.7749 11.4377C14.6223 11.276 14.3902 11.1429 14.1725 11.026L14.1492 11.0134C14.0484 10.9591 13.8659 10.8607 13.6955 10.794C13.6774 10.787 13.6585 10.78 13.6392 10.7729C13.492 10.7186 13.3201 10.6552 13.3027 10.4804C13.2894 10.3456 13.3577 10.2613 13.4391 10.1609C13.4587 10.1368 13.479 10.1118 13.4991 10.0849C13.7367 9.76753 13.9603 9.33466 13.9199 8.74855C13.8803 8.17325 13.5122 7.72655 12.8959 7.65757C12.8246 7.64961 12.7551 7.64615 12.6876 7.64714C12.6201 7.64615 12.5506 7.64961 12.4793 7.65757C11.8631 7.72655 11.495 8.17325 11.4553 8.74855C11.4149 9.33466 11.6385 9.76753 11.8761 10.0849C11.8962 10.1118 11.9166 10.1368 11.9361 10.1609C12.0176 10.2613 12.0859 10.3456 12.0725 10.4804C12.0551 10.6552 11.8832 10.7186 11.7361 10.7729C11.7168 10.78 11.6978 10.787 11.6797 10.794C11.5093 10.8607 11.3268 10.9591 11.226 11.0134L11.2028 11.026C10.8797 11.1996 10.525 11.4084 10.4453 11.6941C10.3479 12.0436 10.2953 12.4823 10.305 12.8017H10.8566C11.0104 12.8017 11.1687 12.8033 11.3299 12.8049C11.661 12.8081 12.0039 12.8115 12.3423 12.8017Z"
          fill="currentColor"/>
        <path fill-rule="evenodd" clip-rule="evenodd"
              d="M20.4996 10.7843L20.4991 11.1091L20.498 11.3584L20.4967 11.5684L20.4948 11.7534L20.4926 11.9206L20.49 12.0742L20.487 12.2172L20.4836 12.3514L20.4798 12.4782L20.4756 12.5987L20.4709 12.7137L20.4659 12.8239L20.4605 12.9299L20.4547 13.032L20.4484 13.1306L20.4418 13.2261L20.4347 13.3186L20.4273 13.4085L20.4195 13.4959L20.4112 13.581L20.4025 13.6639L20.3934 13.7449L20.384 13.8239L20.3741 13.9012L20.3638 13.9767L20.3531 14.0507L20.342 14.1231L20.3305 14.1941L20.3186 14.2637L20.3062 14.3319L20.2935 14.399L20.2803 14.4647L20.2667 14.5293L20.2527 14.5928L20.2383 14.6551L20.2235 14.7164L20.2082 14.7768L20.1925 14.8361L20.1765 14.8944L20.16 14.9518L20.1431 15.0083L20.1257 15.064L20.108 15.1188L20.0898 15.1727L20.0712 15.2259L20.0521 15.2782L20.0327 15.3298L20.0127 15.3806L19.9924 15.4306L19.9717 15.48L19.9505 15.5286L19.9289 15.5766L19.9068 15.6238L19.8843 15.6704L19.8613 15.7163L19.838 15.7615L19.8141 15.8062L19.7898 15.8502L19.7651 15.8936L19.74 15.9363L19.7143 15.9785L19.6882 16.0201L19.6617 16.0611L19.6347 16.1015L19.6073 16.1413L19.5793 16.1806L19.5509 16.2193L19.5221 16.2575L19.4927 16.2952L19.4629 16.3323L19.4327 16.3688L19.4019 16.4049L19.3706 16.4404L19.3389 16.4754L19.3067 16.5099L19.2739 16.5439L19.2407 16.5774L19.207 16.6104L19.1727 16.6429L19.138 16.6749L19.1027 16.7064L19.0669 16.7375L19.0306 16.7681L18.9937 16.7982L18.9564 16.8278L18.9184 16.857L18.8799 16.8857L18.8409 16.9139L18.8013 16.9417L18.7611 16.969L18.7204 16.9958L18.6791 17.0222L18.6371 17.0482L18.5946 17.0737L18.5515 17.0988L18.5078 17.1234L18.4635 17.1476L18.4184 17.1713L18.3728 17.1947L18.3265 17.2175L18.2796 17.24L18.232 17.262L18.1837 17.2836L18.1347 17.3048L18.0849 17.3255L18.0345 17.3458L17.9833 17.3657L17.9314 17.3852L17.8786 17.4042L17.8251 17.4229L17.7708 17.4411L17.7156 17.4589L17.6596 17.4763L17.6027 17.4933L17.5449 17.5098L17.4863 17.526L17.4266 17.5417L17.366 17.557L17.3044 17.572L17.2416 17.5865L17.1779 17.6006L17.1131 17.6143L17.047 17.6276L16.9798 17.6405L16.9113 17.653L16.8416 17.6651L16.7704 17.6768L16.6979 17.6881L16.6239 17.6989L16.5483 17.7094L16.4711 17.7195L16.3922 17.7292L16.3114 17.7385L16.2287 17.7474L16.144 17.7559L16.0571 17.764L15.9678 17.7717L15.876 17.779L15.7815 17.7859L15.684 17.7924L15.5833 17.7985L15.4791 17.8042L15.371 17.8096L15.2585 17.8145L15.1412 17.8191L15.0184 17.8232L14.8891 17.827L14.7524 17.8304L14.6069 17.8333L14.4506 17.8359L14.2807 17.8381L14.093 17.8399L13.8804 17.8413L13.6294 17.8423L13.3058 17.8429L7.75784 17.843L7.41553 17.8424L7.1562 17.8415L6.93867 17.8401L6.74761 17.8384L6.57522 17.8363L6.41694 17.8338L6.26984 17.8308L6.13184 17.8275L6.00149 17.8239L5.87769 17.8198L5.75953 17.8153L5.64631 17.8104L5.53757 17.8051L5.43274 17.7995L5.33153 17.7934L5.23357 17.787L5.13859 17.7801L5.04639 17.7729L4.95671 17.7652L4.86941 17.7572L4.78435 17.7488L4.70133 17.7399L4.62027 17.7307L4.54106 17.7211L4.46361 17.711L4.38776 17.7006L4.3135 17.6898L4.24074 17.6786L4.1694 17.667L4.09942 17.6549L4.03075 17.6425L3.96333 17.6297L3.89711 17.6164L3.83207 17.6028L3.76814 17.5888L3.70529 17.5743L3.64349 17.5594L3.5827 17.5442L3.5229 17.5285L3.46405 17.5124L3.40612 17.4959L3.3491 17.479L3.29295 17.4617L3.23766 17.4439L3.1832 17.4258L3.12956 17.4072L3.07671 17.3882L3.02464 17.3688L2.97333 17.349L2.92276 17.3288L2.87293 17.3081L2.82381 17.287L2.77539 17.2655L2.72766 17.2435L2.68061 17.2211L2.63423 17.1983L2.5885 17.1751L2.54341 17.1514L2.49896 17.1273L2.45513 17.1027L2.41192 17.0777L2.36931 17.0523L2.3273 17.0264L2.28589 17.0001L2.24505 16.9733L2.2048 16.946L2.16511 16.9183L2.12598 16.8902L2.08741 16.8615L2.04939 16.8325L2.01191 16.8029L1.97497 16.7729L1.93857 16.7424L1.90269 16.7114L1.86734 16.68L1.8325 16.6481L1.79818 16.6156L1.76436 16.5827L1.73105 16.5493L1.69824 16.5154L1.66593 16.481L1.63411 16.446L1.60278 16.4106L1.57193 16.3746L1.54157 16.3381L1.51169 16.3011L1.48228 16.2636L1.45335 16.2255L1.42488 16.1868L1.39689 16.1476L1.36935 16.1079L1.34228 16.0675L1.31567 16.0266L1.28952 15.9851L1.26382 15.9431L1.23858 15.9004L1.21378 15.8571L1.18944 15.8132L1.16553 15.7687L1.14207 15.7235L1.11906 15.6777L1.09649 15.6313L1.07435 15.5841L1.05265 15.5363L1.0314 15.4878L1.01056 15.4386L0.990169 15.3886L0.970204 15.3379L0.950671 15.2865L0.931561 15.2342L0.912882 15.1812L0.894624 15.1274L0.876796 15.0728L0.859389 15.0173L0.842401 14.9609L0.825838 14.9036L0.809694 14.8454L0.793968 14.7862L0.778658 14.7261L0.763767 14.665L0.749293 14.6028L0.735231 14.5395L0.721587 14.4751L0.708354 14.4095L0.695534 14.3427L0.683126 14.2746L0.671129 14.2053L0.659544 14.1345L0.648369 14.0623L0.637601 13.9886L0.627244 13.9133L0.617292 13.8363L0.607751 13.7576L0.598614 13.677L0.589886 13.5943L0.581563 13.5096L0.573646 13.4226L0.566133 13.3331L0.559025 13.241L0.552323 13.146L0.546025 13.0479L0.540127 12.9464L0.534637 12.8411L0.529548 12.7315L0.524863 12.6173L0.520581 12.4977L0.516701 12.372L0.513224 12.2391L0.510146 12.0977L0.507474 11.9459L0.5052 11.7811L0.50333 11.5993L0.501861 11.394L0.500793 11.1525L0.500126 10.8445L0.5 9.28087L0.500539 8.93593L0.501478 8.67817L0.502818 8.46311L0.50456 8.27472L0.506705 8.10507L0.509251 7.94946L0.512198 7.80495L0.515549 7.6695L0.519301 7.54162L0.523457 7.42017L0.528013 7.30433L0.532974 7.19335L0.538335 7.08676L0.544104 6.98409L0.550273 6.88495L0.556846 6.78899L0.563827 6.69597L0.571208 6.6057L0.578996 6.51789L0.587191 6.43244L0.595789 6.34915L0.604795 6.26789L0.614207 6.18856L0.62403 6.11103L0.634256 6.03522L0.644893 5.96101L0.655939 5.88835L0.667395 5.81714L0.679261 5.74733L0.691537 5.67886L0.704225 5.61167L0.717327 5.54571L0.730842 5.48094L0.744769 5.4173L0.759112 5.35476L0.773871 5.29327L0.789046 5.23282L0.804637 5.17336L0.82065 5.11486L0.837082 5.05729L0.853932 5.00063L0.871204 4.94485L0.888902 4.88993L0.90702 4.83585L0.925565 4.78258L0.944537 4.73011L0.963937 4.67842L0.983765 4.62749L1.00402 4.5773L1.02471 4.52784L1.04584 4.4791L1.06739 4.43106L1.08939 4.3837L1.11182 4.33702L1.1347 4.291L1.15801 4.24563L1.18177 4.20091L1.20598 4.15681L1.23063 4.11333L1.25573 4.07046L1.28129 4.0282L1.30729 3.98653L1.33376 3.94544L1.36068 3.90494L1.38806 3.865L1.41591 3.82563L1.44423 3.78681L1.47301 3.74854L1.50227 3.71082L1.532 3.67363L1.56221 3.63697L1.5929 3.60084L1.62407 3.56524L1.65574 3.53015L1.68789 3.49556L1.72055 3.46149L1.75369 3.42791L1.78735 3.39484L1.82151 3.36226L1.85618 3.33016L1.89137 3.29856L1.92708 3.26744L1.96332 3.23679L2.00009 3.20662L2.0374 3.17692L2.07524 3.14769L2.11364 3.11892L2.15258 3.09062L2.19209 3.06277L2.23217 3.03538L2.27282 3.00845L2.31405 2.98197L2.35587 2.95594L2.39828 2.93035L2.4413 2.90521L2.48493 2.88051L2.52918 2.85625L2.57406 2.83243L2.61959 2.80905L2.66577 2.78609L2.7126 2.76358L2.76011 2.74149L2.80831 2.71983L2.85721 2.6986L2.90681 2.67779L2.95715 2.65741L3.00822 2.63745L3.06004 2.61791L3.11264 2.5988L3.16603 2.58009L3.22023 2.56181L3.27525 2.54394L3.33112 2.52649L3.38786 2.50945L3.4455 2.49283L3.50405 2.47661L3.56355 2.4608L3.62402 2.44541L3.68549 2.43042L3.748 2.41584L3.81158 2.40167L3.87627 2.3879L3.94211 2.37453L4.00914 2.36157L4.0774 2.34902L4.14696 2.33686L4.21786 2.32511L4.29016 2.31376L4.36395 2.30281L4.43925 2.29226L4.5162 2.28211L4.59486 2.27236L4.67533 2.263L4.75769 2.25405L4.84208 2.24549L4.92867 2.23732L5.01757 2.22956L5.10894 2.22219L5.20302 2.21521L5.3 2.20863L5.40012 2.20245L5.50376 2.19666L5.61122 2.19126L5.72294 2.18626L5.83945 2.18165L5.96141 2.17743L6.08957 2.17361L6.22498 2.17018L6.36898 2.16715L6.52341 2.1645L6.6909 2.16225L6.87537 2.16039L7.08333 2.15893L7.32682 2.15785L7.63447 2.15717L13.1721 2.15698L13.5371 2.15748L13.8056 2.15836L14.0285 2.15964L14.2231 2.16131L14.3981 2.16338L14.5584 2.16583L14.7071 2.16868L14.8464 2.17192L14.9779 2.17556L15.1027 2.17959L15.2217 2.18401L15.3357 2.18882L15.4451 2.19403L15.5505 2.19963L15.6523 2.20563L15.7507 2.21202L15.8462 2.21881L15.9388 2.22599L16.0289 2.23356L16.1165 2.24154L16.202 2.24991L16.2853 2.25867L16.3667 2.26784L16.4462 2.2774L16.5239 2.28736L16.6 2.29772L16.6745 2.30848L16.7475 2.31964L16.8191 2.3312L16.8893 2.34316L16.9581 2.35553L17.0257 2.36829L17.0922 2.38146L17.1574 2.39504L17.2215 2.40902L17.2845 2.4234L17.3465 2.4382L17.4074 2.4534L17.4674 2.46901L17.5264 2.48503L17.5844 2.50146L17.6416 2.5183L17.6979 2.53555L17.7533 2.55322L17.8079 2.57131L17.8617 2.58981L17.9146 2.60873L17.9668 2.62806L18.0183 2.64782L18.0689 2.668L18.1189 2.6886L18.1681 2.70963L18.2167 2.73109L18.2645 2.75297L18.3116 2.77528L18.3582 2.79803L18.404 2.8212L18.4492 2.84482L18.4937 2.86886L18.5376 2.89335L18.581 2.91828L18.6236 2.94366L18.6658 2.96947L18.7073 2.99574L18.7482 3.02246L18.7885 3.04963L18.8283 3.07726L18.8675 3.10534L18.9062 3.13388L18.9443 3.16289L18.9819 3.19237L19.0189 3.22231L19.0554 3.25273L19.0913 3.28363L19.1268 3.315L19.1617 3.34686L19.1961 3.37921L19.23 3.41205L19.2634 3.44538L19.2963 3.47922L19.3287 3.51356L19.3606 3.5484L19.392 3.58376L19.4229 3.61964L19.4533 3.65605L19.4833 3.69298L19.5128 3.73045L19.5418 3.76846L19.5704 3.80701L19.5984 3.84612L19.626 3.88578L19.6531 3.92602L19.6798 3.96683L19.7061 4.00822L19.7318 4.0502L19.7571 4.09277L19.782 4.13596L19.8064 4.17976L19.8304 4.22418L19.8539 4.26924L19.877 4.31495L19.8996 4.36131L19.9219 4.40835L19.9436 4.45606L19.965 4.50447L19.9859 4.55358L20.0063 4.60342L20.0264 4.65399L20.046 4.70531L20.0651 4.75741L20.0839 4.81029L20.1022 4.86398L20.1201 4.9185L20.1376 4.97387L20.1546 5.0301L20.1713 5.08724L20.1875 5.14529L20.2033 5.20429L20.2187 5.26426L20.2336 5.32525L20.2482 5.38728L20.2623 5.45039L20.276 5.51462L20.2893 5.58001L20.3022 5.6466L20.3146 5.71445L20.3267 5.78362L20.3384 5.85414L20.3496 5.92611L20.3604 5.99957L20.3709 6.07461L20.3809 6.15131L20.3905 6.22978L20.3997 6.31009L20.4085 6.3924L20.4169 6.4768L20.4248 6.56346L20.4324 6.65252L20.4396 6.74421L20.4464 6.83872L20.4527 6.93629L20.4587 7.03727L20.4642 7.14193L20.4694 7.25072L20.4742 7.36417L20.4785 7.48283L20.4824 7.60754L20.486 7.73923L20.4891 7.87919L20.4918 8.02915L20.4942 8.19166L20.4961 8.37036L20.4976 8.57138L20.4988 8.80582L20.4995 9.09942L20.4996 10.7843ZM8.73514 14.3137H11.8724C14.8445 14.3137 16.5783 12.465 16.5783 9.97538C16.5783 7.46107 14.8681 5.68629 11.9196 5.68629H8.73514V14.3137ZM7.16651 14.3137H4.81357V5.68629H7.16651V14.3137Z"
              fill="currentColor"/>
      </g>
      <defs>
        <clipPath id="clip0_1482_4049">
          <rect width="20" height="20" fill="currentColor" transform="translate(0.5)"/>
        </clipPath>
      </defs>
    </svg>

    <svg id="logout" viewBox="0 0 16 16" fill="none" xmlns="http://www.w3.org/2000/svg">
      <path
        d="M5.33447 4.66659C5.34254 3.21657 5.40684 2.43129 5.9191 1.91904C6.50489 1.33325 7.4477 1.33325 9.33331 1.33325H9.99998C11.8856 1.33325 12.8284 1.33325 13.4142 1.91904C14 2.50482 14 3.44763 14 5.33325V10.6666C14 12.5522 14 13.495 13.4142 14.0808C12.8284 14.6666 11.8856 14.6666 9.99998 14.6666H9.33331C7.4477 14.6666 6.50489 14.6666 5.9191 14.0808C5.40684 13.5685 5.34254 12.7833 5.33447 11.3333"
        stroke="currentColor" stroke-linecap="round"/>
      <path
        d="M5.33333 13C3.76199 13 2.97631 13 2.48816 12.5118C2 12.0237 2 11.238 2 9.66667V6.33333C2 4.76199 2 3.97631 2.48816 3.48816C2.97631 3 3.76199 3 5.33333 3"
        stroke="currentColor"/>
      <path d="M10 8.00008L4 8.00008M4 8.00008L5.33333 9.33341M4 8.00008L5.33333 6.66675" stroke="currentColor"
            stroke-linecap="round" stroke-linejoin="round"/>
    </svg>

    <svg id="pencil" viewBox="0 0 14 14" fill="none" xmlns="http://www.w3.org/2000/svg">
      <path
        d="M8.37605 2.3793L8.91673 1.83862C9.81256 0.942791 11.265 0.942791 12.1608 1.83862C13.0566 2.73445 13.0566 4.18687 12.1608 5.0827L11.6201 5.62338M8.37605 2.3793C8.37605 2.3793 8.44364 3.52824 9.45741 4.54202C10.4712 5.55579 11.6201 5.62338 11.6201 5.62338M8.37605 2.3793L3.40533 7.35002C3.06865 7.6867 2.90031 7.85504 2.75554 8.04065C2.58476 8.2596 2.43834 8.49651 2.31888 8.74718C2.21761 8.95968 2.14233 9.18553 1.99176 9.63723L1.35374 11.5513M11.6201 5.62338L6.64941 10.5941C6.31273 10.9308 6.14439 11.0991 5.95878 11.2439C5.73983 11.4147 5.50292 11.5611 5.25225 11.6805C5.03976 11.7818 4.8139 11.8571 4.3622 12.0077L2.44814 12.6457M2.44814 12.6457L1.98026 12.8017C1.75797 12.8757 1.5129 12.8179 1.34722 12.6522C1.18154 12.4865 1.12368 12.2415 1.19778 12.0192L1.35374 11.5513M2.44814 12.6457L1.35374 11.5513"
        stroke="currentColor" stroke-width="1.2"/>
    </svg>

    <svg xmlns="http://www.w3.org/2000/svg" xmlns:xlink="http://www.w3.org/1999/xlink" fill="currentColor"
         stroke-width="12"
         version="1.1" viewBox="0 0 485.017 485.017" xml:space="preserve">
<g>
	<path
    stroke-width="12"
    d="M361.205,68.899c-14.663,0-28.447,5.71-38.816,16.078c-21.402,21.403-21.402,56.228,0,77.631   c10.368,10.368,24.153,16.078,38.815,16.078s28.447-5.71,38.816-16.078c21.402-21.403,21.402-56.228,0-77.631   C389.652,74.609,375.867,68.899,361.205,68.899z M378.807,141.394c-4.702,4.702-10.953,7.292-17.603,7.292   s-12.901-2.59-17.603-7.291c-9.706-9.706-9.706-25.499,0-35.205c4.702-4.702,10.953-7.291,17.603-7.291s12.9,2.589,17.603,7.291   C388.513,115.896,388.513,131.688,378.807,141.394z"/>
  <path
    stroke-width="12"
    d="M441.961,43.036C414.21,15.284,377.311,0,338.064,0c-39.248,0-76.146,15.284-103.897,43.036   c-42.226,42.226-54.491,105.179-32.065,159.698L0.254,404.584l-0.165,80.268l144.562,0.165v-55.722h55.705l0-55.705h55.705v-64.492   l26.212-26.212c17.615,7.203,36.698,10.976,55.799,10.976c39.244,0,76.14-15.282,103.889-43.032   C499.25,193.541,499.25,100.325,441.961,43.036z M420.748,229.617c-22.083,22.083-51.445,34.245-82.676,34.245   c-18.133,0-36.237-4.265-52.353-12.333l-9.672-4.842l-49.986,49.985v46.918h-55.705l0,55.705h-55.705v55.688l-84.5-0.096   l0.078-37.85L238.311,208.95l-4.842-9.672c-22.572-45.087-13.767-99.351,21.911-135.029C277.466,42.163,306.83,30,338.064,30   c31.234,0,60.598,12.163,82.684,34.249C466.34,109.841,466.34,184.025,420.748,229.617z"/>
</g>
</svg>

    <svg id="key" xmlns="http://www.w3.org/2000/svg" viewBox="0 0 24 24" fill="none">
      <path
        d="M15 9H15.01M15 15C18.3137 15 21 12.3137 21 9C21 5.68629 18.3137 3 15 3C11.6863 3 9 5.68629 9 9C9 9.27368 9.01832 9.54308 9.05381 9.80704C9.11218 10.2412 9.14136 10.4583 9.12172 10.5956C9.10125 10.7387 9.0752 10.8157 9.00469 10.9419C8.937 11.063 8.81771 11.1823 8.57913 11.4209L3.46863 16.5314C3.29568 16.7043 3.2092 16.7908 3.14736 16.8917C3.09253 16.9812 3.05213 17.0787 3.02763 17.1808C3 17.2959 3 17.4182 3 17.6627V19.4C3 19.9601 3 20.2401 3.10899 20.454C3.20487 20.6422 3.35785 20.7951 3.54601 20.891C3.75992 21 4.03995 21 4.6 21H6.33726C6.58185 21 6.70414 21 6.81923 20.9724C6.92127 20.9479 7.01881 20.9075 7.10828 20.8526C7.2092 20.7908 7.29568 20.7043 7.46863 20.5314L12.5791 15.4209C12.8177 15.1823 12.937 15.063 13.0581 14.9953C13.1843 14.9248 13.2613 14.8987 13.4044 14.8783C13.5417 14.8586 13.7588 14.8878 14.193 14.9462C14.4569 14.9817 14.7263 15 15 15Z"
        stroke="currentColor" stroke-width="2" stroke-linecap="round" stroke-linejoin="round"/>
    </svg>

  </defs>
</svg>
