<svg xmlns="http://www.w3.org/2000/svg" version="1.1" xmlns:xlink="http://www.w3.org/1999/xlink" xmlns:svgjs="http://svgjs.dev/svgjs" width="57" height="57"><svg width="57" height="57" viewBox="0 0 57 57" fill="none" xmlns="http://www.w3.org/2000/svg">
<path fill-rule="evenodd" clip-rule="evenodd" d="M0.940726 7.65318C0 9.93149 0 12.8197 0 18.5963V38.4038C0 44.1803 0 47.0685 0.940726 49.3468C2.19503 52.3846 4.60089 54.798 7.62904 56.0563C9.90015 57 12.7793 57 18.5376 57H38.2826C44.0409 57 46.92 57 49.1911 56.0563C52.2193 54.798 54.6251 52.3846 55.8794 49.3468C56.8202 47.0685 56.8202 44.1803 56.8202 38.4038V18.5963C56.8202 12.8197 56.8202 9.93149 55.8794 7.65318C54.6251 4.61545 52.2193 2.20198 49.1911 0.943704C46.92 0 44.0409 0 38.2826 0H18.5376C12.7793 0 9.90015 0 7.62904 0.943704C4.60089 2.20198 2.19503 4.61545 0.940726 7.65318ZM11.2563 44.7011L18.5843 49.8751L28.4437 36.1641L38.17 49.8751L45.498 44.7011L35.1056 31.5075L51.4936 26.6569L48.6957 18.3138L32.5741 23.8759L32.9738 7.12511H23.9137L24.3134 23.8759L8.12521 18.3138L5.32724 26.6569L21.7819 31.5075L11.2563 44.7011Z" fill="#9E77ED"></path>
</svg><style>@media (prefers-color-scheme: light) { :root { filter: none; } }
@media (prefers-color-scheme: dark) { :root { filter: none; } }
</style></svg>