<svg viewBox="0 0 188 40" fill="none" xmlns="http://www.w3.org/2000/svg">
  <path fill-rule="evenodd" clip-rule="evenodd" d="M4.5298 8.29652C4 9.57557 4 11.197 4 14.44V25.56C4 28.803 4 30.4244 4.5298 31.7035C5.2362 33.4089 6.59113 34.7638 8.29652 35.4702C9.57557 36 11.197 36 14.44 36H25.56C28.803 36 30.4244 36 31.7035 35.4702C33.4089 34.7638 34.7638 33.4089 35.4702 31.7035C36 30.4244 36 28.803 36 25.56V14.44C36 11.197 36 9.57557 35.4702 8.29652C34.7638 6.59113 33.4089 5.2362 31.7035 4.5298C30.4244 4 28.803 4 25.56 4H14.44C11.197 4 9.57557 4 8.29652 4.5298C6.59113 5.2362 5.2362 6.59113 4.5298 8.29652ZM10.3393 29.0954L14.4663 32.0001L20.019 24.3026L25.4966 32.0001L29.6236 29.0954L23.7708 21.6884L33.0002 18.9653L31.4244 14.2815L22.3451 17.404L22.5702 8.00006H17.4677L17.6928 17.404L8.57595 14.2815L7.0002 18.9653L16.2672 21.6884L10.3393 29.0954Z" fill="#9E77ED"/>
  <path d="M62.048 33.384C60.32 33.384 58.7093 33.0747 57.216 32.456C55.744 31.8373 54.4427 30.9733 53.312 29.864C52.2027 28.7547 51.328 27.4533 50.688 25.96C50.0693 24.4667 49.76 22.8347 49.76 21.064C49.76 19.2933 50.0693 17.6613 50.688 16.168C51.328 14.6533 52.2027 13.352 53.312 12.264C54.4213 11.1547 55.7227 10.3013 57.216 9.704C58.7093 9.08533 60.32 8.776 62.048 8.776C63.7973 8.776 65.408 9.08533 66.88 9.704C68.3733 10.3013 69.6747 11.1547 70.784 12.264C71.9147 13.3733 72.7893 14.6747 73.408 16.168C74.0267 17.6613 74.336 19.2933 74.336 21.064C74.336 22.8347 74.016 24.4667 73.376 25.96C72.7573 27.4533 71.8933 28.7547 70.784 29.864C69.6747 30.9733 68.3733 31.8373 66.88 32.456C65.3867 33.0747 63.776 33.384 62.048 33.384ZM62.048 29.928C63.2853 29.928 64.416 29.704 65.44 29.256C66.4853 28.808 67.392 28.1893 68.16 27.4C68.928 26.5893 69.5253 25.6507 69.952 24.584C70.3787 23.496 70.592 22.3227 70.592 21.064C70.592 19.8053 70.3787 18.6427 69.952 17.576C69.5253 16.5093 68.928 15.5707 68.16 14.76C67.392 13.9493 66.4853 13.32 65.44 12.872C64.416 12.424 63.2853 12.2 62.048 12.2C60.8107 12.2 59.6693 12.424 58.624 12.872C57.6 13.32 56.704 13.9493 55.936 14.76C55.168 15.5707 54.5707 16.5093 54.144 17.576C53.7387 18.6427 53.536 19.8053 53.536 21.064C53.536 22.3227 53.7387 23.496 54.144 24.584C54.5707 25.6507 55.168 26.5893 55.936 27.4C56.704 28.1893 57.6107 28.808 58.656 29.256C59.7013 29.704 60.832 29.928 62.048 29.928ZM77.5978 33V9.16H81.3738V22.088L80.3818 21.704L91.1658 9.16H95.8698L86.3338 20.328L86.5258 17.64L96.2538 33H91.8058L84.8298 22.088L81.3738 26.12V33H77.5978ZM98.1065 33V9.16H106.779C108.379 9.16 109.787 9.45867 111.003 10.056C112.219 10.632 113.168 11.4853 113.851 12.616C114.555 13.7253 114.907 15.0587 114.907 16.616C114.907 18.2587 114.491 19.6667 113.659 20.84C112.848 22.0133 111.749 22.8667 110.363 23.4L115.867 33H111.579L105.723 22.6L108.187 24.04H101.883V33H98.1065ZM101.883 20.68H106.843C107.717 20.68 108.475 20.5093 109.115 20.168C109.755 19.8267 110.245 19.3573 110.587 18.76C110.949 18.1413 111.131 17.416 111.131 16.584C111.131 15.752 110.949 15.0373 110.587 14.44C110.245 13.8213 109.755 13.352 109.115 13.032C108.475 12.6907 107.717 12.52 106.843 12.52H101.883V20.68ZM119.332 33V28.84H123.012V33H119.332ZM134.042 33.384C132.74 33.384 131.599 33.096 130.618 32.52C129.636 31.9227 128.868 31.1013 128.314 30.056C127.78 28.9893 127.514 27.7627 127.514 26.376V15.688H131.13V26.056C131.13 26.8453 131.29 27.5387 131.61 28.136C131.93 28.7333 132.378 29.2027 132.954 29.544C133.53 29.864 134.191 30.024 134.938 30.024C135.706 30.024 136.378 29.8533 136.954 29.512C137.53 29.1707 137.978 28.6907 138.298 28.072C138.639 27.4533 138.81 26.728 138.81 25.896V15.688H142.394V33H138.97V29.608L139.354 30.056C138.948 31.1227 138.276 31.944 137.338 32.52C136.399 33.096 135.3 33.384 134.042 33.384ZM144.088 33V30.024L154.264 17.704L154.84 18.952H144.568V15.688H158.04V18.632L147.992 30.984L147.416 29.704H158.072V33H144.088Z" fill="#141522"/>
</svg>
