<svg width="72" height="72" viewBox="0 0 72 72" fill="none" xmlns="http://www.w3.org/2000/svg">
  <g clip-path="url(#clip0_0_1)">
    <mask id="path-1-inside-1_0_1" fill="white">
      <path d="M43.2151 4.17175C39.2419 4.17175 36.1025 7.36015 36.1025 11.3334C36.1025 15.3066 39.2909 18.4459 43.2151 18.4459C47.1393 18.4459 50.3767 15.2576 50.3767 11.2843C50.3767 7.31109 47.1883 4.17175 43.2151 4.17175ZM43.2151 16.8763C40.1248 16.8763 37.6232 14.3746 37.6232 11.2843C37.6232 8.19403 40.1739 5.74142 43.2151 5.74142C46.3054 5.74142 48.8071 8.24309 48.8071 11.3334C48.8071 14.4237 46.3054 16.8763 43.2151 16.8763Z"/>
    </mask>
    <path d="M43.2151 2.17175C38.1194 2.17175 34.1025 6.27358 34.1025 11.3334H38.1025C38.1025 8.44671 40.3644 6.17175 43.2151 6.17175V2.17175ZM34.1025 11.3334C34.1025 16.4202 38.1954 20.4459 43.2151 20.4459V16.4459C40.3865 16.4459 38.1025 14.193 38.1025 11.3334H34.1025ZM43.2151 20.4459C48.2349 20.4459 52.3767 16.371 52.3767 11.2843H48.3767C48.3767 14.1441 46.0436 16.4459 43.2151 16.4459V20.4459ZM52.3767 11.2843C52.3767 6.18861 48.2749 2.17175 43.2151 2.17175V6.17175C46.1018 6.17175 48.3767 8.43358 48.3767 11.2843H52.3767ZM43.2151 14.8763C41.2294 14.8763 39.6232 13.27 39.6232 11.2843H35.6232C35.6232 15.4792 39.0202 18.8763 43.2151 18.8763V14.8763ZM39.6232 11.2843C39.6232 9.33283 41.2439 7.74142 43.2151 7.74142V3.74142C39.1038 3.74142 35.6232 7.05523 35.6232 11.2843H39.6232ZM43.2151 7.74142C45.2008 7.74142 46.8071 9.34766 46.8071 11.3334H50.8071C50.8071 7.13852 47.41 3.74142 43.2151 3.74142V7.74142ZM46.8071 11.3334C46.8071 13.2962 45.2239 14.8763 43.2151 14.8763V18.8763C47.3869 18.8763 50.8071 15.5512 50.8071 11.3334H46.8071Z" fill="#F97066" mask="url(#path-1-inside-1_0_1)"/>
    <mask id="path-3-inside-2_0_1" fill="white">
      <path d="M45.4715 12.4125C45.4224 12.2654 45.4224 12.1672 45.3243 12.0201C45.2753 11.922 45.2262 11.7748 45.1281 11.6767C45.03 11.5786 44.981 11.4805 44.8829 11.3824C44.7847 11.2843 44.6866 11.1862 44.5395 11.1372C44.4414 11.039 44.2942 10.99 44.1961 10.9409C44.049 10.8919 43.9509 10.7938 43.8037 10.7447C43.6565 10.6957 43.5094 10.6466 43.4113 10.5976C43.3622 10.5976 43.2641 10.5485 43.2151 10.4995C43.166 10.4504 43.0679 10.4504 43.0189 10.4014C42.9698 10.3523 42.8717 10.3523 42.8227 10.3033L42.6755 10.1561C42.6264 10.1071 42.5774 10.058 42.5774 9.9599C42.5283 9.91085 42.5283 9.81274 42.5283 9.76369V9.51843C42.5283 9.46938 42.5774 9.37127 42.5774 9.32222C42.6264 9.27317 42.6264 9.17506 42.6755 9.12601L42.8227 8.97886C42.8717 8.9298 42.9698 8.88075 43.0679 8.88075C43.166 8.8317 43.2151 8.8317 43.3132 8.8317H43.6075C43.7056 8.8317 43.7547 8.8317 43.8528 8.88075C43.9509 8.88075 44.049 8.9298 44.098 8.9298C44.1471 8.9298 44.2452 8.97886 44.2942 8.97886C44.3923 8.97886 44.4414 9.02791 44.4904 9.02791L44.7357 9.12601L44.7847 8.8317L44.8829 8.04686V7.85065L44.6866 7.8016C44.6376 7.8016 44.5395 7.75255 44.4904 7.75255C44.4414 7.75255 44.3923 7.7035 44.2942 7.7035C44.2452 7.7035 44.1471 7.65445 44.049 7.65445C43.9509 7.65445 43.9018 7.60539 43.8037 7.60539H43.7547V6.6734H42.5774V7.65445H42.5283C42.3812 7.7035 42.234 7.75255 42.0869 7.85065C41.9397 7.89971 41.8416 7.99781 41.7435 8.09591C41.6454 8.19402 41.5473 8.29212 41.4492 8.43928C41.3511 8.53738 41.302 8.68454 41.253 8.8317L41.1058 9.27317C41.0568 9.42033 41.0568 9.61653 41.0568 9.76369C41.0568 9.91085 41.0568 10.009 41.1058 10.1561C41.1549 10.3033 41.1549 10.4014 41.253 10.5485C41.302 10.6466 41.4001 10.7938 41.4492 10.8919C41.5473 10.99 41.5964 11.0881 41.6945 11.1862C41.7926 11.2843 41.8907 11.3824 42.0378 11.4315C42.1359 11.5296 42.2831 11.5786 42.3812 11.6277C42.5283 11.6767 42.6755 11.7748 42.7736 11.8239C42.9208 11.8729 43.0679 11.922 43.166 11.971C43.2151 11.971 43.3132 12.0201 43.3622 12.0691C43.4113 12.1182 43.5094 12.1182 43.5584 12.1672C43.6075 12.2163 43.6565 12.2654 43.7056 12.2654L43.8528 12.4125C43.9018 12.4616 43.9018 12.5106 43.9509 12.6087C43.9509 12.6578 43.9999 12.7559 43.9999 12.854V13.0992C43.9999 13.1483 43.9509 13.2464 43.9018 13.2954L43.7547 13.4426C43.7056 13.4917 43.6565 13.5407 43.5584 13.5898C43.5094 13.6388 43.4113 13.6388 43.3622 13.6879C43.3132 13.6879 43.2151 13.7369 43.117 13.7369H42.4793C42.3812 13.7369 42.2831 13.6879 42.234 13.6879C42.1359 13.6879 42.0378 13.6388 41.9397 13.5898C41.8416 13.5407 41.7435 13.5407 41.6454 13.4917C41.5964 13.4917 41.5473 13.4426 41.4982 13.4426C41.4492 13.4426 41.4001 13.3936 41.3511 13.3936L41.0568 13.2464L41.0077 13.5898L40.9096 14.4727V14.6199L41.0568 14.6689C41.253 14.6199 41.3511 14.6689 41.4982 14.718C41.5964 14.767 41.7435 14.8161 41.8416 14.8161C41.9397 14.8651 42.0869 14.8651 42.234 14.9142C42.3812 14.9632 42.4793 14.9632 42.6264 14.9632H42.7246V15.9443H43.9018V14.9142H43.9509C44.098 14.8651 44.2452 14.8161 44.3923 14.718C44.5395 14.6689 44.6376 14.5708 44.7847 14.4727C44.8829 14.3746 44.981 14.2765 45.0791 14.1293C45.1772 14.0312 45.2262 13.8841 45.3243 13.7369L45.4715 13.2954C45.5205 13.1483 45.5205 13.0011 45.5205 12.8049C45.5205 12.6578 45.5205 12.5597 45.4715 12.4125ZM39.7814 19.3779C39.5362 19.0346 38.9966 18.9855 38.6532 19.2308L30.7068 25.5585L20.4549 21.291C20.2096 21.1929 19.9153 21.2419 19.7191 21.3891L8.73138 29.2374C8.38801 29.4827 8.28991 29.9732 8.53517 30.3166C8.68232 30.5618 8.92758 30.6599 9.17285 30.6599C9.32 30.6599 9.46716 30.6109 9.61432 30.5128L20.2586 22.9097L30.5596 27.1772C30.8049 27.2753 31.1482 27.2263 31.3444 27.0791L39.6343 20.5061C39.9776 20.2609 40.0267 19.7213 39.7814 19.3779Z"/>
    </mask>
    <path d="M45.4715 12.4125C45.4224 12.2654 45.4224 12.1672 45.3243 12.0201C45.2753 11.922 45.2262 11.7748 45.1281 11.6767C45.03 11.5786 44.981 11.4805 44.8829 11.3824C44.7847 11.2843 44.6866 11.1862 44.5395 11.1372C44.4414 11.039 44.2942 10.99 44.1961 10.9409C44.049 10.8919 43.9509 10.7938 43.8037 10.7447C43.6565 10.6957 43.5094 10.6466 43.4113 10.5976C43.3622 10.5976 43.2641 10.5485 43.2151 10.4995C43.166 10.4504 43.0679 10.4504 43.0189 10.4014C42.9698 10.3523 42.8717 10.3523 42.8227 10.3033L42.6755 10.1561C42.6264 10.1071 42.5774 10.058 42.5774 9.9599C42.5283 9.91085 42.5283 9.81274 42.5283 9.76369V9.51843C42.5283 9.46938 42.5774 9.37127 42.5774 9.32222C42.6264 9.27317 42.6264 9.17506 42.6755 9.12601L42.8227 8.97886C42.8717 8.9298 42.9698 8.88075 43.0679 8.88075C43.166 8.8317 43.2151 8.8317 43.3132 8.8317H43.6075C43.7056 8.8317 43.7547 8.8317 43.8528 8.88075C43.9509 8.88075 44.049 8.9298 44.098 8.9298C44.1471 8.9298 44.2452 8.97886 44.2942 8.97886C44.3923 8.97886 44.4414 9.02791 44.4904 9.02791L44.7357 9.12601L44.7847 8.8317L44.8829 8.04686V7.85065L44.6866 7.8016C44.6376 7.8016 44.5395 7.75255 44.4904 7.75255C44.4414 7.75255 44.3923 7.7035 44.2942 7.7035C44.2452 7.7035 44.1471 7.65445 44.049 7.65445C43.9509 7.65445 43.9018 7.60539 43.8037 7.60539H43.7547V6.6734H42.5774V7.65445H42.5283C42.3812 7.7035 42.234 7.75255 42.0869 7.85065C41.9397 7.89971 41.8416 7.99781 41.7435 8.09591C41.6454 8.19402 41.5473 8.29212 41.4492 8.43928C41.3511 8.53738 41.302 8.68454 41.253 8.8317L41.1058 9.27317C41.0568 9.42033 41.0568 9.61653 41.0568 9.76369C41.0568 9.91085 41.0568 10.009 41.1058 10.1561C41.1549 10.3033 41.1549 10.4014 41.253 10.5485C41.302 10.6466 41.4001 10.7938 41.4492 10.8919C41.5473 10.99 41.5964 11.0881 41.6945 11.1862C41.7926 11.2843 41.8907 11.3824 42.0378 11.4315C42.1359 11.5296 42.2831 11.5786 42.3812 11.6277C42.5283 11.6767 42.6755 11.7748 42.7736 11.8239C42.9208 11.8729 43.0679 11.922 43.166 11.971C43.2151 11.971 43.3132 12.0201 43.3622 12.0691C43.4113 12.1182 43.5094 12.1182 43.5584 12.1672C43.6075 12.2163 43.6565 12.2654 43.7056 12.2654L43.8528 12.4125C43.9018 12.4616 43.9018 12.5106 43.9509 12.6087C43.9509 12.6578 43.9999 12.7559 43.9999 12.854V13.0992C43.9999 13.1483 43.9509 13.2464 43.9018 13.2954L43.7547 13.4426C43.7056 13.4917 43.6565 13.5407 43.5584 13.5898C43.5094 13.6388 43.4113 13.6388 43.3622 13.6879C43.3132 13.6879 43.2151 13.7369 43.117 13.7369H42.4793C42.3812 13.7369 42.2831 13.6879 42.234 13.6879C42.1359 13.6879 42.0378 13.6388 41.9397 13.5898C41.8416 13.5407 41.7435 13.5407 41.6454 13.4917C41.5964 13.4917 41.5473 13.4426 41.4982 13.4426C41.4492 13.4426 41.4001 13.3936 41.3511 13.3936L41.0568 13.2464L41.0077 13.5898L40.9096 14.4727V14.6199L41.0568 14.6689C41.253 14.6199 41.3511 14.6689 41.4982 14.718C41.5964 14.767 41.7435 14.8161 41.8416 14.8161C41.9397 14.8651 42.0869 14.8651 42.234 14.9142C42.3812 14.9632 42.4793 14.9632 42.6264 14.9632H42.7246V15.9443H43.9018V14.9142H43.9509C44.098 14.8651 44.2452 14.8161 44.3923 14.718C44.5395 14.6689 44.6376 14.5708 44.7847 14.4727C44.8829 14.3746 44.981 14.2765 45.0791 14.1293C45.1772 14.0312 45.2262 13.8841 45.3243 13.7369L45.4715 13.2954C45.5205 13.1483 45.5205 13.0011 45.5205 12.8049C45.5205 12.6578 45.5205 12.5597 45.4715 12.4125ZM39.7814 19.3779C39.5362 19.0346 38.9966 18.9855 38.6532 19.2308L30.7068 25.5585L20.4549 21.291C20.2096 21.1929 19.9153 21.2419 19.7191 21.3891L8.73138 29.2374C8.38801 29.4827 8.28991 29.9732 8.53517 30.3166C8.68232 30.5618 8.92758 30.6599 9.17285 30.6599C9.32 30.6599 9.46716 30.6109 9.61432 30.5128L20.2586 22.9097L30.5596 27.1772C30.8049 27.2753 31.1482 27.2263 31.3444 27.0791L39.6343 20.5061C39.9776 20.2609 40.0267 19.7213 39.7814 19.3779Z" stroke="#F97066" stroke-width="4" mask="url(#path-3-inside-2_0_1)"/>
    <mask id="path-4-inside-3_0_1" fill="white">
      <path d="M51.2596 46.2585H47.6297V23.5474C47.6297 23.1059 47.2863 22.7625 46.8449 22.7625H39.6342C39.1927 22.7625 38.8493 23.1059 38.8493 23.5474V46.2585H36.2005V31.3957C36.2005 30.9543 35.8572 30.6109 35.4157 30.6109H28.156C27.7145 30.6109 27.3711 30.9543 27.3711 31.3957V46.2585H24.7223V30.2185C24.7223 29.777 24.3789 29.4336 23.9375 29.4336H16.7268C16.2853 29.4336 15.942 29.777 15.942 30.2185V46.2585H13.2931V34.8294C13.2931 34.3879 12.9498 34.0445 12.5083 34.0445H5.24859C4.80712 34.0445 4.46375 34.3879 4.46375 34.8294V46.2585H0.784835C0.343365 46.2585 0 46.6019 0 47.0434C0 47.4849 0.343365 47.8282 0.784835 47.8282H51.2105C51.652 47.8282 51.9953 47.4849 51.9953 47.0434C52.0444 46.6019 51.701 46.2585 51.2596 46.2585ZM11.6744 46.2585H6.03342V35.6142H11.6744V46.2585ZM23.1526 46.2585H17.5116V31.0033H23.1526V46.2585ZM34.5818 46.2585H28.9408V32.1806H34.5818V46.2585ZM46.06 46.2585H40.419V24.3322H46.06V46.2585Z"/>
    </mask>
    <path d="M47.6297 46.2585H45.6297V48.2585H47.6297V46.2585ZM38.8493 46.2585V48.2585H40.8493V46.2585H38.8493ZM36.2005 46.2585H34.2005V48.2585H36.2005V46.2585ZM27.3711 46.2585V48.2585H29.3711V46.2585H27.3711ZM24.7223 46.2585H22.7223V48.2585H24.7223V46.2585ZM15.942 46.2585V48.2585H17.942V46.2585H15.942ZM13.2931 46.2585H11.2931V48.2585H13.2931V46.2585ZM4.46375 46.2585V48.2585H6.46375V46.2585H4.46375ZM51.9953 47.0434L50.0076 46.8225L49.9953 46.9326V47.0434H51.9953ZM11.6744 46.2585V48.2585H13.6744V46.2585H11.6744ZM6.03342 46.2585H4.03342V48.2585H6.03342V46.2585ZM6.03342 35.6142V33.6142H4.03342V35.6142H6.03342ZM11.6744 35.6142H13.6744V33.6142H11.6744V35.6142ZM23.1526 46.2585V48.2585H25.1526V46.2585H23.1526ZM17.5116 46.2585H15.5116V48.2585H17.5116V46.2585ZM17.5116 31.0033V29.0033H15.5116V31.0033H17.5116ZM23.1526 31.0033H25.1526V29.0033H23.1526V31.0033ZM34.5818 46.2585V48.2585H36.5818V46.2585H34.5818ZM28.9408 46.2585H26.9408V48.2585H28.9408V46.2585ZM28.9408 32.1806V30.1806H26.9408V32.1806H28.9408ZM34.5818 32.1806H36.5818V30.1806H34.5818V32.1806ZM46.06 46.2585V48.2585H48.06V46.2585H46.06ZM40.419 46.2585H38.419V48.2585H40.419V46.2585ZM40.419 24.3322V22.3322H38.419V24.3322H40.419ZM46.06 24.3322H48.06V22.3322H46.06V24.3322ZM51.2596 44.2585H47.6297V48.2585H51.2596V44.2585ZM49.6297 46.2585V23.5474H45.6297V46.2585H49.6297ZM49.6297 23.5474C49.6297 22.0013 48.3909 20.7625 46.8449 20.7625V24.7625C46.1818 24.7625 45.6297 24.2105 45.6297 23.5474H49.6297ZM46.8449 20.7625H39.6342V24.7625H46.8449V20.7625ZM39.6342 20.7625C38.0882 20.7625 36.8493 22.0013 36.8493 23.5474H40.8493C40.8493 24.2105 40.2973 24.7625 39.6342 24.7625V20.7625ZM36.8493 23.5474V46.2585H40.8493V23.5474H36.8493ZM38.8493 44.2585H36.2005V48.2585H38.8493V44.2585ZM38.2005 46.2585V31.3957H34.2005V46.2585H38.2005ZM38.2005 31.3957C38.2005 29.8497 36.9617 28.6109 35.4157 28.6109V32.6109C34.7526 32.6109 34.2005 32.0588 34.2005 31.3957H38.2005ZM35.4157 28.6109H28.156V32.6109H35.4157V28.6109ZM28.156 28.6109C26.6099 28.6109 25.3711 29.8497 25.3711 31.3957H29.3711C29.3711 32.0588 28.8191 32.6109 28.156 32.6109V28.6109ZM25.3711 31.3957V46.2585H29.3711V31.3957H25.3711ZM27.3711 44.2585H24.7223V48.2585H27.3711V44.2585ZM26.7223 46.2585V30.2185H22.7223V46.2585H26.7223ZM26.7223 30.2185C26.7223 28.6724 25.4835 27.4336 23.9375 27.4336V31.4336C23.2744 31.4336 22.7223 30.8816 22.7223 30.2185H26.7223ZM23.9375 27.4336H16.7268V31.4336H23.9375V27.4336ZM16.7268 27.4336C15.1808 27.4336 13.942 28.6724 13.942 30.2185H17.942C17.942 30.8816 17.3899 31.4336 16.7268 31.4336V27.4336ZM13.942 30.2185V46.2585H17.942V30.2185H13.942ZM15.942 44.2585H13.2931V48.2585H15.942V44.2585ZM15.2931 46.2585V34.8294H11.2931V46.2585H15.2931ZM15.2931 34.8294C15.2931 33.2834 14.0544 32.0445 12.5083 32.0445V36.0445C11.8452 36.0445 11.2931 35.4925 11.2931 34.8294H15.2931ZM12.5083 32.0445H5.24859V36.0445H12.5083V32.0445ZM5.24859 32.0445C3.70254 32.0445 2.46375 33.2834 2.46375 34.8294H6.46375C6.46375 35.4925 5.9117 36.0445 5.24859 36.0445V32.0445ZM2.46375 34.8294V46.2585H6.46375V34.8294H2.46375ZM4.46375 44.2585H0.784835V48.2585H4.46375V44.2585ZM0.784835 44.2585C-0.761202 44.2585 -2 45.4973 -2 47.0434H2C2 47.7065 1.44793 48.2585 0.784835 48.2585V44.2585ZM-2 47.0434C-2 48.5894 -0.761214 49.8282 0.784835 49.8282V45.8282C1.44794 45.8282 2 46.3803 2 47.0434H-2ZM0.784835 49.8282H51.2105V45.8282H0.784835V49.8282ZM51.2105 49.8282C52.7566 49.8282 53.9953 48.5894 53.9953 47.0434H49.9953C49.9953 46.3803 50.5474 45.8282 51.2105 45.8282V49.8282ZM53.9831 47.2642C54.1782 45.5084 52.7587 44.2585 51.2596 44.2585V48.2585C50.9574 48.2585 50.6241 48.1376 50.3661 47.8679C50.0975 47.587 49.9658 47.1983 50.0076 46.8225L53.9831 47.2642ZM11.6744 44.2585H6.03342V48.2585H11.6744V44.2585ZM8.03342 46.2585V35.6142H4.03342V46.2585H8.03342ZM6.03342 37.6142H11.6744V33.6142H6.03342V37.6142ZM9.67442 35.6142V46.2585H13.6744V35.6142H9.67442ZM23.1526 44.2585H17.5116V48.2585H23.1526V44.2585ZM19.5116 46.2585V31.0033H15.5116V46.2585H19.5116ZM17.5116 33.0033H23.1526V29.0033H17.5116V33.0033ZM21.1526 31.0033V46.2585H25.1526V31.0033H21.1526ZM34.5818 44.2585H28.9408V48.2585H34.5818V44.2585ZM30.9408 46.2585V32.1806H26.9408V46.2585H30.9408ZM28.9408 34.1806H34.5818V30.1806H28.9408V34.1806ZM32.5818 32.1806V46.2585H36.5818V32.1806H32.5818ZM46.06 44.2585H40.419V48.2585H46.06V44.2585ZM42.419 46.2585V24.3322H38.419V46.2585H42.419ZM40.419 26.3322H46.06V22.3322H40.419V26.3322ZM44.06 24.3322V46.2585H48.06V24.3322H44.06Z" fill="#F97066" mask="url(#path-4-inside-3_0_1)"/>
  </g>
  <g opacity="0.4" filter="url(#filter0_f_0_1)">
    <circle cx="38.9995" cy="39" r="13" fill="#F97066"/>
  </g>
  <defs>
    <filter id="filter0_f_0_1" x="5.99951" y="6" width="66" height="66" filterUnits="userSpaceOnUse" color-interpolation-filters="sRGB">
      <feFlood flood-opacity="0" result="BackgroundImageFix"/>
      <feBlend mode="normal" in="SourceGraphic" in2="BackgroundImageFix" result="shape"/>
      <feGaussianBlur stdDeviation="10" result="effect1_foregroundBlur_0_1"/>
    </filter>
    <clipPath id="clip0_0_1">
      <rect width="52" height="52" fill="white"/>
    </clipPath>
  </defs>
</svg>
