<svg viewBox="0 0 72 72" fill="none" xmlns="http://www.w3.org/2000/svg">
  <path d="M13.3871 41.0468C11.285 39.2766 10.9531 36.7319 10.068 34.5191C9.51481 33.0809 8.51906 31.8638 7.52332 30.6468C8.85098 34.4085 8.07651 37.0638 11.285 39.7192C10.7318 39.4979 10.1786 39.0553 9.73609 38.7234C7.1914 36.6213 3.4297 36.2894 1.88077 32.8596C2.32332 35.4043 4.31481 37.617 6.41694 39.0553C8.51906 40.383 11.1744 40.2723 13.3871 41.0468ZM18.9191 42.3745C19.251 42.2638 19.6935 42.2638 20.1361 42.1532C18.5872 41.9319 17.1489 41.3787 16.0425 40.383C14.3829 38.834 12.9446 37.2851 11.1744 36.0681C13.0552 39.8298 13.7191 41.3787 16.8169 42.0426C16.8169 42.0426 15.9318 41.9319 15.4893 41.8213C12.1701 41.1574 8.18715 42.0426 5.75311 39.2766C6.74885 41.0468 8.6297 42.4851 10.3999 43.1489C13.2765 44.034 16.2637 43.0383 18.9191 42.3745ZM23.3446 42.1532C18.034 42.1532 15.268 46.8 10.068 43.7021C12.6127 46.8 16.7063 47.0213 20.0254 44.9192C21.3531 44.034 22.5701 42.817 24.2297 42.817C26.7744 42.817 29.5403 45.4723 31.8637 47.9064C32.3063 47.5745 32.6382 47.2426 32.9701 46.9106C30.5361 44.5872 26.9957 42.1532 23.3446 42.1532ZM8.40843 36.9532C8.40843 36.9532 7.7446 35.7362 7.52332 34.9617C6.74885 31.9745 7.1914 28.3234 5.86375 25.4468C6.08502 27.1064 5.42119 28.5447 5.31055 30.0936C5.08928 32.1957 5.86375 33.634 6.41694 34.6298C6.41694 34.6298 5.64247 33.634 5.31055 33.0809C3.76162 30.6468 0.553106 28.9872 0.33183 26C-0.110723 32.5277 4.42545 34.2979 8.40843 36.9532ZM6.85949 17.5915C7.30204 16.7064 7.52332 15.6 7.7446 14.6043C7.52332 15.0468 7.30204 15.4894 6.97013 15.8213C4.868 17.5915 3.65098 18.5872 3.09779 21.3532L3.31906 18.9191C3.54034 16.4851 2.21268 13.8298 3.65098 11.7277C2.21268 13.2766 1.43821 15.2681 1.43821 17.2596C1.43821 19.9149 2.98715 21.7957 3.09779 24.3404C3.54034 21.6851 5.75311 19.8043 6.85949 17.5915ZM6.08502 12.7234C7.08077 11.8383 8.29779 11.0638 9.18289 9.95745C10.1786 8.62979 11.0637 7.08085 12.3914 5.86383C10.6212 6.6383 8.6297 7.30213 7.41268 9.18298C6.74885 10.2894 6.63821 11.617 6.08502 12.7234ZM3.87226 18.034C4.31481 17.1489 5.08928 16.2638 5.86375 15.6C7.85523 14.1617 9.84672 12.2809 9.95736 9.84681C8.85098 12.5021 5.42119 12.9447 4.64672 15.7106C4.64672 15.7106 5.08928 14.0511 5.19991 13.7191C5.75311 11.8383 5.64247 9.62553 7.52332 8.40851C3.87226 9.18298 3.65098 13.166 3.87226 16.1532C3.87226 16.817 3.98289 17.3702 3.87226 18.034ZM4.42545 30.8681C4.42545 30.8681 4.20417 28.766 4.53609 27.8809C5.42119 25.2255 6.3063 22.3489 6.19566 19.583C5.31055 22.9021 2.5446 24.0085 3.76162 28.5447C3.31906 27.6596 3.20843 26.6638 2.87651 25.7787C2.21268 23.3447 0.33183 21.2426 0.885021 18.366C-8.52048e-05 20.9106 -8.52048e-05 22.9021 0.885021 25.5574C1.43821 27.5489 3.4297 28.9872 4.42545 30.8681Z" fill="#009EDC"/>
  <path d="M38.6129 41.0468C40.715 39.2766 41.0469 36.7319 41.932 34.5191C42.4852 33.0809 43.4809 31.8638 44.4767 30.6468C43.149 34.4085 43.9235 37.0638 40.715 39.7192C41.2682 39.4979 41.8214 39.0553 42.2639 38.7234C44.8086 36.6213 48.5703 36.2894 50.1192 32.8596C49.6767 35.4043 47.6852 37.617 45.5831 39.0553C43.4809 40.383 40.8256 40.2723 38.6129 41.0468ZM33.0809 42.3745C32.749 42.2638 32.3065 42.2638 31.8639 42.1532C33.4128 41.9319 34.8511 41.3787 35.9575 40.383C37.6171 38.834 39.0554 37.2851 40.8256 36.0681C38.9448 39.8298 38.2809 41.3787 35.1831 42.0426C35.1831 42.0426 36.0682 41.9319 36.5107 41.8213C39.8299 41.1574 43.8129 42.0426 46.2469 39.2766C45.2511 41.0468 43.3703 42.4851 41.6001 43.1489C38.7235 44.034 35.7363 43.0383 33.0809 42.3745ZM28.6554 42.1532C33.966 42.1532 36.732 46.8 41.932 43.7021C39.3873 46.8 35.2937 47.0213 31.9746 44.9192C30.6469 44.034 29.4299 42.817 27.7703 42.817C25.2256 42.817 22.4597 45.4723 20.1363 47.9064C19.6937 47.5745 19.3618 47.2426 19.0299 46.9106C21.4639 44.5872 25.0043 42.1532 28.6554 42.1532ZM43.5916 36.9532C43.5916 36.9532 44.2554 35.7362 44.4767 34.9617C45.2511 31.9745 44.8086 28.3234 46.1363 25.4468C45.915 27.1064 46.5788 28.5447 46.6894 30.0936C46.9107 32.1957 46.1363 33.634 45.5831 34.6298C45.5831 34.6298 46.3575 33.634 46.6894 33.0809C48.2384 30.6468 51.4469 28.9872 51.6682 26C52.1107 32.5277 47.5746 34.2979 43.5916 36.9532ZM45.1405 17.5915C44.698 16.7064 44.4767 15.6 44.2554 14.6043C44.4767 15.0468 44.698 15.4894 45.0299 15.8213C47.132 17.5915 48.349 18.5872 48.9022 21.3532L48.6809 18.9191C48.4597 16.4851 49.7873 13.8298 48.349 11.7277C49.7873 13.2766 50.5618 15.2681 50.5618 17.2596C50.5618 19.9149 49.0129 21.7957 48.9022 24.3404C48.4597 21.6851 46.2469 19.8043 45.1405 17.5915ZM45.915 12.7234C44.9192 11.8383 43.7022 11.0638 42.8171 9.95745C41.8214 8.62979 40.9363 7.08085 39.6086 5.86383C41.3788 6.6383 43.3703 7.30213 44.5873 9.18298C45.2511 10.2894 45.3618 11.617 45.915 12.7234ZM48.1277 18.034C47.6852 17.1489 46.9107 16.2638 46.1363 15.6C44.1448 14.1617 42.1533 12.2809 42.0426 9.84681C43.149 12.5021 46.5788 12.9447 47.3533 15.7106C47.3533 15.7106 46.9107 14.0511 46.8001 13.7191C46.2469 11.8383 46.3575 9.62553 44.4767 8.40851C48.1277 9.18298 48.349 13.166 48.1277 16.1532C48.1277 16.817 48.0171 17.3702 48.1277 18.034ZM47.5746 30.8681C47.5746 30.8681 47.7958 28.766 47.4639 27.8809C46.5788 25.2255 45.6937 22.3489 45.8043 19.583C46.6894 22.9021 49.4554 24.0085 48.2384 28.5447C48.6809 27.6596 48.7916 26.6638 49.1235 25.7787C49.7873 23.3447 51.6682 21.2426 51.115 18.366C52.0001 20.9106 52.0001 22.9021 51.115 25.5574C50.5618 27.5489 48.5703 28.9872 47.5746 30.8681Z" fill="#009EDC"/>
  <path fill-rule="evenodd" clip-rule="evenodd" d="M25.9999 4.53618C16.1622 4.53618 8.18718 12.5112 8.18718 22.3489C8.18718 32.1867 16.1622 40.1617 25.9999 40.1617C35.8377 40.1617 43.8127 32.1867 43.8127 22.3489C43.8127 12.5112 35.8377 4.53618 25.9999 4.53618ZM7.74463 22.3489C7.74463 12.2668 15.9178 4.09363 25.9999 4.09363C36.0821 4.09363 44.2553 12.2668 44.2553 22.3489C44.2553 32.4311 36.0821 40.6043 25.9999 40.6043C15.9178 40.6043 7.74463 32.4311 7.74463 22.3489Z" fill="#009EDC"/>
  <path fill-rule="evenodd" clip-rule="evenodd" d="M26 8.29787C18.2398 8.29787 11.9489 14.5887 11.9489 22.3489C11.9489 30.1091 18.2398 36.4 26 36.4C33.7602 36.4 40.051 30.1091 40.051 22.3489C40.051 14.5887 33.7602 8.29787 26 8.29787ZM11.5063 22.3489C11.5063 14.3443 17.9954 7.85532 26 7.85532C34.0046 7.85532 40.4936 14.3443 40.4936 22.3489C40.4936 30.3535 34.0046 36.8425 26 36.8425C17.9954 36.8425 11.5063 30.3535 11.5063 22.3489Z" fill="#009EDC"/>
  <path fill-rule="evenodd" clip-rule="evenodd" d="M25.9999 11.7277C20.1339 11.7277 15.3786 16.483 15.3786 22.349C15.3786 28.2149 20.1339 32.9702 25.9999 32.9702C31.8658 32.9702 36.6211 28.2149 36.6211 22.349C36.6211 16.483 31.8658 11.7277 25.9999 11.7277ZM14.936 22.349C14.936 16.2386 19.8895 11.2851 25.9999 11.2851C32.1102 11.2851 37.0637 16.2386 37.0637 22.349C37.0637 28.4593 32.1102 33.4128 25.9999 33.4128C19.8895 33.4128 14.936 28.4593 14.936 22.349Z" fill="#009EDC"/>
  <path fill-rule="evenodd" clip-rule="evenodd" d="M25.9999 15.4894C22.2114 15.4894 19.1403 18.5605 19.1403 22.3489C19.1403 26.1374 22.2114 29.2085 25.9999 29.2085C29.7883 29.2085 32.8595 26.1374 32.8595 22.3489C32.8595 18.5605 29.7883 15.4894 25.9999 15.4894ZM18.6978 22.3489C18.6978 18.3161 21.967 15.0468 25.9999 15.0468C30.0327 15.0468 33.302 18.3161 33.302 22.3489C33.302 26.3818 30.0327 29.6511 25.9999 29.6511C21.967 29.6511 18.6978 26.3818 18.6978 22.3489Z" fill="#009EDC"/>
  <path fill-rule="evenodd" clip-rule="evenodd" d="M25.9998 18.9192C24.1056 18.9192 22.57 20.4547 22.57 22.349C22.57 24.2432 24.1056 25.7788 25.9998 25.7788C27.894 25.7788 29.4296 24.2432 29.4296 22.349C29.4296 20.4547 27.894 18.9192 25.9998 18.9192ZM22.1274 22.349C22.1274 20.2103 23.8611 18.4766 25.9998 18.4766C28.1384 18.4766 29.8721 20.2103 29.8721 22.349C29.8721 24.4876 28.1384 26.2213 25.9998 26.2213C23.8611 26.2213 22.1274 24.4876 22.1274 22.349Z" fill="#009EDC"/>
  <path fill-rule="evenodd" clip-rule="evenodd" d="M25.7786 18.6979V4.31491H26.2211V18.6979H25.7786ZM23.2987 19.9607L13.12 9.78202L13.4329 9.46908L23.6116 19.6478L23.2987 19.9607ZM38.8797 9.78202L28.701 19.9607L28.3881 19.6478L38.5668 9.46908L38.8797 9.78202ZM22.3488 22.5702H7.96582V22.1277H22.3488V22.5702ZM44.0339 22.5702H29.6509V22.1277H44.0339V22.5702ZM23.6116 25.0501L13.4329 35.2288L13.12 34.9159L23.2987 24.7372L23.6116 25.0501ZM38.5668 35.2288L28.3881 25.0501L28.701 24.7372L38.8797 34.9159L38.5668 35.2288ZM25.7786 40.383V26H26.2211V40.383H25.7786Z" fill="#009EDC"/>
  <path d="M25.1258 26.7966C25.1701 26.708 25.2586 26.354 25.3692 26.4646C25.4799 26.5753 25.5463 26.4646 25.5463 26.4646C25.5463 26.4646 25.6016 26.52 25.5684 26.6306C25.5463 26.7412 25.5131 26.8519 25.4467 26.874C25.3803 26.8851 25.325 26.9293 25.2365 26.9404C25.1701 26.9515 25.1258 26.7966 25.1258 26.7966ZM26.0331 26.6527C26.0552 26.6306 26.0884 26.7412 26.1437 26.7191C26.199 26.708 26.2211 26.8187 26.1658 26.8187C26.1105 26.8187 26.1105 26.8851 26.1105 26.9183C26.1105 26.9514 26.1105 27.0178 26.0663 27.0621C26.022 27.1063 25.9888 27.0732 25.9335 27.051C25.8782 27.0178 25.856 27.0178 25.7786 27.0178C25.7122 27.0178 25.7675 27.1285 25.7675 27.1285C25.7675 27.1285 25.4799 27.1174 25.5352 27.0732C25.5905 27.0289 25.6458 27.0178 25.6016 26.9846C25.5573 26.9514 25.6016 26.9293 25.6016 26.874C25.6016 26.8187 25.7343 26.8408 25.7011 26.8076C25.6569 26.7634 25.7011 26.6085 25.7675 26.697L25.8118 26.5974C25.7675 26.5532 25.8007 26.5421 25.7122 26.5089C25.6348 26.4757 25.7011 26.3097 25.7011 26.3097L25.7122 26.1991C25.7343 26.0553 26.0109 26.0442 26.0331 26.1659C26.0441 26.2876 26.0331 26.3761 26.0331 26.3761L26.1105 26.4093C26.1105 26.4093 26.0994 26.4978 26.0331 26.4978C25.9667 26.4978 26.0331 26.5421 25.9888 26.5863L26.0331 26.6527ZM36.2229 19.9259C36.1454 20.0034 35.9794 20.0366 35.9794 20.0366L35.9241 20.2468L35.8356 20.3242C35.8356 20.3242 35.8577 20.3795 35.8356 20.5123C35.8135 20.6451 35.6475 20.7225 35.6475 20.7225L35.5701 20.811C35.5701 20.811 35.1275 20.8332 35.0722 20.811C34.9063 20.7336 35.0169 20.5123 35.1275 20.5344C35.2382 20.5566 35.1054 20.2136 35.1054 20.2136L35.2492 20.1915C35.2492 20.1915 35.2714 19.8595 35.3267 19.8595C35.382 19.8595 35.3046 19.7489 35.2382 19.6936C35.1607 19.6383 35.0722 19.4502 34.9948 19.4723C34.9173 19.4944 34.6297 19.4723 34.6297 19.4723L34.5743 19.5829L34.3752 19.6161C34.3752 19.6161 34.3973 19.76 34.3531 19.8042C34.2424 19.937 33.822 20.2136 33.999 19.7489L34.0543 19.6383V19.4723L33.7224 19.4502C33.7224 19.4502 33.5565 19.3949 33.5565 19.3174C33.5565 19.24 33.5343 19.1515 33.5343 19.1515L33.1471 18.72L32.6824 18.6646L32.6492 18.5761L32.3726 18.5429C32.0407 18.377 31.742 18.5208 31.7973 18.8085C31.8526 19.0851 31.9411 19.1957 31.7641 19.1957C31.576 19.1957 31.5429 19.0519 31.5429 19.0519C31.5429 19.0519 31.399 18.9966 31.399 19.074C31.399 19.1515 31.3437 19.2953 31.399 19.3727C31.4543 19.4502 31.3216 19.5608 31.2663 19.5055C31.2109 19.4502 31.0671 19.2842 31.1003 19.2289C31.1335 19.1736 30.8458 18.8195 31.1335 18.7642C31.4322 18.7089 31.1114 18.5429 31.222 18.4987L31.3658 18.4212H31.5097L31.5982 18.3438L31.3548 18.3106L31.2109 18.2885L30.9343 18.2663C30.6577 18.4544 30.6024 18.6757 30.6024 18.6757C30.4586 18.9523 30.1046 18.5651 30.2373 18.4102C30.3701 18.2553 29.828 18.388 29.7394 18.4655C29.6509 18.5429 29.3743 18.4987 29.3743 18.4987C29.319 18.6646 29.0646 18.4766 29.1309 18.3659C29.2084 18.2553 29.2084 18.1778 29.2084 18.1778L29.1199 18.1557L29.0092 18.3659C28.7548 18.3659 28.6773 18.5097 28.7326 18.6093C28.788 18.6978 28.6552 18.5872 28.622 18.72C28.5888 18.8527 28.6441 18.8527 28.7548 18.908C28.8654 18.9634 28.6994 18.9634 28.7769 19.0519C28.8543 19.1404 29.0756 19.0519 28.9429 19.1846C28.8101 19.3174 28.5556 19.2621 28.5556 19.2621C28.5335 19.428 28.1905 19.3949 28.1463 19.3395C28.1131 19.2842 27.8365 18.9523 27.8365 18.9523L27.4824 18.9302C27.4492 18.6646 27.6484 18.7974 27.7258 18.5983C27.8033 18.388 27.8365 18.0561 27.8365 18.0561C27.8365 18.0561 27.5377 18.034 27.5267 18.1336C27.5046 18.2221 27.3275 18.2885 27.3275 18.2885C27.3275 18.2885 27.1837 18.3438 27.239 18.4212C27.2943 18.4987 27.1284 18.5319 27.1284 18.5319C27.1284 18.5319 27.1616 18.6536 27.1063 18.6978C26.9624 18.8527 26.5863 18.72 26.5309 18.6646L26.3097 18.5761L26.0884 18.4323L25.8339 18.5429L25.7565 18.6204H25.4799L25.4577 18.8417L25.9556 18.897L25.9888 19.3617L25.7897 19.2953H25.6569L25.6016 19.1846L25.4909 19.1625V19.5719L25.6016 19.6604L25.6901 19.7489L25.8782 19.771L25.9114 19.9923L26.376 20.0144L26.4314 20.1029L26.708 20.1251L27.239 20.6672L27.2058 20.8332L27.1173 20.8885C27.1505 21.0212 26.8739 20.9438 26.8739 20.9438V21.0544L27.0067 21.0766L27.1394 21.154L27.3275 20.8332C27.5267 20.7004 27.6263 20.8885 27.6373 20.9991C27.6594 21.1097 27.5488 21.0876 27.5488 21.0876V21.3532L27.6594 21.3863C27.8475 21.6076 27.582 21.7404 27.582 21.7404L27.5267 21.9285C27.4714 22.0944 27.2722 22.0612 27.2722 22.0612L27.1948 22.1719L26.9735 22.2272L27.405 22.2825C27.4492 22.1276 27.5599 22.0944 27.6152 22.1719C27.6705 22.2493 27.6705 22.3821 27.6705 22.3821L27.7811 22.4042L27.759 22.6144L27.8697 22.6476V23.2451L28.0024 23.3889C28.2237 23.3004 28.2237 23.4442 28.1131 23.5217C28.0024 23.5991 28.0799 23.931 28.0799 23.931L27.9914 24.0195V24.1744L27.8807 24.2519V24.4621C27.6926 24.3736 27.4714 24.4068 27.416 24.4621C27.2501 24.3514 26.896 24.3846 26.896 24.4842C27.0067 24.628 26.7633 24.6723 26.7633 24.6723L26.6305 24.8161C26.719 25.0042 26.542 25.0263 26.542 25.0263V25.3804L26.3207 25.5906L26.3429 26.0774C26.3429 26.2102 26.6194 26.2212 26.6748 26.1549C26.7301 26.0774 26.9514 26.3097 26.9514 26.3097H27.1173L27.1505 25.9778L27.0399 25.9225V25.3804L27.228 25.1702C27.4492 25.0927 27.3718 25.657 27.3718 25.7123C27.3939 25.9225 27.4824 25.9004 27.5709 25.8561C27.759 25.7787 27.6041 26.0663 27.4603 26.0442C27.3165 26.0221 27.405 26.2323 27.405 26.2323L27.4935 26.2655L27.3275 26.3983L27.1837 26.5642L26.9956 26.5089L26.7743 26.4868L26.6969 26.354L26.5641 26.3319L26.542 26.5974L26.4535 26.708L26.2322 26.9293C26.5309 26.9293 26.199 27.1395 26.1216 27.1395C26.2875 27.1949 26.0994 27.3608 25.679 27.228V27.3608L25.5352 27.3829L25.668 27.5268L25.8118 27.5489L25.7565 27.8697C25.7565 28.1132 25.148 27.9472 25.0926 27.8919L25.0705 28.2238L24.9599 28.2459L24.982 28.4672L24.9599 28.788L25.159 28.7549V28.8876L25.6569 28.9097L26.376 28.1463L26.7965 28.0578C26.8297 27.8697 27.0177 28.091 27.0177 28.091C27.2058 28.0689 27.239 28.2017 27.239 28.2017L27.4824 28.2349C27.6816 28.2902 27.5599 28.3123 27.5709 28.3897C27.5931 28.5004 27.6816 28.4672 27.6816 28.4672L27.7148 28.2238L27.8254 28.2459L27.7148 28.1132L27.5156 28.0246L27.2943 27.9361C27.1505 27.7259 27.3275 27.7702 27.4824 27.7923H27.7258C27.7258 27.7923 28.0024 28.1685 28.0024 28.257C28.0024 28.3455 28.1352 28.3676 28.1352 28.3676L28.3011 28.3455L28.3565 28.4783H28.5224L28.5777 28.5889H28.9097L28.9318 28.4229L28.622 28.3676L28.5999 28.1795L28.3786 28.1242C28.3011 27.8034 28.4339 27.7149 28.5224 27.8587L28.6331 27.8808L28.5999 27.6042L28.7326 27.571L28.6994 27.1838L28.5888 27.1506V27.0178L29.0535 27.04C29.0203 26.7966 29.0756 26.6859 29.0756 26.6859H29.2084L29.2305 26.7744L29.7948 26.8297L30.1931 26.3761C30.1709 26.3429 30.2373 26.3208 30.1931 26.2766C30.1377 26.2212 30.0603 26.2766 29.9718 26.2212C29.8833 26.1659 29.9718 25.8451 29.9497 25.7787C29.9275 25.7012 30.2594 25.5906 30.2041 25.7566C30.1488 25.9225 30.2041 26 30.2041 26C30.4475 25.7787 30.6467 26.0221 30.6246 26.0774C30.6024 26.1327 30.7573 26.188 30.8458 26.1327C30.9343 26.0774 31.045 26.2987 31.0118 26.4093C30.9786 26.52 30.6467 26.4978 30.6246 26.3872C30.6024 26.2766 30.5471 26.3097 30.5139 26.3651C30.4807 26.4204 30.3148 26.4536 30.2152 26.3983C30.1931 26.3872 30.1931 26.3761 30.182 26.3651L29.7837 26.8187H29.8058C30.0271 26.9514 29.9165 27.1174 29.839 27.1506C29.7616 27.1838 29.6399 27.1838 29.6399 27.1838L29.6067 27.2612L29.1309 27.2944L29.0977 27.4825C28.8543 27.4493 28.7658 27.7038 28.8211 27.8366C28.8765 27.9693 28.8211 28.08 28.8211 28.08L29.0203 28.1685L29.2748 28.091C29.308 27.9029 29.4739 27.8697 29.6288 27.7591C29.7726 27.6485 30.016 27.9693 29.9386 28.1132C29.8611 28.257 29.8611 28.3234 29.8611 28.3234L29.8833 28.4893L29.6952 28.5668L29.5514 28.6442L29.5292 28.7327H29.0314L28.9429 28.8212L28.6994 28.8434L28.622 28.954L28.456 28.9761C28.456 28.9761 28.1794 29.1089 28.2901 29.2527C28.4007 29.4076 27.8254 29.3855 27.7037 29.1753C27.6705 29.3634 27.4603 29.1974 27.4603 29.1974L27.2612 29.1421L27.239 28.8655C27.2058 28.6774 26.8518 28.6774 26.8739 28.8102C26.896 28.9429 26.2101 28.8655 26.2101 28.8655L25.9888 28.9761L25.7897 29.0978L25.7675 29.1863L25.4356 29.2195L25.2918 29.297L25.2365 29.1863H25.0926L24.9488 29.3966C24.5616 29.4187 24.1965 29.64 24.2297 29.7285C24.2629 29.817 24.0858 29.9166 24.0858 29.9166L23.9199 29.9719L23.8092 30.1378L23.588 30.2153L23.5548 30.6025L23.4441 30.68V30.8459L23.3114 30.8791V30.9676L23.1233 30.9897L23.2339 31.2663L23.3777 31.3438C23.6322 31.377 23.5216 31.6978 23.5216 31.6978L23.6654 31.72L23.7429 31.9302L23.8867 32.2289C23.942 32.4502 24.108 32.3949 24.1854 32.3838C24.2629 32.3617 24.3292 32.6051 24.3292 32.6051L25.0594 32.6272C25.0594 32.6272 25.0263 32.7046 25.148 32.7378C25.2807 32.771 26.1216 32.8153 26.1548 32.76C26.1216 32.594 26.6194 32.5497 26.8186 32.7046C27.0177 32.8485 27.2943 32.76 27.2943 32.76L27.5709 33.0919L27.759 33.5012L28.0688 33.5897L28.2901 33.6451L28.3675 33.9659L28.5335 33.988L28.5888 34.1983C28.788 34.3421 28.5335 34.6629 28.5335 34.6629V35.0723L28.6773 35.1497L28.6552 35.3046L28.8986 35.548L29.1752 35.5702L29.8722 36.3114L30.4254 36.4774L30.5139 36.7761L30.6577 36.754L30.7684 36.6655L31.2109 36.6434L31.4322 36.4331L31.6756 36.4L33.7224 34.6629L33.5343 34.5523V34.1429C33.8663 33.8995 33.8884 33.468 33.5675 33.4349C33.3352 33.4017 33.4348 33.1583 33.656 33.114L33.7888 33.0587V32.8927L34.2092 32.5055V32.2068L33.2909 31.4434C32.8816 31.2995 33.2909 30.4034 33.5675 30.4144C33.8441 30.4366 33.5454 29.0314 33.5454 29.0314L33.4016 28.954L33.4348 28.5004H33.2356L32.9037 28.9319L32.8152 29.2306C32.782 29.6178 31.6424 29.5514 31.5871 29.4961C31.5318 29.4408 31.1446 29.2749 31.1446 29.2749C31.1446 29.2749 30.8458 29.0314 30.7905 29.1089C30.7352 29.1863 30.4807 29.0204 30.4807 29.0757C30.4807 29.131 30.2373 28.9429 30.2373 28.9429L29.8722 28.8102L30.1488 28.7549L30.0935 28.5336L30.5692 28.777C30.6246 28.8544 30.868 28.8323 30.868 28.8323L30.9454 28.9208C30.9454 28.9208 31.0892 28.8987 31.1888 29.0093C31.2773 29.12 31.7641 29.0314 31.7641 29.0314L31.8969 29.1421L32.096 29.2195L32.6714 29.2417L32.6935 28.8876L32.8041 28.777L32.782 28.5557L32.9148 28.4451V28.257L33.0254 28.2238L33.0475 27.8144L33.136 27.7923V26.8961L32.8594 26.6306C32.8373 26.7191 32.5497 26.7191 32.5497 26.7191C32.5497 26.7191 32.4722 26.8519 32.4169 26.8519C32.3616 26.8519 32.4943 27.0178 32.4501 27.1285C32.4169 27.2391 32.262 27.2391 32.262 27.2391L31.9854 27.3166L31.908 27.4051H31.6092L31.576 27.1617L31.908 27.0732L32.096 26.9846L32.1846 26.7966C32.2067 26.6085 32.428 26.6306 32.428 26.6306C32.428 26.6306 32.8484 26.2766 32.8705 26.1106C32.8926 25.9446 33.0365 25.48 33.2909 25.48H33.7667C33.9548 25.4025 33.8994 25.1591 33.8994 25.1591L34.1429 25.1259L34.176 25.2587C34.176 25.2587 34.508 25.2919 34.5411 25.2366C34.5743 25.1812 34.6518 25.0485 34.7403 25.1038C34.8288 25.1591 35.1275 24.971 35.1275 24.971C35.1497 24.8383 35.6033 24.8936 35.6033 24.8936L35.6586 24.7276C35.6586 24.7276 35.3488 24.2961 35.2935 24.2961C35.2382 24.2961 34.9394 24.0306 34.9063 24.1302C34.6075 24.0527 34.6297 23.6434 34.6297 23.6434L34.519 23.3778C34.519 23.2229 34.2424 22.9132 34.1871 22.9463C33.9105 22.7361 34.1097 22.5038 34.1871 22.4817C34.2646 22.4595 34.4416 22.2051 34.4416 22.2051L34.5301 21.9395L34.8399 21.851L34.8731 21.6076L34.7071 21.5855C34.7071 21.5855 34.8952 21.2536 34.9837 21.2536C35.0722 21.2536 35.6807 21.2536 35.736 21.2204C35.7914 21.1872 35.902 20.8885 35.902 20.8332C35.902 20.7778 36.0458 20.7557 36.1011 20.7446C36.1565 20.7225 36.2892 20.5787 36.3224 20.5012C36.422 20.3132 36.3003 19.8485 36.2229 19.9259ZM41.3233 25.8893C41.3122 25.8561 41.3012 25.8229 41.268 25.8119C41.1905 25.7787 41.0467 25.834 40.9803 25.8783L41.0467 25.9668C41.1131 25.9225 41.2126 25.9004 41.2237 25.9114V25.9004L41.3233 25.8893ZM41.799 28.1132L41.6884 28.1021C41.6773 28.1906 41.6994 28.3012 41.788 28.3123L41.8101 28.2017C41.8101 28.2017 41.799 28.1574 41.799 28.1132ZM42.2084 27.6706C42.2416 27.7812 42.2748 27.8919 42.2748 27.9029L42.3743 27.8587C42.3743 27.8587 42.3301 27.748 42.308 27.6374L42.2084 27.6706ZM42.4518 27.5821V27.56C42.4518 27.5268 42.4407 27.4825 42.4186 27.4383L42.319 27.4936C42.3301 27.5157 42.3301 27.5489 42.3411 27.571C42.3411 27.6042 42.3522 27.6374 42.3743 27.6595C42.3965 27.6706 42.4186 27.6817 42.4518 27.6706L42.4297 27.56C42.4297 27.571 42.4407 27.571 42.4518 27.5821ZM41.5114 28.3787C41.5888 28.3344 41.6884 28.2349 41.6773 28.4451C41.6663 28.6553 41.5777 28.5889 41.5114 28.6553C41.445 28.7217 41.4007 28.4451 41.5114 28.3787ZM37.0748 29.817L37.0858 29.651L37.2629 29.6732L37.2518 29.828L37.0748 29.817ZM37.0858 30.1821C37.0637 30.0825 36.9531 30.0493 36.942 30.0493L36.9088 30.16C36.9199 30.16 36.9309 30.171 36.942 30.1821L36.9641 30.2817C36.9531 30.2927 36.942 30.3038 36.942 30.3149L37.0194 30.3923C37.0748 30.3038 37.0969 30.2485 37.0858 30.1821ZM23.3335 33.634L23.2229 33.7336L23.1675 33.7778L23.2229 33.8221L23.3556 33.9106L23.422 33.8221L23.3446 33.7668L23.3999 33.7225L23.3335 33.634ZM24.639 34.9727L24.5948 35.0723L24.7054 35.1276L24.6722 35.1719L24.7497 35.2493L24.8935 35.1055L24.8271 35.0612L24.639 34.9727ZM19.5607 10.9642L19.6714 11.0749L19.5939 11.1523L19.4833 11.0417L19.5607 10.9642ZM22.902 14.4493L23.0126 14.5378L22.9463 14.6263L22.8356 14.5378L22.902 14.4493ZM22.4816 14.5268L22.5037 14.737H22.7803C22.8909 14.737 22.6918 14.6042 22.6918 14.6042C22.6918 14.6042 22.4705 14.6263 22.4816 14.5268ZM28.5446 9.32677L28.3565 9.30464L28.3454 9.41528L28.5003 9.42634L28.622 9.61443L28.7105 9.54805L28.5888 9.3489L28.5667 9.32677H28.5446ZM29.0424 5.41018L28.9871 5.50975L29.1309 5.59826L29.1641 5.62039L29.1863 5.59826L29.3965 5.46549L29.3301 5.37698L29.1641 5.48762L29.0424 5.41018ZM30.0271 5.94124L29.9386 5.84166L29.8611 5.93018L30.0271 6.09613L30.0603 6.06294L30.2484 5.90805L30.1709 5.81954L30.0271 5.94124ZM23.9199 9.82464C23.9088 9.75826 24.285 9.7472 24.3403 9.80252C24.3956 9.85783 24.3624 9.95741 24.5284 9.95741C24.6943 9.95741 24.6169 10.068 24.6058 10.1234C24.5837 10.1787 24.4067 10.1566 24.3846 10.1012C24.3624 10.0459 24.0858 10.0238 24.0858 10.0238C24.0858 10.0238 23.942 9.91315 23.9199 9.82464ZM26.0331 9.61443C26.3207 9.70294 26.4203 9.63656 26.4424 9.55911C26.4646 9.48166 26.4756 9.4706 26.5863 9.44847C26.6969 9.42634 26.5641 9.20507 26.4535 9.2272C26.3429 9.24932 26.2322 9.194 26.2101 9.09443C26.188 9.00592 26.0109 8.76252 25.9888 8.9506C25.9667 9.13869 25.856 9.13869 25.8782 9.27145C25.9114 9.39315 25.9667 9.5923 26.0331 9.61443ZM27.8586 6.46124C27.8143 6.29528 27.582 6.67145 27.8254 6.73783C28.0688 6.81528 28.3011 6.73783 28.3011 6.73783L28.3565 6.6272L29.2748 6.64932C29.3522 6.57188 29.3854 6.46124 29.3854 6.46124C29.3854 6.46124 29.6067 6.38379 29.6952 6.42805C29.7837 6.46124 29.7173 6.16252 29.6177 6.20677C29.5292 6.23996 29.3412 6.2289 29.3412 6.2289H29.0092C28.9871 6.09613 28.6994 6.15145 28.6773 6.2289C28.6663 6.29528 28.5556 6.31741 28.5556 6.31741L28.1352 6.3506C28.0909 6.46124 27.8807 6.53869 27.8586 6.46124ZM27.8918 7.37954L27.6484 7.13613V6.92592L27.5709 6.84847L27.4935 6.58294L27.2501 6.50549L27.0067 6.594L26.7522 6.75996L26.4756 6.79315L26.3318 6.95911L26.9182 7.01443L27.0288 7.20252L27.4492 7.23571L27.7258 7.5123C27.9803 7.62294 28.0356 7.5123 27.8918 7.37954ZM28.7437 9.17188L28.8211 8.99486L28.9207 9.05017L28.8433 9.21613L28.7437 9.17188ZM34.2424 8.98379C34.2092 8.83996 34.6075 8.7072 34.7071 8.81783C34.7956 8.92847 35.0611 8.9506 35.0943 9.50379C35.1054 9.70294 34.7624 9.29358 34.7624 9.29358L34.4858 9.20507C34.3309 9.17188 34.2535 9.08337 34.2424 8.98379ZM32.3063 9.4706C32.2509 9.63656 32.2288 9.85783 32.1403 9.85783C32.0518 9.85783 32.085 10.1012 32.085 10.1012C32.085 10.1012 32.3284 10.1012 32.3948 10.1234C32.4722 10.1455 32.4722 10.3336 32.4722 10.3336C32.7488 10.3115 32.8594 10.6876 32.8263 10.7872C32.7931 10.8757 32.9369 10.8757 32.9369 10.8757C32.9369 10.8757 32.9369 11.1744 32.9037 11.2519C32.8705 11.3293 33.1471 11.3846 33.2135 11.4953C33.2909 11.6059 33.1803 11.9821 33.125 12.0042C33.0697 12.0263 33.2688 12.0817 33.2577 12.1702C33.2356 12.2587 33.3131 12.1702 33.3352 12.3251C33.3573 12.4689 33.3905 12.7897 33.3905 12.7897L33.645 12.8119C33.6782 12.5685 34.1539 12.5574 34.2314 12.5906C34.5411 12.7012 34.7846 13.188 34.7846 13.2987C34.7846 13.4093 34.5854 13.4315 34.5854 13.4315L34.6186 13.9736C34.9284 14.0621 35.1939 14.5157 35.1497 14.5932C35.1165 14.6706 35.3709 14.6485 35.3709 14.6485C35.4041 14.3166 35.725 14.4272 35.736 14.5378C35.7582 14.6485 35.8135 14.8919 35.8135 14.8919L35.902 15.0578L36.0348 15.1906L36.2339 15.1685L36.2892 15.2791L36.5326 15.3123C36.5326 15.3123 36.7318 15.5336 36.7539 15.5889C36.776 15.6442 37.0526 15.6221 37.119 15.6442C37.1965 15.6663 37.3071 15.7217 37.3182 15.8102C37.3403 15.8987 37.4509 16.0536 37.4509 16.0536C37.4509 16.0536 37.6722 16.1089 37.6943 16.1863C37.7165 16.2638 37.805 16.4297 37.805 16.4297L37.9931 16.5846L38.0152 16.7506L38.2143 16.7727L38.2697 16.994L38.6016 16.9719L38.7897 16.8391C39.0331 16.7063 39.199 16.5404 39.2101 16.4629C39.2322 16.3855 39.2654 16.1089 39.4535 16.1642C39.6416 16.2195 39.5088 15.7549 39.5088 15.7549C39.5088 15.7549 39.2543 15.5668 39.2654 15.4783C39.2875 15.3897 39.0109 15.2017 39.022 15.1242C39.0441 15.0468 38.7786 14.9029 38.8007 14.8255C38.8229 14.748 38.668 14.5489 38.668 14.5489L38.3914 14.2834L38.3582 14.1174L38.1369 14.0953L37.6943 13.5532L37.7165 13.3983L37.5837 13.3761V13.1659L37.4509 13.0885L37.2518 13.0663L36.8424 12.6238L36.8092 12.4136H36.6101L36.6433 12.0263C36.776 11.8604 36.6986 11.5395 36.6986 11.5395C36.6986 11.5395 36.4441 11.6723 36.3114 11.617C36.1786 11.5617 36.3667 11.4289 36.3667 11.4289V11.2851L36.256 11.1744C36.256 11.1744 35.9463 11.2076 35.9241 11.1523C35.902 11.097 35.8467 10.8536 35.8467 10.8536L35.8246 10.5327L35.6918 10.4774L35.6697 10.3668L35.4705 10.3889V10.1676L35.3599 10.1344L35.2492 10.0791L35.2271 9.85783L34.8177 9.83571L34.685 9.64762L34.5411 9.42634L34.0765 9.39315L33.9658 9.28252L33.7777 9.24932L33.645 9.194L33.5897 9.28252L33.2356 9.30464L33.2135 9.41528C33.0586 9.49273 32.3284 9.41528 32.3063 9.4706ZM28.9207 9.35996C28.9539 9.41528 29.1752 9.4706 29.1752 9.4706C29.319 9.4706 29.4186 9.58124 29.4186 9.63656C29.4186 9.69188 29.6177 9.66975 29.6177 9.66975L29.6399 9.53698L29.496 9.3489L29.3633 9.26039C29.3633 9.26039 29.1641 9.23826 29.1641 9.18294C29.1641 9.13869 28.9539 9.30464 28.9207 9.35996ZM28.9207 9.9906L28.7769 9.95741V10.1234L28.976 10.1455L28.9207 9.9906ZM30.9675 12.0485V11.9046C30.9675 11.9046 30.9454 11.7608 30.8569 11.7608C30.7684 11.7608 30.6024 11.6502 30.6356 11.5727C30.6688 11.4953 30.3258 11.4178 30.3258 11.4178C30.3258 11.4178 30.016 11.1191 30.1267 11.1523C30.2373 11.1855 30.182 11.0195 30.182 11.0195C30.182 11.0195 29.9607 11.0527 29.9054 11.0417C29.8501 11.0195 29.8722 10.8536 29.8722 10.8536C29.8722 10.8536 29.6509 10.7983 29.6509 10.8536C29.6509 10.9089 29.7284 10.9089 29.7616 11.0195C29.7948 11.1302 29.7837 11.3183 29.9497 11.3515C30.1156 11.3846 30.1488 11.4289 30.1709 11.5063C30.1931 11.5838 30.3922 11.5949 30.3922 11.5949L30.536 11.6723L30.9675 12.0485ZM31.1114 12.5463C31.0892 12.4689 31.056 12.2144 31.1667 12.2255C31.2773 12.2476 31.1999 12.2255 31.3326 12.2808C31.4654 12.3361 31.4765 12.1923 31.4765 12.1923H31.6756L31.9301 12.4025L31.8969 12.5685L31.7088 12.5906C31.6203 12.4468 31.4322 12.5021 31.4654 12.6238C31.4986 12.7566 31.3769 13 31.2994 13.011C31.222 13.0332 30.9897 13.0332 31.0007 12.9225C31.0339 12.8119 31.1114 12.5463 31.1114 12.5463ZM34.1429 15.091L34.2756 14.6817C34.0875 14.6485 34.1318 14.4383 34.1318 14.4383C34.1097 14.2723 33.8552 14.0842 33.7667 14.1395C33.6782 14.1949 33.7114 13.7523 33.7114 13.7523C33.7114 13.7523 33.8773 13.6417 33.9548 13.697C34.0322 13.7523 33.3241 12.7676 33.1803 12.8561C33.0365 12.9446 32.7046 12.7676 32.7156 12.5906C32.7377 12.4246 32.0518 11.8604 32.0518 11.8604C32.0518 11.8604 31.8305 11.7166 31.7973 11.8272C31.7641 11.9378 31.6867 12.0153 31.7973 12.0706C31.908 12.1259 31.8858 11.9821 32.0186 12.1038C32.1514 12.2366 32.3837 12.4025 32.2952 12.5132C32.2067 12.6238 32.096 12.668 32.096 12.668L32.2288 12.8229H32.428L32.4611 13.1438C32.4611 13.1438 32.6824 13.2544 32.7377 13.3872C32.7931 13.52 32.7931 13.5974 32.7377 13.6638C32.6824 13.7412 32.5718 13.874 32.5939 13.9957C32.616 14.1285 32.7599 14.1838 32.7599 14.1838L32.9037 14.2059L33.0143 14.2612V14.5046C33.1582 14.4714 33.4016 14.6706 33.3794 14.8034C33.3573 14.9361 33.4126 14.8587 33.6007 14.9915C33.7888 15.1242 33.7335 15.1463 33.8552 15.2349C33.9769 15.3123 34.0875 15.257 34.1429 15.091ZM29.9165 17.4808C29.9165 17.5361 29.8833 17.6136 29.9939 17.6357C30.1046 17.6578 30.3037 17.5583 30.3258 17.6689C30.348 17.7795 30.348 17.857 30.4918 17.9123C30.6356 17.9676 30.7352 17.9897 30.8458 17.9897C30.9565 17.9897 31.1999 17.9566 31.1999 17.9566C31.1999 17.9566 31.4654 18.0008 31.5097 18.0451C31.7088 18.2553 31.8416 18.3106 31.8969 18.211C31.9522 18.1225 31.8748 17.9123 31.8637 17.8349C31.8416 17.7574 31.5871 17.4034 31.4986 17.4808C31.4101 17.5583 31.388 17.4808 31.222 17.5361C31.056 17.5915 30.702 17.5583 30.6909 17.4808C30.6688 17.4034 30.4143 17.3702 30.4143 17.2927C30.4143 17.2153 30.2263 17.1268 30.2484 17.2374C30.2705 17.348 30.1156 17.4034 30.0824 17.3702C30.0271 17.3259 29.9165 17.4808 29.9165 17.4808ZM28.9982 17.68L28.976 17.8127L29.1752 17.8349C29.1752 17.8349 29.2637 17.9123 29.2637 17.9676C29.2637 18.0229 29.3965 18.0783 29.4629 18.0783C29.5403 18.0783 29.7394 17.9234 29.7394 17.9234C29.7394 17.9234 29.828 17.6578 29.7616 17.68C29.6841 17.7021 29.5403 17.8127 29.5182 17.7021C29.496 17.5915 29.2748 17.6468 29.2748 17.6468L28.9982 17.68ZM28.0467 17.8902L28.102 17.8791L28.1352 17.9787L28.0799 18.0008L28.0467 17.8902ZM28.1131 17.7132L28.2237 17.691L28.2569 17.857L28.1573 17.8791L28.1131 17.7132ZM28.4229 17.7353L28.4339 17.8459L28.8322 17.8349V17.7242L28.4229 17.7353ZM32.0075 17.6468L32.1956 17.6246L32.2067 17.7353L32.0186 17.7574L32.0075 17.6468ZM32.4943 18.0561L32.5497 17.9234L32.6492 17.9676L32.5939 18.1004L32.4943 18.0561ZM34.0986 16.1863L34.2867 16.1753L34.2977 16.2859L34.1097 16.297L34.0986 16.1863ZM34.4084 16.297H34.519V16.3855H34.4084V16.297ZM34.7403 14.7259L34.6297 14.737L34.6075 14.571L34.7182 14.56L34.7403 14.7259ZM34.6297 17.0493H34.7403V17.1821H34.6297V17.0493ZM34.8731 17.1157L34.9726 17.16L34.9173 17.2817L34.8177 17.2263L34.8731 17.1157ZM34.3309 15.6442C34.4416 15.6442 34.2977 16.0757 34.5854 16.0315C34.8841 15.9983 34.6075 16.1642 34.8288 16.1753C35.0501 16.1974 34.9948 16.0093 35.0722 15.8766C35.1497 15.7438 35.1054 15.6663 34.9837 15.6332C34.8509 15.6 34.8509 15.6 34.8177 15.4451C34.7846 15.3012 34.6297 15.257 34.6297 15.257L34.5743 15.0357L34.3309 15.1795L34.0875 15.5004C34.0875 15.7659 34.2203 15.6442 34.3309 15.6442ZM35.0501 16.6621C35.1939 16.5846 35.5148 16.5846 35.4926 16.474C35.4705 16.3634 35.6807 16.3302 35.6807 16.3302L35.736 16.5514L35.902 16.6621L35.9241 16.8723C35.9241 16.8723 35.9794 16.8391 35.7803 16.8944C35.5812 16.9497 35.7029 17.0383 35.7029 17.0383L35.2603 17.0604L35.205 16.8723L35.0501 16.6621ZM32.6714 18.2221C32.7599 18.2 32.9811 18.1889 33.0254 18.2442C33.0586 18.2995 32.8926 18.377 32.8926 18.377L32.6714 18.4102C32.605 18.3217 32.5829 18.2442 32.6714 18.2221ZM33.8552 18.0561C33.9548 18.1557 33.302 18.1336 33.302 18.0561C33.302 17.9787 33.3573 17.7242 33.5233 17.7795C33.6892 17.8349 33.7114 17.4476 33.7114 17.4476C33.7114 17.4476 33.5675 17.4697 33.6892 17.3923C33.822 17.3149 33.6892 17.2042 33.6339 17.1489C33.5786 17.0936 33.5233 16.994 33.5233 16.994H33.7777C33.8884 16.9166 33.9216 16.5625 33.9216 16.5625C34.1429 16.64 34.2535 16.4851 34.2535 16.4851C34.2535 16.4851 34.2867 16.5957 34.3641 16.6953C34.4416 16.7838 34.176 16.828 34.2756 16.8834C34.3641 16.9387 34.4084 17.1046 34.3641 17.16C34.3309 17.2153 34.1207 17.1821 34.1207 17.1046C34.1207 17.0272 34.0433 17.1932 34.1207 17.2927C34.1982 17.3812 34.0322 17.514 33.988 17.514C33.9548 17.514 33.7114 17.5472 33.9105 17.6689C34.1097 17.7795 34.3309 17.7242 34.3309 17.7242C34.3309 17.7242 34.4969 17.7021 34.5522 17.8017C34.6075 17.8902 34.5301 17.9123 34.4416 17.9123C34.3531 17.9123 33.9105 17.8791 33.9105 17.8791C33.9105 17.8791 33.7999 18.0008 33.8552 18.0561ZM36.0016 15.9429C35.9463 15.8655 35.8909 15.8102 35.8135 15.777C35.736 15.7438 35.6807 15.6995 35.6143 15.6995C35.5369 15.6995 35.4705 15.6221 35.5037 15.5336C35.5369 15.4451 35.4484 15.4008 35.4484 15.3234C35.4484 15.2459 35.5037 15.2459 35.5922 15.3012C35.6807 15.3566 35.6697 15.3787 35.736 15.4672C35.8135 15.5557 35.8467 15.6553 35.9241 15.6332C36.0016 15.611 36.0569 15.7991 36.1233 15.7438C36.2007 15.6885 36.1786 15.8766 36.1786 15.8766L36.0016 15.9429ZM35.8246 16.12C35.8799 16.1974 35.9905 16.2527 35.9905 16.3302C35.9905 16.4076 35.9573 16.4629 36.068 16.474C36.1786 16.4961 36.256 16.4519 36.2892 16.5514C36.3224 16.64 36.3224 16.7949 36.3114 16.8723C36.2892 16.9497 36.3335 17.0604 36.422 17.0604C36.5105 17.0604 36.5326 17.0825 36.5326 17.1378C36.5326 17.1932 36.6433 16.9276 36.6433 16.9276C36.5548 16.8502 36.4773 16.6842 36.4773 16.6842C36.4773 16.6842 36.3888 16.4187 36.3888 16.3855C36.3888 16.3523 36.256 16.308 36.2007 16.297C36.1454 16.2749 36.0569 16.1089 36.0569 16.1089L35.8246 16.12ZM37.0194 19.1404L36.942 18.9744C36.942 18.9744 36.942 18.8306 36.9752 18.7532C37.0084 18.6757 36.8977 18.6093 36.8424 18.5872C36.7871 18.5651 36.8092 18.4212 36.7871 18.3438C36.765 18.2663 36.6433 18.211 36.6433 18.211C36.6433 18.211 36.6101 17.9344 36.6101 17.8791C36.6101 17.8238 36.4441 17.7463 36.4994 17.691C36.5548 17.6357 36.588 17.5583 36.6433 17.5251C36.6986 17.4919 36.588 17.2263 36.6765 17.2817C36.765 17.337 36.765 17.4366 36.8092 17.5029C36.8424 17.5804 36.7871 17.8349 36.8867 17.8902C36.9752 17.9455 36.8646 18.1336 37.0194 18.1336C37.1633 18.1336 37.0748 18.4876 37.0748 18.4876C37.0748 18.4876 37.0416 18.7532 37.1301 18.7642C37.2186 18.7863 37.1633 19.2289 37.1633 19.2289L37.0194 19.1404ZM37.0748 20.5676L37.1301 20.457L37.2297 20.5123L37.1743 20.6229L37.0748 20.5676ZM37.1965 19.9591L37.3071 19.9702L37.296 20.1251L37.1854 20.1029L37.1965 19.9591ZM36.9641 19.3395L36.8203 19.3174L36.4884 19.3727L36.3003 19.7268C36.3003 19.7268 36.3888 19.7821 36.4663 19.9149C36.5437 20.0476 36.5769 20.811 36.3556 20.9438C36.1343 21.0766 36.3777 20.9991 36.3777 20.9991L36.3446 21.4085C36.3999 21.5966 36.4884 21.497 36.5437 21.4085C36.599 21.32 36.6543 21.2978 36.7318 21.1983C36.8092 21.1097 36.9199 20.9327 36.9309 20.811C36.9531 20.6783 37.0416 20.4791 36.9863 20.4238C36.9309 20.3685 37.0416 20.1029 37.0416 20.1029C37.0416 20.1029 37.119 19.948 37.0416 19.8042C36.9641 19.6493 37.0637 19.4834 37.119 19.417L36.9641 19.3395ZM36.1565 17.4366H35.8799C35.8799 17.4366 35.9684 17.4697 35.7139 17.2263C35.4594 16.9829 35.2935 17.2817 35.2935 17.2817L34.9948 17.3149V17.6136L34.8509 17.6689L34.8731 17.857L35.0722 17.8349C35.0722 17.8349 35.0722 18.0561 35.1275 17.9676C35.1829 17.8791 35.6475 17.9897 35.6033 18.211C35.5922 18.2995 36.068 18.5429 36.0126 18.8417C36.256 18.8749 36.2007 19.1183 36.2007 19.1183L36.5105 19.1515L36.599 18.9634L36.6875 18.9855V18.8749L36.4884 18.8195L36.4552 18.2221L36.3224 18.1336L36.3556 17.9787L36.2118 17.9234L36.2892 17.68L36.1565 17.4366ZM35.4705 22.017L35.5812 21.9727L35.5369 21.8842L35.5148 21.8178L35.4594 21.851L35.3267 21.9285L35.205 21.851L35.1497 21.9506L35.2935 22.0391L35.3267 22.0612L35.3488 22.0391L35.4594 21.9838L35.4705 22.017ZM35.9573 21.7736L36.1565 21.8068L36.1786 21.6961L35.9794 21.6629L35.9573 21.7736ZM35.5812 24.1634C35.5037 24.0527 35.9463 23.8646 36.0237 24.0859C36.1011 24.3072 36.0237 24.274 35.9463 24.2519C35.8799 24.2297 35.6918 24.3072 35.5812 24.1634ZM33.6782 27.7591H33.8109V28.1132H33.6782V27.7591ZM34.5301 31.1778C34.4969 31.3217 34.3641 31.3991 34.2867 31.3438C34.2092 31.2885 34.3752 31.4323 34.4194 31.5097C34.4526 31.5872 34.5633 31.5872 34.6075 31.5097C34.6407 31.4323 34.6297 31.2663 34.6629 31.1889C34.696 31.1225 34.5522 31.1004 34.5301 31.1778ZM34.9394 31.9302L35.1054 32.0076L35.1275 32.3285C35.3488 32.5497 36.068 32.3617 36.068 32.3063C36.068 32.251 36.0348 31.6204 36.0348 31.6204L35.9463 31.5319L35.9241 31.0672C36.0016 30.8238 35.5701 30.4697 35.5369 30.5472C35.5037 30.6246 35.2603 30.5693 35.2603 30.6357C35.2603 30.7132 35.1165 31.0783 35.1829 31.211C35.2603 31.3438 35.1275 31.3438 35.1054 31.4766C35.0833 31.5872 34.8952 31.8085 34.9394 31.9302ZM29.7616 27.9361L29.7063 27.8476L29.5514 27.9361L29.6177 28.0357L29.7616 27.9361ZM26.9514 28.3012C26.8629 28.3897 26.885 28.4672 26.9514 28.5336V28.3012ZM27.5267 28.7549L27.6484 28.5446L27.5488 28.5114L27.416 28.6L27.4714 28.6553L27.5267 28.7549ZM27.416 22.9242C27.4935 23.0902 27.4714 23.3336 27.748 23.5217C27.8365 23.588 27.6926 23.7097 27.6041 23.6544C27.5156 23.5991 27.2501 23.1897 27.2501 23.1897V22.9463C27.3054 22.8025 27.3829 22.8578 27.416 22.9242ZM26.4424 23.8978C26.4867 24.0638 26.4756 23.6323 26.5531 23.6544C26.6305 23.6766 26.5752 23.3889 26.5752 23.3889L26.2433 23.6323C26.3982 23.6544 26.4203 23.8204 26.4424 23.8978ZM25.4467 25.0927C25.4246 25.314 25.148 25.3914 25.148 25.3914L24.9488 25.3361L24.8382 25.2476L24.816 24.9821L24.982 24.96L25.0152 25.0706L25.4467 25.0927ZM25.148 22.8357V22.5702L25.1148 22.3268L24.8382 22.194L24.639 22.3821L24.6058 22.6476V22.8136L24.4177 22.8468L24.3846 23.3557L24.2407 23.411L24.2629 23.5991L23.8646 23.7097L23.8314 23.9532L23.6875 24.0417L23.6101 24.2629L23.5216 24.8051C23.5216 24.8051 23.6875 25.1259 23.776 24.971C23.8646 24.8272 24.0194 24.8051 24.0194 24.8051L24.0748 24.6723L24.5726 24.6944C24.6058 24.4842 24.8492 24.5617 24.8492 24.6612C24.8492 24.7497 25.0373 24.6834 25.0373 24.6834L25.1701 24.4732H25.3692L25.3914 24.2519L25.4799 24.1966V23.8646C25.7786 23.7761 25.7343 23.4885 25.7343 23.4885L25.8118 23.4L25.7786 23.2672C25.6348 23.2119 25.7012 23.0791 25.8007 23.1123C25.8892 23.1455 25.668 22.9463 25.668 22.9463C25.5573 23.0349 25.4688 22.8357 25.4688 22.8357H25.148ZM24.3071 22.0723L24.1633 22.1055L23.8314 22.4263L23.8092 22.5702L23.7207 22.7029L23.6101 22.9795L23.2229 23.0017L23.1454 23.3336L23.2007 23.6212L23.5326 23.754L23.5658 23.5659L23.6765 23.5106L23.6986 23.3225L23.776 23.1897L23.8867 23.057L23.9199 22.9132L24.108 22.8025L24.3292 22.7583L24.4177 22.6476L24.4509 22.4263L24.4731 22.2604L24.5505 22.1387L24.7718 22.0502V21.6961H24.6611L24.639 21.5634L24.4399 21.5412L24.3956 21.6408H24.3071L24.285 21.7846H24.3956L24.4177 21.9063L24.3403 21.9727L24.3071 22.0723ZM18.4654 24.3183C18.4654 24.3625 18.4322 24.3957 18.388 24.3957C18.3437 24.3957 18.3105 24.3625 18.3105 24.3183C18.3105 24.274 18.3437 24.2408 18.388 24.2408C18.4322 24.2408 18.4654 24.274 18.4654 24.3183ZM18.4543 26.4536C18.4543 26.4978 18.4211 26.531 18.3769 26.531C18.3326 26.531 18.2994 26.4978 18.2994 26.4536C18.2994 26.4093 18.3326 26.3761 18.3769 26.3761C18.4211 26.3761 18.4543 26.4093 18.4543 26.4536ZM18.2552 26.1438C18.2994 26.1438 18.3326 26.1106 18.3326 26.0663C18.3326 26.0221 18.2994 25.9889 18.2552 25.9889C18.2109 25.9889 18.1777 26.0221 18.1777 26.0663C18.1777 26.1106 18.2109 26.1438 18.2552 26.1438ZM18.0339 26.5863L17.879 26.6085V26.7412L18.0339 26.7191V26.5863ZM18.1999 25.6349L18.0671 25.657L18.056 25.8008L18.1999 25.8229V25.6349ZM18.1667 24.628L18.1777 24.4953L17.9011 24.6834L17.7241 24.5727V25.0153L18.0118 25.4136L18.1224 25.148L18.1667 24.9821L18.0339 24.9268L18.056 24.6502L18.1667 24.628ZM18.056 23.057L17.7241 23.0238L17.7463 23.1566H17.8348C17.9786 23.4221 17.8569 24.0527 17.8569 24.0527C17.8569 24.0527 17.6356 24.0749 17.6024 23.9642C17.5692 23.8536 17.4697 24.2076 17.5471 24.2629C17.6246 24.3183 17.879 24.2629 17.9011 24.4732C17.9233 24.6834 18.0671 24.3404 18.0671 24.3404L18.056 23.057ZM25.4688 19.3617H25.2697L25.2365 18.9523L25.3471 18.8749V18.6646H24.7054L24.6833 18.4544L24.7718 18.3991L24.628 18.3438L24.5173 18.4876L24.4841 18.6536L24.296 18.6868V18.7753H24.1633V19.0187L23.6433 19.4502L22.6143 19.417C22.5369 19.5829 22.3599 19.3949 22.3599 19.3949C22.3267 19.2842 22.0611 19.3949 22.0611 19.3949C22.0611 19.6051 21.7071 19.3063 21.7071 19.3063L21.0654 18.8417C20.7003 18.5097 20.1471 18.9302 20.125 19.0297C20.1471 19.2953 19.7046 19.0851 19.7046 19.0851C19.7046 19.0851 19.3394 18.9744 19.2841 19.1183C19.2288 19.2621 18.9854 19.2289 18.9854 19.2289L18.9522 19.3063L18.7641 19.3395L18.7309 19.4502L18.5097 19.4834L19.0629 19.4612C19.2067 19.4391 19.0075 19.7821 18.919 19.76L18.6646 19.7821L18.576 19.8706H18.3326L18.222 20.0255L17.868 20.0034C17.868 20.0034 17.6688 20.1693 17.6799 20.2246C17.702 20.28 17.6467 20.4459 17.5914 20.4459C17.536 20.4459 17.4254 20.6119 17.4586 20.6672C17.4918 20.7225 17.348 20.9106 17.348 20.9106L17.3148 21.0987L17.2041 21.1319V21.6408L16.9829 21.7957V22.017L16.6509 22.371L16.6841 22.6697L16.4075 22.9685L16.4407 23.2672L16.2748 23.3225L16.2416 23.4553L16.1641 23.8425L16.3522 23.8646C16.4407 23.8314 16.4297 24.108 16.3522 24.1412C16.2748 24.1744 16.0756 24.2519 16.1863 24.3293C16.2969 24.4068 15.8875 24.3846 15.8875 24.274C15.8875 24.1634 15.6663 24.0638 15.6109 24.108C15.5556 24.1412 15.4671 23.9421 15.4671 23.9421C15.268 23.7319 14.6373 23.9642 14.6373 23.9642L14.5488 24.2629C14.3497 24.2961 14.2169 24.6391 14.2169 24.6391C14.0509 24.6944 13.9182 24.9046 13.9735 24.96C14.0288 25.0153 13.885 25.0374 13.885 25.0374V25.4468L13.7965 25.5795L13.8186 26.0221C13.9292 26.0221 13.9071 26.2323 13.9071 26.2323C13.719 26.2544 13.7633 26.4978 13.7633 26.4978L13.376 26.6306L13.2986 26.7412L12.8229 26.7191L12.6901 26.8519L12.5573 26.7191H11.639L11.6058 26.6306L11.4177 26.5974L11.3956 26.3872L11.119 26.4093L11.0637 26.52L10.765 26.5421C10.7871 26.7302 10.4663 27.0068 10.4331 26.9293C10.3999 26.8519 10.1897 26.6527 10.2892 26.6085C10.3777 26.5753 10.6211 26.531 10.6211 26.531V26.3983L9.93519 26.3761L9.85774 26.4868L9.58115 26.5089V26.8076L9.44838 26.8408C9.35987 26.8961 9.47051 27.1063 9.47051 27.1063C9.60328 27.2391 9.44838 27.4383 9.44838 27.4383C9.33774 27.5489 9.53689 27.7591 9.53689 27.7591C9.68072 27.7923 9.44838 27.9029 9.44838 27.9029C9.48157 28.091 9.59221 28.1463 9.59221 28.1463C9.48157 28.3344 9.66966 28.4229 9.66966 28.4229L9.69179 28.7438L9.82455 28.8212V29.0314L9.902 29.1642H10.2007L10.1786 28.6995C9.92413 28.4008 10.3999 28.3234 10.422 28.434C10.4441 28.5446 10.6433 28.6 10.6433 28.6C10.6765 28.8766 10.9973 29.0425 11.0858 28.7659C11.1743 28.4893 11.2518 28.6553 11.3071 28.788C11.3624 28.9208 11.7165 29.2417 11.7165 29.2417H11.9931L12.0263 29.5072C12.336 29.4851 12.4356 29.5293 12.5573 29.9497C12.6901 30.3812 13.0331 30.4919 13.0331 30.4919L13.2875 30.4697C13.2875 30.2485 13.542 30.5029 13.542 30.6246C13.542 30.7353 14.0399 31.1668 14.0399 31.1668L14.5377 31.2774L15.0024 31.6536L15.3565 31.6204H15.5003C15.5888 31.2995 16.0314 31.6425 16.0756 31.7531C16.1088 31.8638 16.4075 32.0519 16.4407 31.9634C16.4739 31.8749 16.6841 31.9302 16.7173 32.2068C16.7505 32.4834 16.8833 32.428 16.8833 32.428L17.9343 32.4059L18.2994 32.0851L19.2399 32.0629C19.7156 32.0408 19.428 31.388 19.3284 31.388C19.1624 31.2553 19.3837 30.7132 19.3837 30.7132L18.045 29.4629C17.7352 29.4629 18.0118 29.0093 18.0118 29.0093C18.2552 28.8544 17.9565 28.6221 17.9565 28.6221C17.9897 28.4008 17.8237 28.1353 17.8237 28.1353C17.4918 27.914 17.5803 27.4825 17.5803 27.4825V27.1838C17.3037 26.9183 17.6909 26.8851 17.6909 26.8851C17.8237 26.6638 17.6024 26.4978 17.6024 26.4978L17.5803 26.2544L17.2816 26.2212L17.2484 25.3472L16.5846 24.3957C16.4518 24.3625 16.5514 24.1302 16.5514 24.1302C16.7173 24.0417 16.5182 23.8093 16.5182 23.8093L16.496 23.4L16.8833 23.3668L16.9718 23.2229H17.1599L17.1377 22.7361C17.2263 22.4927 17.4475 22.6255 17.4475 22.6255L17.702 22.6476L17.8458 22.371L17.879 22.1497L17.6799 22.1276C17.4586 21.9949 17.5692 21.508 17.5692 21.508C17.9233 20.988 18.3216 21.2868 18.3216 21.2868L18.576 21.2646C18.9633 21.5302 18.6092 22.0059 18.6092 22.0059C18.5318 22.1166 18.576 22.4706 18.576 22.4706L18.6646 23.068L18.4211 23.2783C18.222 23.3889 18.222 23.6544 18.4433 23.7097C18.5871 23.7319 18.5318 24.0859 18.3105 23.8425C17.9786 23.8425 18.4986 24.1412 18.3437 24.0638C18.6756 24.2297 18.5982 23.92 18.5982 23.92L19.0407 23.5659C19.2067 23.4332 19.5054 23.8425 19.5054 23.8978C19.5054 23.9532 20.2356 23.92 20.2356 23.92C20.4348 24.0527 20.5122 24.3846 20.5122 24.3846C20.7114 24.1191 21.1429 24.3625 20.822 24.5174C21.1207 24.7055 21.1207 24.8715 21.1207 24.8715C21.3641 24.794 21.3641 24.9821 21.3641 25.0374C21.3641 25.0927 21.4416 24.7608 21.4416 24.7608C21.165 24.5506 21.8067 24.4842 21.6297 24.8493L21.519 25.0153L21.7071 25.1591L21.7292 25.5906C22.1386 25.5574 22.028 25.0485 22.028 25.0485L22.216 25.0153C22.216 24.8493 22.3488 24.9378 22.3488 24.9378C22.216 24.3072 22.6475 24.1966 22.6475 24.1966C22.8909 24.1412 22.902 23.6323 22.902 23.6323C22.736 23.5549 22.8246 23.3004 23.0126 23.5217C23.2007 23.7429 22.902 23.068 22.902 23.068L22.7582 22.9353L22.559 22.9132L22.5369 22.7029H22.205L22.1497 22.9685L22.028 23.0238L21.9948 22.9463L21.9394 23.1566H21.6075L21.5854 22.9353L21.7846 22.88L21.862 22.7693L21.9173 22.4706H22.1607L22.4705 22.3821C22.4926 22.0612 22.6586 22.1387 22.6586 22.1387L22.9352 22.36L22.9573 22.4706L22.8467 22.5259L22.8246 22.6808L22.8799 22.891H23.0237C23.079 22.5923 23.4663 22.5923 23.5769 22.7804L23.6875 22.5149C23.4331 22.3821 23.6875 22.1829 23.7539 22.2715C23.8314 22.36 23.9973 22.028 23.9973 22.028C23.9973 22.028 24.1301 22.194 23.9973 21.9727C23.8646 21.7514 24.0858 21.6408 24.0858 21.6408C24.0526 21.4195 24.3292 21.4527 24.3292 21.4527L24.3514 21.154L24.0969 21.1319C24.0416 21.3974 23.8203 21.1651 23.9309 21.1097C24.0416 21.0544 24.1522 20.9438 24.1522 20.9438V20.7557L24.2629 20.7225L24.285 20.5344H24.5616L24.805 20.4238L24.8603 20.3353L25.1148 20.3132L25.4799 19.9812L25.4467 19.8374C25.2254 19.8374 25.4467 19.6715 25.4467 19.6715L25.4688 19.3617ZM15.4782 36.1455L15.3343 35.9242L15.5556 35.9574L15.788 36.1566L15.8875 36.4L15.7548 36.4774L15.6773 36.3668L15.5003 36.3114L15.4782 36.1455ZM11.4177 30.5472L11.5063 30.8017L11.639 30.9012L11.7607 31.1778L11.6943 31.3106L11.4841 31.1225L11.3403 30.9123L11.2629 30.7463L11.1411 30.4144L11.4177 30.5472ZM10.3114 29.5514H10.2229V29.7395H10.3667V29.9829H10.4773L10.4552 29.7063L10.3114 29.651V29.5514ZM24.7829 18.1778L24.8935 18.1557L24.9156 18.2663L24.805 18.2885L24.7829 18.1778ZM24.9156 18.1115L24.9488 18.0008L25.0926 18.0451L25.0705 18.1557L24.9156 18.1115ZM25.1811 18.0008L25.1922 17.8902L25.0705 17.868L25.0484 17.9787L25.1811 18.0008ZM25.3692 17.7574H25.5131V17.868H25.3692V17.7574ZM26.3097 17.8902L26.3207 17.7795L26.4535 17.7906L26.4314 17.9012L26.3097 17.8902ZM26.6748 17.9676L26.6858 17.857L26.5531 17.8349L26.542 17.9455L26.6748 17.9676ZM26.8075 17.9787H26.9514V18.0893H26.8075V17.9787ZM26.9735 18.1668V18.2995L27.0841 18.2885V18.1557L26.9735 18.1668Z" fill="#009EDC"/>
  <g opacity="0.4" filter="url(#filter0_f_0_1)">
    <circle cx="39" cy="39" r="13" fill="#009EDC"/>
  </g>
  <defs>
    <filter id="filter0_f_0_1" x="6" y="6" width="66" height="66" filterUnits="userSpaceOnUse" color-interpolation-filters="sRGB">
      <feFlood flood-opacity="0" result="BackgroundImageFix"/>
      <feBlend mode="normal" in="SourceGraphic" in2="BackgroundImageFix" result="shape"/>
      <feGaussianBlur stdDeviation="10" result="effect1_foregroundBlur_0_1"/>
    </filter>
  </defs>
</svg>
