<svg viewBox="0 0 52 53" fill="none" xmlns="http://www.w3.org/2000/svg">
  <g filter="url(#filter0_f_964_4913)">
    <circle cx="27" cy="28" r="10" fill="#9E77ED" fill-opacity="0.79"/>
  </g>
  <path d="M35.5589 7.63122L33.4339 6.56872L32.3714 4.44372C32.2578 4.21503 32.0768 4.02664 31.8528 3.9039C31.6289 3.78116 31.3727 3.72996 31.1188 3.75719C30.8649 3.78442 30.6254 3.88877 30.4325 4.05621C30.2397 4.22365 30.1028 4.44613 30.0402 4.69372L28.8752 9.35997L28.4302 9.80622C25.4689 7.30093 21.6538 6.0372 17.7824 6.27917C13.9111 6.52114 10.2831 8.2501 7.65676 11.1046C5.03043 13.9592 3.60908 17.7184 3.68978 21.5964C3.77049 25.4745 5.347 29.1713 8.08981 31.9141C10.8326 34.6569 14.5294 36.2334 18.4075 36.3141C22.2856 36.3948 26.0447 34.9735 28.8993 32.3472C31.7538 29.7208 33.4828 26.0928 33.7247 22.2215C33.9667 18.3501 32.703 14.5351 30.1977 11.5737L30.6427 11.1287L35.3064 9.96247C35.554 9.89989 35.7765 9.76296 35.944 9.57013C36.1114 9.37729 36.2158 9.1378 36.243 8.88388C36.2702 8.62995 36.219 8.37378 36.0963 8.14982C35.9735 7.92587 35.7851 7.74489 35.5564 7.63122H35.5589ZM31.2502 21.25C31.2547 24.0937 30.2911 26.8542 28.5178 29.0773C26.7444 31.3004 24.2672 32.8536 21.4936 33.4812C18.72 34.1089 15.8153 33.7736 13.2577 32.5306C10.7 31.2876 8.64167 29.2109 7.42143 26.6423C6.20119 24.0737 5.89174 21.1662 6.544 18.3983C7.19626 15.6304 8.77136 13.167 11.0101 11.4135C13.2489 9.66001 16.0179 8.72088 18.8614 8.75068C21.705 8.78049 24.4537 9.77744 26.6552 11.5775L23.0889 15.1437C21.5516 14.0497 19.6594 13.5732 17.7873 13.8088C15.9151 14.0443 14.1999 14.9747 12.9815 16.4155C11.7631 17.8563 11.1306 19.7022 11.2093 21.5875C11.288 23.4727 12.0722 25.2595 13.4064 26.5937C14.7406 27.928 16.5275 28.7122 18.4127 28.7909C20.2979 28.8696 22.1439 28.237 23.5847 27.0187C25.0255 25.8003 25.9558 24.085 26.1914 22.2129C26.427 20.3408 25.9505 18.4485 24.8564 16.9112L28.4227 13.345C30.253 15.5726 31.2525 18.3669 31.2502 21.25ZM23.7502 21.25C23.7502 22.2389 23.457 23.2056 22.9075 24.0278C22.3581 24.8501 21.5772 25.4909 20.6636 25.8694C19.75 26.2478 18.7446 26.3468 17.7747 26.1539C16.8048 25.961 15.9139 25.4848 15.2147 24.7855C14.5154 24.0862 14.0392 23.1953 13.8463 22.2254C13.6533 21.2555 13.7524 20.2502 14.1308 19.3366C14.5092 18.4229 15.1501 17.642 15.9723 17.0926C16.7946 16.5432 17.7613 16.25 18.7502 16.25C19.64 16.2543 20.512 16.4992 21.2739 16.9587L17.8664 20.3662C17.7471 20.4815 17.6518 20.6195 17.5863 20.772C17.5208 20.9245 17.4863 21.0885 17.4849 21.2545C17.4834 21.4204 17.5151 21.585 17.5779 21.7387C17.6408 21.8923 17.7336 22.0319 17.851 22.1492C17.9683 22.2666 18.1079 22.3594 18.2615 22.4223C18.4151 22.4851 18.5797 22.5167 18.7457 22.5153C18.9117 22.5138 19.0757 22.4794 19.2282 22.4138C19.3807 22.3483 19.5186 22.2531 19.6339 22.1337L23.0414 18.7262C23.5009 19.4882 23.7458 20.3602 23.7502 21.25Z" fill="#9E77ED"/>
  <defs>
    <filter id="filter0_f_964_4913" x="2.3" y="3.3" width="49.4" height="49.4" filterUnits="userSpaceOnUse" color-interpolation-filters="sRGB">
      <feFlood flood-opacity="0" result="BackgroundImageFix"/>
      <feBlend mode="normal" in="SourceGraphic" in2="BackgroundImageFix" result="shape"/>
      <feGaussianBlur stdDeviation="7.35" result="effect1_foregroundBlur_964_4913"/>
    </filter>
  </defs>
</svg>
