<svg width="72" height="72" viewBox="0 0 72 72" fill="none" xmlns="http://www.w3.org/2000/svg">
  <g clip-path="url(#clip0_0_1)">
    <mask id="path-1-inside-1_0_1" fill="white">
      <path d="M26.0001 12.7969C26.9803 12.796 27.9201 12.4062 28.6132 11.7131C29.3063 11.02 29.6961 10.0802 29.697 9.1V7.92472C29.697 6.94425 29.3075 6.00393 28.6142 5.31063C27.9209 4.61734 26.9806 4.22784 26.0001 4.22784C25.0196 4.22784 24.0793 4.61734 23.386 5.31063C22.6927 6.00393 22.3032 6.94425 22.3032 7.92472V9.1C22.3041 10.0802 22.6939 11.02 23.387 11.7131C24.0801 12.4062 25.0199 12.796 26.0001 12.7969ZM23.7251 7.92472C23.7251 7.32135 23.9648 6.7427 24.3914 6.31605C24.8181 5.88941 25.3967 5.64972 26.0001 5.64972C26.6035 5.64972 27.1821 5.88941 27.6088 6.31605C28.0354 6.7427 28.2751 7.32135 28.2751 7.92472V9.1C28.2751 9.70337 28.0354 10.282 27.6088 10.7087C27.1821 11.1353 26.6035 11.375 26.0001 11.375C25.3967 11.375 24.8181 11.1353 24.3914 10.7087C23.9648 10.282 23.7251 9.70337 23.7251 9.1V7.92472ZM12.4923 31.2447C11.5121 31.2455 10.5723 31.6353 9.87915 32.3284C9.18604 33.0215 8.79627 33.9614 8.79541 34.9416V36.1156C8.79541 37.0961 9.1849 38.0364 9.8782 38.7297C10.5715 39.423 11.5118 39.8125 12.4923 39.8125C13.4728 39.8125 14.4131 39.423 15.1064 38.7297C15.7997 38.0364 16.1892 37.0961 16.1892 36.1156V34.9403C16.188 33.9603 15.7981 33.0208 15.105 32.328C14.4119 31.6351 13.4723 31.2455 12.4923 31.2447ZM14.7673 36.1164C14.7673 36.7198 14.5276 37.2985 14.101 37.7251C13.6743 38.1518 13.0957 38.3914 12.4923 38.3914C11.8889 38.3914 11.3103 38.1518 10.8836 37.7251C10.457 37.2985 10.2173 36.7198 10.2173 36.1164V34.9403C10.2173 34.337 10.457 33.7583 10.8836 33.3317C11.3103 32.905 11.8889 32.6653 12.4923 32.6653C13.0957 32.6653 13.6743 32.905 14.101 33.3317C14.5276 33.7583 14.7673 34.337 14.7673 34.9403V36.1164Z"/>
    </mask>
    <path d="M26.0001 12.7969L25.9983 14.7969L26.0019 14.7969L26.0001 12.7969ZM29.697 9.1L31.697 9.10176V9.1H29.697ZM29.697 7.92472H31.697H29.697ZM26.0001 4.22784V2.22784V4.22784ZM22.3032 9.1H20.3032L20.3032 9.10176L22.3032 9.1ZM23.7251 7.92472H21.7251H23.7251ZM28.2751 7.92472H30.2751H28.2751ZM28.2751 9.1H30.2751H28.2751ZM12.4923 31.2447L12.494 29.2447L12.4905 29.2447L12.4923 31.2447ZM8.79541 34.9416L6.79541 34.9398V34.9416H8.79541ZM8.79541 36.1156H6.79541H8.79541ZM16.1892 36.1156H18.1892H16.1892ZM16.1892 34.9403H18.1892L18.1892 34.9379L16.1892 34.9403ZM10.2173 36.1164H8.21729H10.2173ZM10.2173 34.9403H12.2173H10.2173ZM14.7673 34.9403H16.7673H14.7673ZM26.0019 14.7969C27.5119 14.7955 28.9597 14.1951 30.0274 13.1273L27.199 10.2989C26.8806 10.6174 26.4487 10.7965 25.9983 10.7969L26.0019 14.7969ZM30.0274 13.1273C31.0952 12.0596 31.6956 10.6118 31.697 9.10176L27.697 9.09824C27.6966 9.54863 27.5175 9.98045 27.199 10.2989L30.0274 13.1273ZM31.697 9.1V7.92472H27.697V9.1H31.697ZM31.697 7.92472C31.697 6.41381 31.0968 4.96479 30.0284 3.89642L27.2 6.72485C27.5182 7.04307 27.697 7.47468 27.697 7.92472H31.697ZM30.0284 3.89642C28.96 2.82805 27.511 2.22784 26.0001 2.22784V6.22784C26.4501 6.22784 26.8817 6.40662 27.2 6.72485L30.0284 3.89642ZM26.0001 2.22784C24.4892 2.22784 23.0402 2.82805 21.9718 3.89642L24.8002 6.72485C25.1185 6.40662 25.5501 6.22784 26.0001 6.22784V2.22784ZM21.9718 3.89642C20.9034 4.96479 20.3032 6.41381 20.3032 7.92472H24.3032C24.3032 7.47468 24.482 7.04307 24.8002 6.72485L21.9718 3.89642ZM20.3032 7.92472V9.1H24.3032V7.92472H20.3032ZM20.3032 9.10176C20.3045 10.6118 20.905 12.0596 21.9728 13.1273L24.8012 10.2989C24.4827 9.98045 24.3036 9.54863 24.3032 9.09824L20.3032 9.10176ZM21.9728 13.1273C23.0405 14.1951 24.4883 14.7955 25.9983 14.7969L26.0019 10.7969C25.5515 10.7965 25.1196 10.6174 24.8012 10.2989L21.9728 13.1273ZM25.7251 7.92472C25.7251 7.85179 25.7541 7.78184 25.8056 7.73026L22.9772 4.90184C22.1755 5.70355 21.7251 6.79092 21.7251 7.92472H25.7251ZM25.8056 7.73026C25.8572 7.67869 25.9272 7.64972 26.0001 7.64972V3.64972C24.8663 3.64972 23.7789 4.10012 22.9772 4.90184L25.8056 7.73026ZM26.0001 7.64972C26.073 7.64972 26.143 7.67869 26.1946 7.73026L29.023 4.90184C28.2213 4.10012 27.1339 3.64972 26.0001 3.64972V7.64972ZM26.1946 7.73026C26.2461 7.78183 26.2751 7.85178 26.2751 7.92472H30.2751C30.2751 6.79092 29.8247 5.70356 29.023 4.90184L26.1946 7.73026ZM26.2751 7.92472V9.1H30.2751V7.92472H26.2751ZM26.2751 9.1C26.2751 9.17294 26.2461 9.24289 26.1946 9.29445L29.023 12.1229C29.8247 11.3212 30.2751 10.2338 30.2751 9.1H26.2751ZM26.1946 9.29445C26.143 9.34603 26.073 9.375 26.0001 9.375V13.375C27.1339 13.375 28.2213 12.9246 29.023 12.1229L26.1946 9.29445ZM26.0001 9.375C25.9272 9.375 25.8572 9.34603 25.8056 9.29445L22.9772 12.1229C23.7789 12.9246 24.8663 13.375 26.0001 13.375V9.375ZM25.8056 9.29445C25.7541 9.24288 25.7251 9.17293 25.7251 9.1H21.7251C21.7251 10.2338 22.1755 11.3212 22.9772 12.1229L25.8056 9.29445ZM25.7251 9.1V7.92472H21.7251V9.1H25.7251ZM12.4905 29.2447C10.9805 29.246 9.53269 29.8465 8.46494 30.9142L11.2934 33.7426C11.6118 33.4242 12.0437 33.2451 12.494 33.2447L12.4905 29.2447ZM8.46494 30.9142C7.39718 31.982 6.79674 33.4298 6.79541 34.9398L10.7954 34.9433C10.7958 34.4929 10.9749 34.0611 11.2934 33.7426L8.46494 30.9142ZM6.79541 34.9416V36.1156H10.7954V34.9416H6.79541ZM6.79541 36.1156C6.79541 37.6265 7.39562 39.0756 8.46399 40.1439L11.2924 37.3155C10.9742 36.9973 10.7954 36.5657 10.7954 36.1156H6.79541ZM8.46399 40.1439C9.53236 41.2123 10.9814 41.8125 12.4923 41.8125V37.8125C12.0422 37.8125 11.6106 37.6337 11.2924 37.3155L8.46399 40.1439ZM12.4923 41.8125C14.0032 41.8125 15.4522 41.2123 16.5206 40.1439L13.6922 37.3155C13.3739 37.6337 12.9423 37.8125 12.4923 37.8125V41.8125ZM16.5206 40.1439C17.589 39.0756 18.1892 37.6265 18.1892 36.1156H14.1892C14.1892 36.5657 14.0104 36.9973 13.6922 37.3155L16.5206 40.1439ZM18.1892 36.1156V34.9403H14.1892V36.1156H18.1892ZM18.1892 34.9379C18.1873 33.4282 17.5867 31.9809 16.519 30.9135L13.691 33.7424C14.0095 34.0608 14.1886 34.4925 14.1892 34.9428L18.1892 34.9379ZM16.519 30.9135C15.4513 29.8462 14.0037 29.246 12.494 29.2447L12.4905 33.2447C12.9408 33.2451 13.3726 33.4241 13.691 33.7424L16.519 30.9135ZM12.7673 36.1164C12.7673 36.1894 12.7383 36.2593 12.6867 36.3109L15.5152 39.1393C16.3169 38.3376 16.7673 37.2502 16.7673 36.1164H12.7673ZM12.6867 36.3109C12.6352 36.3625 12.5652 36.3914 12.4923 36.3914V40.3914C13.6261 40.3914 14.7134 39.941 15.5152 39.1393L12.6867 36.3109ZM12.4923 36.3914C12.4193 36.3914 12.3494 36.3625 12.2978 36.3109L9.4694 39.1393C10.2711 39.941 11.3585 40.3914 12.4923 40.3914V36.3914ZM12.2978 36.3109C12.2463 36.2593 12.2173 36.1894 12.2173 36.1164H8.21729C8.21729 37.2502 8.66768 38.3376 9.4694 39.1393L12.2978 36.3109ZM12.2173 36.1164V34.9403H8.21729V36.1164H12.2173ZM12.2173 34.9403C12.2173 34.8674 12.2463 34.7975 12.2978 34.7459L9.4694 31.9175C8.66768 32.7192 8.21729 33.8065 8.21729 34.9403H12.2173ZM12.2978 34.7459C12.3494 34.6943 12.4194 34.6653 12.4923 34.6653V30.6653C11.3585 30.6653 10.2711 31.1157 9.4694 31.9175L12.2978 34.7459ZM12.4923 34.6653C12.5652 34.6653 12.6352 34.6943 12.6867 34.7459L15.5152 31.9175C14.7135 31.1157 13.6261 30.6653 12.4923 30.6653V34.6653ZM12.6867 34.7459C12.7383 34.7975 12.7673 34.8674 12.7673 34.9403H16.7673C16.7673 33.8065 16.3169 32.7192 15.5152 31.9175L12.6867 34.7459ZM12.7673 34.9403V36.1164H16.7673V34.9403H12.7673Z" fill="#479353" mask="url(#path-1-inside-1_0_1)"/>
    <path d="M44.3664 27.9979C44.4412 27.3345 44.4805 26.6676 44.4842 26C44.4825 23.4384 43.9487 20.9051 42.9168 18.5606C41.8848 16.2161 40.3771 14.1114 38.4892 12.3801C38.4626 9.08514 37.1351 5.93421 34.7958 3.61368C32.4564 1.29315 29.2949 -0.00894165 25.9999 -0.00894165C22.7048 -0.00894165 19.5433 1.29315 17.204 3.61368C14.8646 5.93421 13.5371 9.08514 13.5105 12.3801C11.6227 14.1115 10.1151 16.2161 9.0831 18.5606C8.05113 20.9052 7.51732 23.4384 7.51548 26C7.51915 26.668 7.55848 27.3354 7.6333 27.9992C5.74733 28.7954 4.08595 30.043 2.79532 31.6321C1.5047 33.2211 0.624379 35.1031 0.231823 37.1122C-0.160734 39.1214 -0.0535003 41.1963 0.54409 43.1543C1.14168 45.1123 2.21131 46.8934 3.65888 48.341C5.10644 49.7886 6.88758 50.8582 8.84559 51.4558C10.8036 52.0534 12.8785 52.1606 14.8876 51.7681C16.8968 51.3755 18.7787 50.4952 20.3678 49.2046C21.9569 47.9139 23.2044 46.2525 24.0007 44.3666C25.3288 44.5236 26.6709 44.5236 27.999 44.3666C28.7955 46.2524 30.0432 47.9135 31.6323 49.2039C33.2214 50.4943 35.1034 51.3744 37.1125 51.7668C39.1216 52.1591 41.1963 52.0518 43.1542 51.4541C45.1121 50.8564 46.8931 49.7867 48.3405 48.3392C49.788 46.8916 50.8575 45.1105 51.4551 43.1526C52.0526 41.1947 52.1598 39.1199 51.7673 37.1109C51.3748 35.1018 50.4945 33.2199 49.204 31.6309C47.9135 30.0418 46.2523 28.7943 44.3664 27.9979ZM25.9999 1.42188C28.1023 1.42083 30.1616 2.01888 31.9365 3.14597C33.7113 4.27307 35.1283 5.88255 36.0214 7.78592C36.9145 9.68929 37.2468 11.8077 36.9793 13.8931C36.7119 15.9785 35.8557 17.9446 34.5112 19.5609C34.2119 18.2954 33.4948 17.1677 32.4756 16.36C31.4565 15.5523 30.1948 15.1116 28.8944 15.1093H23.1053C21.8049 15.1116 20.5432 15.5522 19.524 16.3599C18.5049 17.1677 17.7877 18.2954 17.4885 19.5609C16.144 17.9446 15.2879 15.9785 15.0204 13.8931C14.7529 11.8077 15.0852 9.68929 15.9783 7.78592C16.8714 5.88255 18.2884 4.27307 20.0633 3.14597C21.8381 2.01888 23.8974 1.42083 25.9999 1.42188ZM33.247 20.8488C31.2377 22.5978 28.6637 23.5613 25.9999 23.5613C23.336 23.5613 20.762 22.5978 18.7528 20.8488C18.7636 19.701 19.2267 18.6037 20.0416 17.7954C20.8566 16.987 21.9575 16.5327 23.1053 16.5311H28.8944C30.0422 16.5327 31.1432 16.987 31.9581 17.7954C32.773 18.6037 33.2361 19.701 33.247 20.8488ZM5.24495 47.8644C5.25576 46.7166 5.7189 45.6194 6.53383 44.811C7.34875 44.0026 8.44966 43.5483 9.59752 43.5468H15.3866C16.5344 43.5483 17.6353 44.0026 18.4503 44.811C19.2652 45.6194 19.7283 46.7166 19.7391 47.8644C17.7299 49.6135 15.1559 50.5769 12.492 50.5769C9.82817 50.5769 7.25417 49.6135 5.24495 47.8644ZM21.0034 46.5762C20.704 45.3107 19.9869 44.1831 18.9677 43.3755C17.9486 42.5678 16.6869 42.1272 15.3866 42.1249H9.59752C8.2972 42.1273 7.03563 42.5678 6.01656 43.3755C4.99749 44.1832 4.2804 45.3108 3.98111 46.5762C2.63613 44.9592 1.77962 42.9925 1.51183 40.9064C1.24404 38.8203 1.57607 36.7011 2.46904 34.7968C3.36201 32.8925 4.77897 31.2821 6.55403 30.1539C8.3291 29.0258 10.3888 28.4266 12.492 28.4266C14.5953 28.4266 16.655 29.0258 18.4301 30.1539C20.2051 31.2821 21.6221 32.8925 22.5151 34.7968C23.408 36.7011 23.74 38.8203 23.4723 40.9064C23.2045 42.9925 22.3484 44.9592 21.0034 46.5762ZM24.4874 42.9865C25.112 40.8389 25.1483 38.5629 24.5924 36.3964C24.0365 34.23 22.9088 32.2526 21.3272 30.6711C19.7456 29.0896 17.7683 27.962 15.6018 27.4061C13.4353 26.8502 11.1593 26.8866 9.0117 27.5113C8.96503 27.0088 8.94022 26.5046 8.93736 26C8.9405 21.6268 10.6216 17.4215 13.634 14.2513C14.0574 17.2294 15.5413 19.9547 17.813 21.9264C20.0848 23.898 22.9918 24.9836 25.9999 24.9836C29.0079 24.9836 31.9149 23.898 34.1867 21.9264C36.4585 19.9547 37.9424 17.2294 38.3657 14.2513C41.3778 17.4217 43.0589 21.6269 43.0624 26C43.0624 26.5046 43.0319 27.0099 42.988 27.5125C40.8404 26.8878 38.5644 26.8515 36.3979 27.4073C34.2314 27.9632 32.2541 29.0908 30.6725 30.6723C29.0909 32.2539 27.9633 34.2312 27.4073 36.3977C26.8514 38.5641 26.8877 40.8401 27.5123 42.9878C26.5059 43.0751 25.4938 43.0747 24.4874 42.9865ZM32.2606 47.8644C32.2714 46.7166 32.7345 45.6194 33.5494 44.811C34.3644 44.0026 35.4653 43.5483 36.6131 43.5468H42.4022C43.5501 43.5483 44.651 44.0026 45.4659 44.811C46.2808 45.6194 46.744 46.7166 46.7548 47.8644C44.7455 49.6135 42.1715 50.5769 39.5077 50.5769C36.8438 50.5769 34.2698 49.6135 32.2606 47.8644ZM48.019 46.5762C47.7196 45.3107 47.0025 44.1831 45.9833 43.3755C44.9642 42.5678 43.7026 42.1272 42.4022 42.1249H36.6131C35.3128 42.1273 34.0513 42.5678 33.0322 43.3755C32.0131 44.1832 31.296 45.3108 30.9967 46.5762C29.6518 44.9592 28.7952 42.9925 28.5275 40.9064C28.2597 38.8203 28.5917 36.7011 29.4847 34.7968C30.3776 32.8925 31.7946 31.2821 33.5697 30.1539C35.3447 29.0258 37.4044 28.4266 39.5077 28.4266C41.6109 28.4266 43.6706 29.0258 45.4457 30.1539C47.2207 31.2821 48.6377 32.8925 49.5307 34.7968C50.4236 36.7011 50.7557 38.8203 50.4879 40.9064C50.2201 42.9925 49.364 44.9592 48.019 46.5762Z" fill="#479353"/>
    <path d="M39.5079 31.2447C38.5277 31.2456 37.5879 31.6353 36.8948 32.3284C36.2017 33.0215 35.8119 33.9614 35.811 34.9416V36.1156C35.811 37.0961 36.2005 38.0364 36.8938 38.7297C37.5871 39.423 38.5274 39.8125 39.5079 39.8125C40.4884 39.8125 41.4287 39.423 42.122 38.7297C42.8153 38.0364 43.2048 37.0961 43.2048 36.1156V34.9403C43.2036 33.9603 42.8137 33.0208 42.1206 32.328C41.4275 31.6351 40.4879 31.2456 39.5079 31.2447ZM41.7829 36.1164C41.7829 36.7198 41.5432 37.2985 41.1166 37.7251C40.6899 38.1518 40.1113 38.3914 39.5079 38.3914C38.9045 38.3914 38.3259 38.1518 37.8992 37.7251C37.4726 37.2985 37.2329 36.7198 37.2329 36.1164V34.9403C37.2329 34.337 37.4726 33.7583 37.8992 33.3317C38.3259 32.905 38.9045 32.6653 39.5079 32.6653C40.1113 32.6653 40.6899 32.905 41.1166 33.3317C41.5432 33.7583 41.7829 34.337 41.7829 34.9403V36.1164Z" fill="#479353"/>
  </g>
  <g opacity="0.4" filter="url(#filter0_f_0_1)">
    <circle cx="39" cy="39" r="13" fill="#479353"/>
  </g>
  <defs>
    <filter id="filter0_f_0_1" x="6" y="6" width="66" height="66" filterUnits="userSpaceOnUse" color-interpolation-filters="sRGB">
      <feFlood flood-opacity="0" result="BackgroundImageFix"/>
      <feBlend mode="normal" in="SourceGraphic" in2="BackgroundImageFix" result="shape"/>
      <feGaussianBlur stdDeviation="10" result="effect1_foregroundBlur_0_1"/>
    </filter>
    <clipPath id="clip0_0_1">
      <rect width="52" height="52" fill="white"/>
    </clipPath>
  </defs>
</svg>
