<svg width="72" height="72" viewBox="0 0 72 72" fill="none" xmlns="http://www.w3.org/2000/svg">
<g clip-path="url(#clip0_3001_5397)">
<mask id="path-1-inside-1_3001_5397" fill="white">
<path d="M26 0.8125C25.7845 0.8125 25.5778 0.898102 25.4255 1.05048C25.2731 1.20285 25.1875 1.40951 25.1875 1.625V4.08281C19.6578 4.29436 14.4117 6.58579 10.4988 10.4988C6.58579 14.4117 4.29436 19.6578 4.08281 25.1875H1.625C1.40951 25.1875 1.20285 25.2731 1.05048 25.4255C0.898102 25.5778 0.8125 25.7845 0.8125 26C0.8125 30.9816 2.28972 35.8514 5.05736 39.9934C7.825 44.1355 11.7587 47.3638 16.3612 49.2702C20.9636 51.1766 26.0279 51.6754 30.9138 50.7035C35.7997 49.7317 40.2877 47.3328 43.8103 43.8103C47.3328 40.2877 49.7317 35.7997 50.7035 30.9138C51.6754 26.0279 51.1766 20.9636 49.2702 16.3612C47.3638 11.7587 44.1355 7.825 39.9934 5.05736C35.8514 2.28972 30.9816 0.8125 26 0.8125ZM26.8125 2.45131C32.7746 2.66445 38.4346 5.12829 42.6532 9.34683C46.8717 13.5654 49.3355 19.2254 49.5487 25.1875H26.8125V2.45131ZM21.9375 45.9062C21.3906 45.7928 20.8485 45.6573 20.3125 45.5V39.8125H21.9375V45.9062ZM25.1875 46.2946C24.6443 46.2725 24.1022 46.2289 23.5625 46.1638V33.3125H25.1875V46.2946ZM26.8125 36.5625H28.4375V46.1614C27.9021 46.2256 27.3601 46.2702 26.8125 46.2922V36.5625ZM30.0625 39.8125H31.6875V45.5C31.1537 45.656 30.6134 45.7957 30.0625 45.9062V39.8125ZM32.5 38.1875H30.0625V35.75C30.0625 35.5345 29.9769 35.3278 29.8245 35.1755C29.6722 35.0231 29.4655 34.9375 29.25 34.9375H26.8125V32.5C26.8125 32.2845 26.7269 32.0778 26.5745 31.9255C26.4222 31.7731 26.2155 31.6875 26 31.6875H22.75C22.5345 31.6875 22.3278 31.7731 22.1755 31.9255C22.0231 32.0778 21.9375 32.2845 21.9375 32.5V38.1875H19.5C19.2845 38.1875 19.0778 38.2731 18.9255 38.4255C18.7731 38.5778 18.6875 38.7845 18.6875 39V44.9451C16.3015 44.0201 14.1112 42.6537 12.2314 40.9175L26 27.1489L39.7686 40.9175C37.8888 42.6537 35.6985 44.0201 33.3125 44.9451V39C33.3125 38.7845 33.2269 38.5778 33.0745 38.4255C32.9222 38.2731 32.7155 38.1875 32.5 38.1875ZM40.9175 39.7686L27.9614 26.8125H46.2922C46.1025 31.6339 44.1964 36.2288 40.9175 39.7686ZM25.1875 5.70781V25.6636L11.0825 39.7686C8.44887 36.9208 6.68647 33.3778 6.00401 29.5594C5.32154 25.7409 5.74758 21.8069 7.23169 18.223C8.7158 14.6392 11.1958 11.5557 14.3781 9.33768C17.5603 7.11964 21.3115 5.85997 25.1875 5.70781ZM26 49.5625C19.8937 49.5552 14.028 47.1806 9.63637 42.9379C5.24471 38.6952 2.66918 32.9149 2.45131 26.8125H4.08281C4.29014 32.4867 6.69002 37.8594 10.7776 41.8004C14.8652 45.7414 20.322 47.9435 26 47.9435C31.678 47.9435 37.1348 45.7414 41.2224 41.8004C45.31 37.8594 47.7099 32.4867 47.9172 26.8125H49.5422C49.3254 32.9142 46.7511 38.694 42.3606 42.9368C37.9701 47.1795 32.1055 49.5546 26 49.5625Z"/>
</mask>
<path d="M26 0.8125C25.7845 0.8125 25.5778 0.898102 25.4255 1.05048C25.2731 1.20285 25.1875 1.40951 25.1875 1.625V4.08281C19.6578 4.29436 14.4117 6.58579 10.4988 10.4988C6.58579 14.4117 4.29436 19.6578 4.08281 25.1875H1.625C1.40951 25.1875 1.20285 25.2731 1.05048 25.4255C0.898102 25.5778 0.8125 25.7845 0.8125 26C0.8125 30.9816 2.28972 35.8514 5.05736 39.9934C7.825 44.1355 11.7587 47.3638 16.3612 49.2702C20.9636 51.1766 26.0279 51.6754 30.9138 50.7035C35.7997 49.7317 40.2877 47.3328 43.8103 43.8103C47.3328 40.2877 49.7317 35.7997 50.7035 30.9138C51.6754 26.0279 51.1766 20.9636 49.2702 16.3612C47.3638 11.7587 44.1355 7.825 39.9934 5.05736C35.8514 2.28972 30.9816 0.8125 26 0.8125ZM26.8125 2.45131C32.7746 2.66445 38.4346 5.12829 42.6532 9.34683C46.8717 13.5654 49.3355 19.2254 49.5487 25.1875H26.8125V2.45131ZM21.9375 45.9062C21.3906 45.7928 20.8485 45.6573 20.3125 45.5V39.8125H21.9375V45.9062ZM25.1875 46.2946C24.6443 46.2725 24.1022 46.2289 23.5625 46.1638V33.3125H25.1875V46.2946ZM26.8125 36.5625H28.4375V46.1614C27.9021 46.2256 27.3601 46.2702 26.8125 46.2922V36.5625ZM30.0625 39.8125H31.6875V45.5C31.1537 45.656 30.6134 45.7957 30.0625 45.9062V39.8125ZM32.5 38.1875H30.0625V35.75C30.0625 35.5345 29.9769 35.3278 29.8245 35.1755C29.6722 35.0231 29.4655 34.9375 29.25 34.9375H26.8125V32.5C26.8125 32.2845 26.7269 32.0778 26.5745 31.9255C26.4222 31.7731 26.2155 31.6875 26 31.6875H22.75C22.5345 31.6875 22.3278 31.7731 22.1755 31.9255C22.0231 32.0778 21.9375 32.2845 21.9375 32.5V38.1875H19.5C19.2845 38.1875 19.0778 38.2731 18.9255 38.4255C18.7731 38.5778 18.6875 38.7845 18.6875 39V44.9451C16.3015 44.0201 14.1112 42.6537 12.2314 40.9175L26 27.1489L39.7686 40.9175C37.8888 42.6537 35.6985 44.0201 33.3125 44.9451V39C33.3125 38.7845 33.2269 38.5778 33.0745 38.4255C32.9222 38.2731 32.7155 38.1875 32.5 38.1875ZM40.9175 39.7686L27.9614 26.8125H46.2922C46.1025 31.6339 44.1964 36.2288 40.9175 39.7686ZM25.1875 5.70781V25.6636L11.0825 39.7686C8.44887 36.9208 6.68647 33.3778 6.00401 29.5594C5.32154 25.7409 5.74758 21.8069 7.23169 18.223C8.7158 14.6392 11.1958 11.5557 14.3781 9.33768C17.5603 7.11964 21.3115 5.85997 25.1875 5.70781ZM26 49.5625C19.8937 49.5552 14.028 47.1806 9.63637 42.9379C5.24471 38.6952 2.66918 32.9149 2.45131 26.8125H4.08281C4.29014 32.4867 6.69002 37.8594 10.7776 41.8004C14.8652 45.7414 20.322 47.9435 26 47.9435C31.678 47.9435 37.1348 45.7414 41.2224 41.8004C45.31 37.8594 47.7099 32.4867 47.9172 26.8125H49.5422C49.3254 32.9142 46.7511 38.694 42.3606 42.9368C37.9701 47.1795 32.1055 49.5546 26 49.5625Z" fill="#F79009"/>
<path d="M25.1875 4.08281L25.4933 12.077L33.1875 11.7826V4.08281H25.1875ZM4.08281 25.1875V33.1875H11.7826L12.077 25.4933L4.08281 25.1875ZM0.8125 26L-7.1875 26L0.8125 26ZM26.8125 2.45131L27.0983 -5.54358L18.8125 -5.83979V2.45131H26.8125ZM49.5487 25.1875V33.1875H57.8398L57.5436 24.9017L49.5487 25.1875ZM26.8125 25.1875H18.8125V33.1875H26.8125V25.1875ZM21.9375 45.9062L20.3123 53.7394L29.9375 55.7364V45.9062H21.9375ZM20.3125 45.5H12.3125V51.4901L18.0603 53.1764L20.3125 45.5ZM20.3125 39.8125V31.8125H12.3125V39.8125H20.3125ZM21.9375 39.8125H29.9375V31.8125H21.9375V39.8125ZM25.1875 46.2946L24.8621 54.288L33.1875 54.6269V46.2946H25.1875ZM23.5625 46.1638H15.5625V53.2573L22.605 54.1063L23.5625 46.1638ZM23.5625 33.3125V25.3125H15.5625V33.3125H23.5625ZM25.1875 33.3125H33.1875V25.3125H25.1875V33.3125ZM26.8125 36.5625V28.5625H18.8125V36.5625H26.8125ZM28.4375 36.5625H36.4375V28.5625H28.4375V36.5625ZM28.4375 46.1614L29.3897 54.1045L36.4375 53.2596V46.1614H28.4375ZM26.8125 46.2922H18.8125V54.6191L27.1327 54.2858L26.8125 46.2922ZM30.0625 39.8125V31.8125H22.0625V39.8125H30.0625ZM31.6875 39.8125H39.6875V31.8125H31.6875V39.8125ZM31.6875 45.5L33.9315 53.1788L39.6875 51.4967V45.5H31.6875ZM30.0625 45.9062H22.0625V55.6703L31.6359 53.75L30.0625 45.9062ZM30.0625 38.1875H22.0625V46.1875H30.0625V38.1875ZM26.8125 34.9375H18.8125V42.9375H26.8125V34.9375ZM21.9375 38.1875V46.1875H29.9375V38.1875H21.9375ZM18.6875 44.9451L15.7959 52.4042L26.6875 56.6264V44.9451H18.6875ZM12.2314 40.9175L6.57452 35.2606L0.688542 41.1466L6.80346 46.7944L12.2314 40.9175ZM26 27.1489L31.6569 21.492L26 15.8352L20.3431 21.492L26 27.1489ZM39.7686 40.9175L45.1965 46.7944L51.3115 41.1466L45.4255 35.2606L39.7686 40.9175ZM33.3125 44.9451H25.3125V56.6264L36.2041 52.4042L33.3125 44.9451ZM40.9175 39.7686L35.2606 45.4255L41.1381 51.3029L46.7865 45.205L40.9175 39.7686ZM27.9614 26.8125V18.8125H8.64767L22.3045 32.4694L27.9614 26.8125ZM46.2922 26.8125L54.286 27.1269L54.613 18.8125H46.2922V26.8125ZM25.1875 5.70781H33.1875V-2.6124L24.8737 -2.28603L25.1875 5.70781ZM25.1875 25.6636L30.8444 31.3205L33.1875 28.9773V25.6636H25.1875ZM11.0825 39.7686L5.20904 45.2002L10.8571 51.3077L16.7394 45.4255L11.0825 39.7686ZM26 49.5625L25.9905 57.5625L26.0004 57.5625L26.0104 57.5625L26 49.5625ZM2.45131 26.8125V18.8125H-5.8394L-5.54359 27.0979L2.45131 26.8125ZM4.08281 26.8125L12.0775 26.5204L11.7958 18.8125H4.08281V26.8125ZM26 47.9435L26 55.9435L26 47.9435ZM47.9172 26.8125V18.8125H40.2042L39.9225 26.5204L47.9172 26.8125ZM49.5422 26.8125L57.5371 27.0966L57.8315 18.8125H49.5422V26.8125ZM26 -7.1875C23.6628 -7.1875 21.4213 -6.25905 19.7686 -4.60638L31.0823 6.70733C29.7344 8.05525 27.9062 8.8125 26 8.8125L26 -7.1875ZM19.7686 -4.60638C18.1159 -2.9537 17.1875 -0.712204 17.1875 1.625H33.1875C33.1875 3.53123 32.4303 5.3594 31.0823 6.70733L19.7686 -4.60638ZM17.1875 1.625V4.08281H33.1875V1.625H17.1875ZM24.8817 -3.91134C17.3375 -3.62272 10.1804 -0.496538 4.84191 4.84191L16.1556 16.1556C18.6431 13.6681 21.978 12.2114 25.4933 12.077L24.8817 -3.91134ZM4.84191 4.84191C-0.496538 10.1804 -3.62272 17.3375 -3.91134 24.8817L12.077 25.4933C12.2114 21.978 13.6681 18.6431 16.1556 16.1556L4.84191 4.84191ZM4.08281 17.1875H1.625V33.1875H4.08281V17.1875ZM1.625 17.1875C-0.712204 17.1875 -2.9537 18.1159 -4.60638 19.7686L6.70733 31.0823C5.3594 32.4303 3.53123 33.1875 1.625 33.1875V17.1875ZM-4.60638 19.7686C-6.25905 21.4213 -7.1875 23.6628 -7.1875 26L8.8125 26C8.8125 27.9062 8.05525 29.7344 6.70733 31.0823L-4.60638 19.7686ZM-7.1875 26C-7.1875 32.5639 -5.24109 38.9803 -1.5944 44.438L11.7091 35.5489C9.82053 32.7224 8.8125 29.3994 8.8125 26L-7.1875 26ZM-1.5944 44.438C2.05229 49.8956 7.23547 54.1494 13.2997 56.6613L19.4226 41.8792C16.282 40.5783 13.5977 38.3753 11.7091 35.5489L-1.5944 44.438ZM13.2997 56.6613C19.3639 59.1731 26.0368 59.8304 32.4746 58.5498L29.3531 42.8572C26.0191 43.5204 22.5632 43.1801 19.4226 41.8792L13.2997 56.6613ZM32.4746 58.5498C38.9123 57.2693 44.8257 54.1085 49.4671 49.4671L38.1534 38.1534C35.7497 40.5571 32.6872 42.1941 29.3531 42.8572L32.4746 58.5498ZM49.4671 49.4671C54.1085 44.8257 57.2693 38.9123 58.5498 32.4746L42.8572 29.3531C42.1941 32.6872 40.5571 35.7497 38.1534 38.1534L49.4671 49.4671ZM58.5498 32.4746C59.8304 26.0368 59.1731 19.3639 56.6613 13.2997L41.8792 19.4226C43.1801 22.5632 43.5204 26.0191 42.8572 29.3531L58.5498 32.4746ZM56.6613 13.2997C54.1494 7.23547 49.8956 2.05229 44.438 -1.5944L35.5489 11.7091C38.3753 13.5977 40.5783 16.282 41.8792 19.4226L56.6613 13.2997ZM44.438 -1.5944C38.9803 -5.24109 32.5639 -7.1875 26 -7.1875L26 8.8125C29.3994 8.8125 32.7224 9.82053 35.5489 11.7091L44.438 -1.5944ZM26.5267 10.4462C30.4672 10.5871 34.2081 12.2155 36.9963 15.0037L48.31 3.68997C42.6611 -1.95894 35.082 -5.25817 27.0983 -5.54358L26.5267 10.4462ZM36.9963 15.0037C39.7845 17.7919 41.4129 21.5328 41.5538 25.4733L57.5436 24.9017C57.2582 16.918 53.9589 9.33888 48.31 3.68997L36.9963 15.0037ZM49.5487 17.1875H26.8125V33.1875H49.5487V17.1875ZM34.8125 25.1875V2.45131H18.8125V25.1875H34.8125ZM23.5627 38.0731C23.2268 38.0034 22.8939 37.9201 22.5647 37.8236L18.0603 53.1764C18.8031 53.3944 19.5544 53.5822 20.3123 53.7394L23.5627 38.0731ZM28.3125 45.5V39.8125H12.3125V45.5H28.3125ZM20.3125 47.8125H21.9375V31.8125H20.3125V47.8125ZM13.9375 39.8125V45.9062H29.9375V39.8125H13.9375ZM25.5129 38.3012C25.181 38.2877 24.8497 38.2611 24.52 38.2213L22.605 54.1063C23.3547 54.1967 24.1077 54.2573 24.8621 54.288L25.5129 38.3012ZM31.5625 46.1638V33.3125H15.5625V46.1638H31.5625ZM23.5625 41.3125H25.1875V25.3125H23.5625V41.3125ZM17.1875 33.3125V46.2946H33.1875V33.3125H17.1875ZM26.8125 44.5625H28.4375V28.5625H26.8125V44.5625ZM20.4375 36.5625V46.1614H36.4375V36.5625H20.4375ZM27.4853 38.2182C27.1475 38.2587 26.8167 38.2856 26.4923 38.2986L27.1327 54.2858C27.9036 54.2549 28.6566 54.1924 29.3897 54.1045L27.4853 38.2182ZM34.8125 46.2922V36.5625H18.8125V46.2922H34.8125ZM30.0625 47.8125H31.6875V31.8125H30.0625V47.8125ZM23.6875 39.8125V45.5H39.6875V39.8125H23.6875ZM29.4435 37.8212C29.0665 37.9313 28.7569 38.0088 28.4891 38.0625L31.6359 53.75C32.4698 53.5827 33.2409 53.3807 33.9315 53.1788L29.4435 37.8212ZM38.0625 45.9062V39.8125H22.0625V45.9062H38.0625ZM32.5 30.1875H30.0625V46.1875H32.5V30.1875ZM38.0625 38.1875V35.75H22.0625V38.1875H38.0625ZM38.0625 35.75C38.0625 33.4128 37.1341 31.1713 35.4814 29.5186L24.1677 40.8323C22.8197 39.4844 22.0625 37.6562 22.0625 35.75H38.0625ZM35.4814 29.5186C33.8287 27.8659 31.5872 26.9375 29.25 26.9375V42.9375C27.3438 42.9375 25.5156 42.1803 24.1677 40.8323L35.4814 29.5186ZM29.25 26.9375H26.8125V42.9375H29.25V26.9375ZM34.8125 34.9375V32.5H18.8125V34.9375H34.8125ZM34.8125 32.5C34.8125 30.1628 33.8841 27.9213 32.2314 26.2686L20.9177 37.5823C19.5697 36.2344 18.8125 34.4062 18.8125 32.5H34.8125ZM32.2314 26.2686C30.5787 24.6159 28.3372 23.6875 26 23.6875V39.6875C24.0938 39.6875 22.2656 38.9303 20.9177 37.5823L32.2314 26.2686ZM26 23.6875H22.75V39.6875H26V23.6875ZM22.75 23.6875C20.4128 23.6875 18.1713 24.6159 16.5186 26.2686L27.8323 37.5823C26.4844 38.9303 24.6562 39.6875 22.75 39.6875V23.6875ZM16.5186 26.2686C14.8659 27.9213 13.9375 30.1628 13.9375 32.5H29.9375C29.9375 34.4062 29.1803 36.2344 27.8323 37.5823L16.5186 26.2686ZM13.9375 32.5V38.1875H29.9375V32.5H13.9375ZM21.9375 30.1875H19.5V46.1875H21.9375V30.1875ZM19.5 30.1875C17.1628 30.1875 14.9213 31.1159 13.2686 32.7686L24.5823 44.0823C23.2344 45.4303 21.4062 46.1875 19.5 46.1875V30.1875ZM13.2686 32.7686C11.6159 34.4213 10.6875 36.6628 10.6875 39H26.6875C26.6875 40.9062 25.9303 42.7344 24.5823 44.0823L13.2686 32.7686ZM10.6875 39V44.9451H26.6875V39H10.6875ZM21.5791 37.4859C20.1304 36.9244 18.8006 36.0948 17.6593 35.0406L6.80346 46.7944C9.42185 49.2127 12.4726 51.1159 15.7959 52.4042L21.5791 37.4859ZM17.8882 46.5744L31.6569 32.8057L20.3431 21.492L6.57452 35.2606L17.8882 46.5744ZM20.3431 32.8057L34.1118 46.5744L45.4255 35.2606L31.6569 21.492L20.3431 32.8057ZM34.3407 35.0406C33.1994 36.0948 31.8696 36.9244 30.4209 37.4859L36.2041 52.4042C39.5274 51.1159 42.5782 49.2127 45.1965 46.7944L34.3407 35.0406ZM41.3125 44.9451V39H25.3125V44.9451H41.3125ZM41.3125 39C41.3125 36.6628 40.3841 34.4213 38.7314 32.7686L27.4177 44.0823C26.0697 42.7344 25.3125 40.9062 25.3125 39H41.3125ZM38.7314 32.7686C37.0787 31.1159 34.8372 30.1875 32.5 30.1875V46.1875C30.5938 46.1875 28.7656 45.4303 27.4177 44.0823L38.7314 32.7686ZM46.5744 34.1118L33.6182 21.1556L22.3045 32.4694L35.2606 45.4255L46.5744 34.1118ZM27.9614 34.8125H46.2922V18.8125H27.9614V34.8125ZM38.2984 26.4981C38.1837 29.4134 37.0311 32.1918 35.0485 34.3322L46.7865 45.205C51.3617 40.2658 54.0214 33.8543 54.286 27.1269L38.2984 26.4981ZM17.1875 5.70781V25.6636H33.1875V5.70781H17.1875ZM19.5306 20.0068L5.42565 34.1118L16.7394 45.4255L30.8444 31.3205L19.5306 20.0068ZM16.956 34.337C15.3604 32.6117 14.2927 30.4652 13.8792 28.1518L-1.8712 30.9669C-0.919731 36.2904 1.53733 41.2299 5.20904 45.2002L16.956 34.337ZM13.8792 28.1518C13.4657 25.8385 13.7239 23.4551 14.623 21.2839L-0.159611 15.1622C-2.2287 20.1586 -2.82267 25.6433 -1.8712 30.9669L13.8792 28.1518ZM14.623 21.2839C15.5221 19.1126 17.0246 17.2445 18.9525 15.9008L9.80358 2.77459C5.367 5.86688 1.90947 10.1658 -0.159611 15.1622L14.623 21.2839ZM18.9525 15.9008C20.8805 14.557 23.1531 13.7938 25.5013 13.7017L24.8737 -2.28603C19.4699 -2.0739 14.2402 -0.317709 9.80358 2.77459L18.9525 15.9008ZM26.0095 41.5625C21.9738 41.5577 18.0973 39.9883 15.1948 37.1843L4.07793 48.6915C9.9588 54.3729 17.8135 57.5528 25.9905 57.5625L26.0095 41.5625ZM15.1948 37.1843C12.2924 34.3803 10.5902 30.5602 10.4462 26.5271L-5.54359 27.0979C-5.25185 35.2697 -1.80295 43.0101 4.07793 48.6915L15.1948 37.1843ZM2.45131 34.8125H4.08281V18.8125H2.45131V34.8125ZM-3.91185 27.1046C-3.6289 34.8486 -0.353628 42.1811 5.22501 47.5596L16.3302 36.0412C13.7337 33.5378 12.2092 30.1249 12.0775 26.5204L-3.91185 27.1046ZM5.22501 47.5596C10.8036 52.9381 18.2508 55.9435 26 55.9435V39.9435C22.3931 39.9435 18.9268 38.5447 16.3302 36.0412L5.22501 47.5596ZM26 55.9435C33.7492 55.9435 41.1964 52.9381 46.775 47.5596L35.6698 36.0412C33.0732 38.5447 29.6069 39.9435 26 39.9435L26 55.9435ZM46.775 47.5596C52.3536 42.1811 55.6289 34.8486 55.9119 27.1046L39.9225 26.5204C39.7908 30.1249 38.2663 33.5378 35.6698 36.0412L46.775 47.5596ZM47.9172 34.8125H49.5422V18.8125H47.9172V34.8125ZM41.5472 26.5284C41.4039 30.5606 39.7027 34.3802 36.8013 37.184L47.9198 48.6896C53.7994 43.0079 57.2468 35.2677 57.5371 27.0966L41.5472 26.5284ZM36.8013 37.184C33.8999 39.9877 30.0244 41.5573 25.9896 41.5625L26.0104 57.5625C34.1866 57.5519 42.0402 54.3713 47.9198 48.6896L36.8013 37.184Z" fill="#F79009" mask="url(#path-1-inside-1_3001_5397)"/>
<path d="M37.375 14.625H39C39 13.9785 38.7432 13.3585 38.2861 12.9014C37.829 12.4443 37.209 12.1875 36.5625 12.1875V11.375H34.9375V12.1875C34.291 12.1875 33.671 12.4443 33.2139 12.9014C32.7568 13.3585 32.5 13.9785 32.5 14.625C32.5 15.2715 32.7568 15.8915 33.2139 16.3486C33.671 16.8057 34.291 17.0625 34.9375 17.0625V18.6875C34.722 18.6875 34.5153 18.6019 34.363 18.4495C34.2106 18.2972 34.125 18.0905 34.125 17.875H32.5C32.5 18.5215 32.7568 19.1415 33.2139 19.5986C33.671 20.0557 34.291 20.3125 34.9375 20.3125V21.125H36.5625V20.3125C37.209 20.3125 37.829 20.0557 38.2861 19.5986C38.7432 19.1415 39 18.5215 39 17.875C39 17.2285 38.7432 16.6085 38.2861 16.1514C37.829 15.6943 37.209 15.4375 36.5625 15.4375V13.8125C36.778 13.8125 36.9847 13.8981 37.137 14.0505C37.2894 14.2028 37.375 14.4095 37.375 14.625ZM37.375 17.875C37.375 18.0905 37.2894 18.2972 37.137 18.4495C36.9847 18.6019 36.778 18.6875 36.5625 18.6875V17.0625C36.778 17.0625 36.9847 17.1481 37.137 17.3005C37.2894 17.4528 37.375 17.6595 37.375 17.875ZM34.9375 15.4375C34.722 15.4375 34.5153 15.3519 34.363 15.1995C34.2106 15.0472 34.125 14.8405 34.125 14.625C34.125 14.4095 34.2106 14.2028 34.363 14.0505C34.5153 13.8981 34.722 13.8125 34.9375 13.8125V15.4375ZM15.4375 22.75H13.8125C13.8125 23.3965 14.0693 24.0165 14.5264 24.4736C14.9835 24.9307 15.6035 25.1875 16.25 25.1875V26H17.875V25.1875C18.5215 25.1875 19.1415 24.9307 19.5986 24.4736C20.0557 24.0165 20.3125 23.3965 20.3125 22.75C20.3125 22.1035 20.0557 21.4835 19.5986 21.0264C19.1415 20.5693 18.5215 20.3125 17.875 20.3125V18.6875C18.0905 18.6875 18.2972 18.7731 18.4495 18.9255C18.6019 19.0778 18.6875 19.2845 18.6875 19.5H20.3125C20.3125 18.8535 20.0557 18.2335 19.5986 17.7764C19.1415 17.3193 18.5215 17.0625 17.875 17.0625V16.25H16.25V17.0625C15.6035 17.0625 14.9835 17.3193 14.5264 17.7764C14.0693 18.2335 13.8125 18.8535 13.8125 19.5C13.8125 20.1465 14.0693 20.7665 14.5264 21.2236C14.9835 21.6807 15.6035 21.9375 16.25 21.9375V23.5625C16.0345 23.5625 15.8278 23.4769 15.6755 23.3245C15.5231 23.1722 15.4375 22.9655 15.4375 22.75ZM15.4375 19.5C15.4375 19.2845 15.5231 19.0778 15.6755 18.9255C15.8278 18.7731 16.0345 18.6875 16.25 18.6875V20.3125C16.0345 20.3125 15.8278 20.2269 15.6755 20.0745C15.5231 19.9222 15.4375 19.7155 15.4375 19.5ZM17.875 21.9375C18.0905 21.9375 18.2972 22.0231 18.4495 22.1755C18.6019 22.3278 18.6875 22.5345 18.6875 22.75C18.6875 22.9655 18.6019 23.1722 18.4495 23.3245C18.2972 23.4769 18.0905 23.5625 17.875 23.5625V21.9375Z" fill="#F79009"/>
<path d="M35.75 8.9375C34.3037 8.9375 32.8899 9.36637 31.6874 10.1699C30.4849 10.9734 29.5476 12.1154 28.9941 13.4516C28.4407 14.7878 28.2959 16.2581 28.578 17.6766C28.8602 19.0951 29.5566 20.398 30.5793 21.4207C31.602 22.4434 32.9049 23.1398 34.3234 23.422C35.7419 23.7041 37.2122 23.5593 38.5484 23.0059C39.8846 22.4524 41.0266 21.5151 41.8301 20.3126C42.6336 19.1101 43.0625 17.6963 43.0625 16.25C43.0604 14.3113 42.2892 12.4526 40.9183 11.0817C39.5475 9.71076 37.6887 8.93965 35.75 8.9375ZM35.75 21.9375C34.6251 21.9375 33.5255 21.6039 32.5902 20.979C31.6549 20.354 30.9259 19.4658 30.4954 18.4265C30.065 17.3873 29.9523 16.2437 30.1718 15.1404C30.3912 14.0372 30.9329 13.0237 31.7283 12.2283C32.5237 11.4329 33.5372 10.8912 34.6404 10.6718C35.7437 10.4523 36.8873 10.565 37.9265 10.9954C38.9658 11.4259 39.854 12.1549 40.479 13.0902C41.1039 14.0255 41.4375 15.1251 41.4375 16.25C41.4358 17.7579 40.836 19.2035 39.7698 20.2698C38.7035 21.336 37.2579 21.9358 35.75 21.9375Z" fill="#F79009"/>
</g>
<g opacity="0.4" filter="url(#filter0_f_3001_5397)">
<circle cx="39" cy="39" r="13" fill="#F79009"/>
</g>
<defs>
<filter id="filter0_f_3001_5397" x="6" y="6" width="66" height="66" filterUnits="userSpaceOnUse" color-interpolation-filters="sRGB">
<feFlood flood-opacity="0" result="BackgroundImageFix"/>
<feBlend mode="normal" in="SourceGraphic" in2="BackgroundImageFix" result="shape"/>
<feGaussianBlur stdDeviation="10" result="effect1_foregroundBlur_3001_5397"/>
</filter>
<clipPath id="clip0_3001_5397">
<rect width="52" height="52" fill="white"/>
</clipPath>
</defs>
</svg>
